/* XPM */
static char * 2leftarrow7_xpm[] = {
"32 32 333 2",
"  	c None",
". 	c #000055",
"+ 	c #0750C4",
"@ 	c #3978D9",
"# 	c #628EDB",
"$ 	c #000024",
"% 	c #004DC6",
"& 	c #1C5BCA",
"* 	c #638DE7",
"= 	c #17366C",
"- 	c #063C8C",
"; 	c #316FC7",
"> 	c #7CAAE9",
", 	c #C0D8F5",
"' 	c #7DA7ED",
") 	c #002A55",
"! 	c #0B68D6",
"~ 	c #2172D8",
"{ 	c #6197E2",
"] 	c #ACC8F0",
"^ 	c #CFE3FF",
"/ 	c #4165A3",
"( 	c #003FBF",
"_ 	c #0C5CCA",
": 	c #2E71CA",
"< 	c #6EA6EC",
"[ 	c #A2C9F6",
"} 	c #B1D3F6",
"| 	c #B2D2F5",
"1 	c #B3D8FF",
"2 	c #4977BF",
"3 	c #1185ED",
"4 	c #2387E6",
"5 	c #59A1EB",
"6 	c #95C3F3",
"7 	c #AFD2F6",
"8 	c #AFCEF4",
"9 	c #BACEF3",
"0 	c #608FD4",
"a 	c #000000",
"b 	c #0033CC",
"c 	c #0F5FCD",
"d 	c #2B76D8",
"e 	c #5D9CE8",
"f 	c #87BBF3",
"g 	c #94C4F4",
"h 	c #97C6F4",
"i 	c #9DC9F4",
"j 	c #A8D4FC",
"k 	c #4E9BD8",
"l 	c #0A5689",
"m 	c #2388D5",
"n 	c #52AFF8",
"o 	c #80C3F8",
"p 	c #93CCF9",
"q 	c #94C8F7",
"r 	c #95C1F2",
"s 	c #98BAEC",
"t 	c #A3BBEA",
"u 	c #77AAEC",
"v 	c #001F3F",
"w 	c #0055AA",
"x 	c #0E5DCE",
"y 	c #1065D4",
"z 	c #428CE4",
"A 	c #6DABEE",
"B 	c #75B4F1",
"C 	c #77B7F3",
"D 	c #7CBAF3",
"E 	c #82BFF5",
"F 	c #88C4F6",
"G 	c #8FCAF9",
"H 	c #9CD4FE",
"I 	c #68C0FA",
"J 	c #4F73AA",
"K 	c #1A8FD4",
"L 	c #1481C5",
"M 	c #36AEFA",
"N 	c #6CC8FF",
"O 	c #78CAFE",
"P 	c #7AC9FD",
"Q 	c #7CC3F9",
"R 	c #80BBF3",
"S 	c #84B6EF",
"T 	c #88B5ED",
"U 	c #90B4EB",
"V 	c #88BBF9",
"W 	c #13497D",
"X 	c #0E56C2",
"Y 	c #0E61D7",
"Z 	c #0D69DA",
"` 	c #1274E0",
" .	c #2D8CE9",
"..	c #5AA9F0",
"+.	c #61AEF2",
"@.	c #66B2F3",
"#.	c #6DBAF7",
"$.	c #73C2FB",
"%.	c #80CEFF",
"&.	c #8AD4FF",
"*.	c #7AD3FF",
"=.	c #1A75A7",
"-.	c #1A93D5",
";.	c #1AB1FF",
">.	c #1EB4FF",
",.	c #29B5FF",
"'.	c #56C3FF",
").	c #66C7FF",
"!.	c #68C3FE",
"~.	c #6CBEF9",
"{.	c #70BCF6",
"].	c #75B9F4",
"^.	c #7AB6F1",
"/.	c #80B3EE",
"(.	c #85BAF7",
"_.	c #2E78B7",
":.	c #001434",
"<.	c #528FE1",
"[.	c #C2DDF9",
"}.	c #98C7F5",
"|.	c #258BEA",
"1.	c #1183EA",
"2.	c #228FEE",
"3.	c #4AAAF5",
"4.	c #5AB8FA",
"5.	c #5FC0FE",
"6.	c #66C6FF",
"7.	c #6CCBFF",
"8.	c #72CEFF",
"9.	c #79D1FF",
"0.	c #77D1FF",
"a.	c #53CBFF",
"b.	c #B4EAFF",
"c.	c #89D9FF",
"d.	c #3ABDFF",
"e.	c #22B5FF",
"f.	c #21B4FF",
"g.	c #45BEFF",
"h.	c #5AC3FF",
"i.	c #5FC3FF",
"j.	c #63C1FD",
"k.	c #67BDFB",
"l.	c #6BB9F6",
"m.	c #70B4F3",
"n.	c #7AB5F3",
"o.	c #45A1E8",
"p.	c #000F0F",
"q.	c #031D3D",
"r.	c #1E7CE4",
"s.	c #459AED",
"t.	c #69AEF0",
"u.	c #B5DAF9",
"v.	c #90C8F7",
"w.	c #48ABF7",
"x.	c #2EACFD",
"y.	c #38B6FF",
"z.	c #4AC0FF",
"A.	c #57C6FF",
"B.	c #5ECAFF",
"C.	c #64CEFF",
"D.	c #6AD1FF",
"E.	c #72D4FF",
"F.	c #46C6FF",
"G.	c #3FC4FF",
"H.	c #68D2FF",
"I.	c #B9EBFF",
"J.	c #9DE2FF",
"K.	c #5DCBFF",
"L.	c #37BEFF",
"M.	c #37BCFF",
"N.	c #47C0FF",
"O.	c #53C2FF",
"P.	c #59C1FF",
"Q.	c #5EBEFD",
"R.	c #61B9F8",
"S.	c #69B4F5",
"T.	c #54B7FE",
"U.	c #073855",
"V.	c #031E39",
"W.	c #167DED",
"X.	c #117EEE",
"Y.	c #1482EB",
"Z.	c #2597F2",
"`.	c #4CB5FB",
" +	c #93D8FF",
".+	c #B7E7FF",
"++	c #6DCDFF",
"@+	c #57C8FF",
"#+	c #48C6FF",
"$+	c #4AC8FF",
"%+	c #52CDFF",
"&+	c #5CD2FF",
"*+	c #67D6FF",
"=+	c #4FCEFF",
"-+	c #23C6FF",
";+	c #25CAFF",
">+	c #2EC8FF",
",+	c #48CDFF",
"'+	c #90E1FF",
")+	c #B9ECFF",
"!+	c #99E1FF",
"~+	c #60CCFF",
"{+	c #49C3FF",
"]+	c #45BFFF",
"^+	c #49BEFF",
"/+	c #52BDFF",
"(+	c #58B6FA",
"_+	c #59C0FF",
":+	c #16628C",
"<+	c #00000B",
"[+	c #072D5E",
"}+	c #105CAD",
"|+	c #1889EA",
"1+	c #1DA7FF",
"2+	c #1BB0FF",
"3+	c #1FB3FF",
"4+	c #30BBFF",
"5+	c #7FD8FF",
"6+	c #B0E9FF",
"7+	c #B8ECFF",
"8+	c #76DAFF",
"9+	c #61D6FF",
"0+	c #4DD3FF",
"a+	c #4BD5FF",
"b+	c #46D6FF",
"c+	c #21A5DD",
"d+	c #22AAE6",
"e+	c #2CD0FF",
"f+	c #2AD4FF",
"g+	c #27CCFF",
"h+	c #2FCAFF",
"i+	c #4ACEFF",
"j+	c #90E0FF",
"k+	c #B7EAFF",
"l+	c #B4E8FF",
"m+	c #63CBFF",
"n+	c #49BFFF",
"o+	c #3FB7FF",
"p+	c #40B8FF",
"q+	c #1F8BC5",
"r+	c #02182B",
"s+	c #0D4B7C",
"t+	c #1986CE",
"u+	c #22B1FD",
"v+	c #26C5FF",
"w+	c #24C6FF",
"x+	c #27C7FF",
"y+	c #39CEFF",
"z+	c #A2EAFF",
"A+	c #B3EFFF",
"B+	c #BAF1FF",
"C+	c #73E2FF",
"D+	c #55E5FF",
"E+	c #228CAA",
"F+	c #000C18",
"G+	c #0C4564",
"H+	c #1B8ABB",
"I+	c #27BFF7",
"J+	c #2ED5FF",
"K+	c #2AD3FF",
"L+	c #27CAFF",
"M+	c #2FC7FF",
"N+	c #4ACBFF",
"O+	c #90DEFF",
"P+	c #B7E8FF",
"Q+	c #B0E5FF",
"R+	c #53C1FF",
"S+	c #2EB1F3",
"T+	c #00111A",
"U+	c #000004",
"V+	c #06283F",
"W+	c #136291",
"X+	c #21A2E0",
"Y+	c #2BCAFF",
"Z+	c #2EDAFF",
"`+	c #2CD9FF",
" @	c #2FD9FF",
".@	c #41DDFF",
"+@	c #A6F1FF",
"@@	c #B9F7FF",
"#@	c #59C9E2",
"$@	c #00000A",
"%@	c #021A27",
"&@	c #11567A",
"*@	c #1E99CC",
"=@	c #2AC6FD",
"-@	c #2DD4FF",
";@	c #25C3FF",
">@	c #2DC0FF",
",@	c #49C5FF",
"'@	c #91DBFF",
")@	c #AEE8FF",
"!@	c #0D3A4E",
"~@	c #00070A",
"{@	c #093851",
"]@	c #197BA7",
"^@	c #28BBED",
"/@	c #33E1FF",
"(@	c #35EBFF",
"_@	c #32E9FF",
":@	c #38EBFF",
"<@	c #34D4EF",
"[@	c #000808",
"}@	c #062638",
"|@	c #13658D",
"1@	c #20A2DB",
"2@	c #29C5FF",
"3@	c #29CCFF",
"4@	c #23C2FF",
"5@	c #21B8FF",
"6@	c #2BC4FF",
"7@	c #11556D",
"8@	c #000F18",
"9@	c #0D4A65",
"0@	c #2094BB",
"a@	c #2FD1F6",
"b@	c #3BF9FF",
"c@	c #35E3EF",
"d@	c #000707",
"e@	c #000307",
"f@	c #08304A",
"g@	c #136B9C",
"h@	c #1FA0E6",
"i@	c #25BAFF",
"j@	c #27C9FF",
"k@	c #0F516F",
"l@	c #021C29",
"m@	c #135A75",
"n@	c #135B74",
"o@	c #000913",
"p@	c #083459",
"q@	c #0D4D7C",
"r@	c #031526",
"                                                                ",
"                                                                ",
"                                                                ",
"                                                                ",
"                                                                ",
"                                                                ",
"                                                                ",
"                                                                ",
"                    . + @ # $                     % & * =       ",
"                . - ; > , ' )                 ! ~ { ] ^ /       ",
"            ( _ : < [ } | 1 2             3 4 5 6 7 8 9 0 a     ",
"        b c d e f g g h i j k a       l m n o p q r s t u v     ",
"    w x y z A B C D E F G H I J   K L M N O P Q R S T U V W     ",
"  X Y Z `  ...+.@.#.$.P %.&.*.=.-.;.>.,.'.).!.~.{.].^./.(._.    ",
":.<.[.}.|.1.2.3.4.5.6.7.8.9.0.a.b.c.d.e.f.g.h.i.j.k.l.m.n.o.p.  ",
"q.r.s.t.u.v.w.x.y.z.A.B.C.D.E.F.G.H.I.J.K.L.M.N.O.P.Q.R.S.T.U.  ",
"V.W.X.Y.Z.`. +.+++@+#+$+%+&+*+=+-+;+>+,+'+)+!+~+{+]+^+/+(+_+:+  ",
"<+[+}+|+1+2+3+4+5+6+7+8+9+0+a+b+c+d+e+f+g+h+i+j+k+l+m+n+o+p+q+  ",
"  a a r+s+t+u+v+w+x+y+z+A+B+C+D+E+F+G+H+I+J+K+L+M+N+O+P+Q+R+S+T+",
"      a a U+V+W+X+Y+Z+`+ @.@+@@@#@$@a a %@&@*@=@-@g+;@>@,@'@)@!@",
"            a a ~@{@]@^@/@(@_@:@<@[@    a a a }@|@1@2@3@4@5@6@7@",
"                a a a 8@9@0@a@b@c@d@          a a e@f@g@h@i@j@k@",
"                      a a a l@m@n@a               a a a o@p@q@r@",
"                            a a a a                     a a a a ",
"                                                                ",
"                                                                ",
"                                                                ",
"                                                                ",
"                                                                ",
"                                                                ",
"                                                                ",
"                                                                "};
