/* XPM */
static char * 2rightarrow_xpm[] = {
"32 32 368 2",
"  	c None",
". 	c #17398B",
"+ 	c #2050B7",
"@ 	c #000F34",
"# 	c #000E2A",
"$ 	c #2A68D4",
"% 	c #093177",
"& 	c #000000",
"* 	c #4C6EB0",
"= 	c #BDD4FD",
"- 	c #6C99E4",
"; 	c #1C519B",
"> 	c #001737",
", 	c #06234E",
"' 	c #A4C8F8",
") 	c #9CC1F7",
"! 	c #4176C6",
"~ 	c #052D66",
"{ 	c #000011",
"] 	c #000014",
"^ 	c #6A97DC",
"/ 	c #C8DCF8",
"( 	c #BDD7F7",
"_ 	c #A1CAFC",
": 	c #62A2EB",
"< 	c #1E5FA5",
"[ 	c #001C3D",
"} 	c #1C5188",
"| 	c #B8DCFF",
"1 	c #C1DBF8",
"2 	c #B4D5FA",
"3 	c #83B6F7",
"4 	c #3C78C9",
"5 	c #042E69",
"6 	c #032143",
"7 	c #7EAAEC",
"8 	c #AFC2ED",
"9 	c #A3C6F1",
"0 	c #A3CCF5",
"a 	c #A3D0F8",
"b 	c #89C7FF",
"c 	c #419CEF",
"d 	c #11558E",
"e 	c #000C19",
"f 	c #3A7CBA",
"g 	c #AED6FE",
"h 	c #A9CDF4",
"i 	c #A3CBF4",
"j 	c #A3CBF5",
"k 	c #9CC7F8",
"l 	c #63A4F5",
"m 	c #1E5EB5",
"n 	c #001A41",
"o 	c #114477",
"p 	c #8FBBF9",
"q 	c #9BB7EA",
"r 	c #93B6EB",
"s 	c #8FBCF1",
"t 	c #8CC4F6",
"u 	c #8BCAF9",
"v 	c #87CBFD",
"w 	c #6AC4FF",
"x 	c #39A2EC",
"y 	c #135E8E",
"z 	c #001926",
"A 	c #00000E",
"B 	c #58AAEA",
"C 	c #A7D4FC",
"D 	c #99CAF6",
"E 	c #93C5F4",
"F 	c #8EC2F4",
"G 	c #89BFF3",
"H 	c #88BDF3",
"I 	c #77B2F5",
"J 	c #4A91E9",
"K 	c #1C5CAF",
"L 	c #04214B",
"M 	c #2C73B2",
"N 	c #8EBBF6",
"O 	c #8AB4EC",
"P 	c #84B6EE",
"Q 	c #7FB7F0",
"R 	c #7BB9F3",
"S 	c #76C1F8",
"T 	c #73C7FE",
"U 	c #73CAFF",
"V 	c #6FCBFF",
"W 	c #38BDFF",
"X 	c #19A2F0",
"Y 	c #126694",
"Z 	c #001212",
"` 	c #042C47",
" .	c #71CBFF",
"..	c #97D5FE",
"+.	c #8BCDFC",
"@.	c #85C7F9",
"#.	c #7EC0F6",
"$.	c #78BAF4",
"%.	c #72B6F3",
"&.	c #6EB2F2",
"*.	c #6EAFF1",
"=.	c #509CF1",
"-.	c #1370E3",
";.	c #0D50AD",
">.	c #03224D",
",.	c #4499E1",
"'.	c #87B7F1",
").	c #7DB3EF",
"!.	c #78B6F2",
"~.	c #73B9F5",
"{.	c #6FBCF7",
"].	c #6ABEFA",
"^.	c #66C2FE",
"/.	c #65C7FF",
"(.	c #4EC0FF",
"_.	c #21B1FF",
":.	c #1EB2FF",
"<.	c #1DBAFF",
"[.	c #1F9CE1",
"}.	c #1E83BC",
"|.	c #7CD5FF",
"1.	c #88D4FF",
"2.	c #80CFFF",
"3.	c #79CAFE",
"4.	c #72C3FB",
"5.	c #6BBBF9",
"6.	c #65B3F4",
"7.	c #61AEF2",
"8.	c #59AAF2",
"9.	c #2A8CEA",
"0.	c #1177E4",
"a.	c #0E70E5",
"b.	c #0F69E3",
"c.	c #0F4290",
"d.	c #00263E",
"e.	c #53ADF4",
"f.	c #79B4F1",
"g.	c #6FB5F3",
"h.	c #6BBAF7",
"i.	c #67BEFB",
"j.	c #62C1FE",
"k.	c #5EC2FF",
"l.	c #5AC3FF",
"m.	c #42BDFF",
"n.	c #1FB3FF",
"o.	c #23B7FF",
"p.	c #3EBFFF",
"q.	c #66CCFF",
"r.	c #9DE2FF",
"s.	c #54CBFF",
"t.	c #77D1FF",
"u.	c #79D1FF",
"v.	c #73CEFF",
"w.	c #6DCBFF",
"x.	c #66C7FF",
"y.	c #5FC1FE",
"z.	c #5BBAFB",
"A.	c #4CACF6",
"B.	c #2492EE",
"C.	c #1284EB",
"D.	c #248BEB",
"E.	c #499AEA",
"F.	c #91C0F2",
"G.	c #62A3F9",
"H.	c #072D61",
"I.	c #10537A",
"J.	c #5EBFFF",
"K.	c #67B3F3",
"L.	c #60B9FA",
"M.	c #5CBFFE",
"N.	c #59C1FF",
"O.	c #54C3FF",
"P.	c #46C0FF",
"Q.	c #2FBAFF",
"R.	c #38BFFF",
"S.	c #62CDFF",
"T.	c #A1E3FF",
"U.	c #9FE4FF",
"V.	c #66D1FF",
"W.	c #3AC3FF",
"X.	c #46C6FF",
"Y.	c #72D4FF",
"Z.	c #6AD1FF",
"`.	c #64CEFF",
" +	c #5ECAFF",
".+	c #58C6FF",
"++	c #4FC1FF",
"@+	c #36B7FF",
"#+	c #28ABFE",
"$+	c #45ADF8",
"%+	c #6FB7F5",
"&+	c #9DCDF7",
"*+	c #8EC4F5",
"=+	c #469CED",
"-+	c #2185F1",
";+	c #083366",
">+	c #1E7AB1",
",+	c #5EBDFF",
"'+	c #5AB6F9",
")+	c #55BDFE",
"!+	c #4EBFFF",
"~+	c #45BFFF",
"{+	c #42C0FF",
"]+	c #47C4FF",
"^+	c #6FD2FF",
"/+	c #AEE8FF",
"(+	c #A1E5FF",
"_+	c #52CFFF",
":+	c #2AC5FF",
"<+	c #23C5FF",
"[+	c #23C3FF",
"}+	c #4DCCFF",
"|+	c #6AD6FF",
"1+	c #60D2FF",
"2+	c #58CEFF",
"3+	c #4DCAFF",
"4+	c #45C5FF",
"5+	c #55C4FF",
"6+	c #A1DEFF",
"7+	c #A8E0FF",
"8+	c #65BFFC",
"9+	c #2A98F1",
"0+	c #1380E8",
"a+	c #117BE8",
"b+	c #1788FB",
"c+	c #083365",
"d+	c #2CA3E4",
"e+	c #4CB7FF",
"f+	c #44B7FE",
"g+	c #43BCFF",
"h+	c #54C5FF",
"i+	c #6ED0FF",
"j+	c #9EE1FF",
"k+	c #9CE4FF",
"l+	c #61D4FF",
"m+	c #3CCAFF",
"n+	c #2AC9FF",
"o+	c #28CEFF",
"p+	c #2DD4FF",
"q+	c #29C3FF",
"r+	c #26B7F4",
"s+	c #4FD5FF",
"t+	c #54D5FF",
"u+	c #4CD2FF",
"v+	c #50D1FF",
"w+	c #66D5FF",
"x+	c #98E2FF",
"y+	c #A0E4FF",
"z+	c #91DEFF",
"A+	c #48C2FF",
"B+	c #27B3FF",
"C+	c #1BACFF",
"D+	c #1CA6FF",
"E+	c #1B96FC",
"F+	c #1576DA",
"G+	c #0D4E9C",
"H+	c #001122",
"I+	c #05293B",
"J+	c #20B0FD",
"K+	c #3EB8FF",
"L+	c #66C9FF",
"M+	c #9EDFFF",
"N+	c #9AE1FF",
"O+	c #61D1FF",
"P+	c #3ECAFF",
"Q+	c #2AC7FF",
"R+	c #26CBFF",
"S+	c #2CD2FF",
"T+	c #2DD5FF",
"U+	c #24B3EA",
"V+	c #16719B",
"W+	c #072E48",
"X+	c #1786AA",
"Y+	c #3CDFFF",
"Z+	c #5EDDFF",
"`+	c #9CE9FF",
" @	c #A4EAFF",
".@	c #94E6FF",
"+@	c #52D3FF",
"@@	c #31C7FF",
"#@	c #23C0FF",
"$@	c #22BFFF",
"%@	c #24BDFF",
"&@	c #20ABFF",
"*@	c #1478BF",
"=@	c #0A3E6C",
"-@	c #021021",
";@	c #14506C",
">@	c #90E1FF",
",@	c #9ADDFF",
"'@	c #9ADFFF",
")@	c #49C7FF",
"!@	c #28C0FF",
"~@	c #24C4FF",
"{@	c #29CDFF",
"]@	c #2ED6FF",
"^@	c #2DD0FF",
"/@	c #23ACE2",
"(@	c #126794",
"_@	c #021422",
":@	c #47BAD9",
"<@	c #ACF5FF",
"[@	c #ACF1FF",
"}@	c #6DE3FF",
"|@	c #3BD7FF",
"1@	c #2AD1FF",
"2@	c #29D1FF",
"3@	c #2CD1FF",
"4@	c #2BCDFF",
"5@	c #23B1F5",
"6@	c #177BBB",
"7@	c #083152",
"8@	c #1A6381",
"9@	c #55D2FF",
"0@	c #34BBFF",
"a@	c #24BBFF",
"b@	c #24C2FF",
"c@	c #2BCEFF",
"d@	c #2CCEFF",
"e@	c #25B5ED",
"f@	c #197EA8",
"g@	c #0A3D57",
"h@	c #000B11",
"i@	c #000D0D",
"j@	c #4ED5F1",
"k@	c #58EBFF",
"l@	c #38E1FF",
"m@	c #2FDFFF",
"n@	c #32E2FF",
"o@	c #33E1FF",
"p@	c #2CCBFE",
"q@	c #1F99CD",
"r@	c #11577C",
"s@	c #041A2C",
"t@	c #187CAB",
"u@	c #21C0FF",
"v@	c #24BFFF",
"w@	c #28C6FF",
"x@	c #25B8FD",
"y@	c #1A87BB",
"z@	c #0C4868",
"A@	c #02121C",
"B@	c #072A38",
"C@	c #31E2FD",
"D@	c #36F0FF",
"E@	c #38EFFF",
"F@	c #35E4FF",
"G@	c #27B3DF",
"H@	c #156B90",
"I@	c #072B3F",
"J@	c #000003",
"K@	c #136496",
"L@	c #26C0FF",
"M@	c #1FA4EF",
"N@	c #1575B2",
"O@	c #072A46",
"P@	c #001E26",
"Q@	c #34E1FF",
"R@	c #37E8FF",
"S@	c #26AED7",
"T@	c #125D81",
"U@	c #000C16",
"V@	c #001526",
"W@	c #08355B",
"X@	c #021223",
"Y@	c #0C4459",
"Z@	c #093447",
"`@	c #000309",
"                                                                ",
"                                                                ",
"                                                                ",
"                                                                ",
"                                                                ",
"                                                                ",
"                                                                ",
"      . + @                       # $ % &                       ",
"    & * = - ; >                   , ' ) ! ~ {                   ",
"    ] ^ / ( _ : < [               } | 1 2 3 4 5 &               ",
"    6 7 8 9 0 a b c d e         & f g h i j k l m n             ",
"    o p q r s t u v w x y z     A B C D E F G H I J K L         ",
"    M N O P Q R S T U V W X Y Z `  ...+.@.#.$.%.&.*.=.-.;.>.    ",
"  & ,.'.).!.~.{.].^./.(._.:.<.[.}.|.1.2.3.4.5.6.7.8.9.0.a.b.c.& ",
"  d.e.f.g.h.i.j.k.l.m.n.o.p.q.r.s.t.u.v.w.x.y.z.A.B.C.D.E.F.G.H.",
"  I.J.K.L.M.N.O.P.Q.R.S.T.U.V.W.X.Y.Z.`. +.+++@+#+$+%+&+*+=+-+;+",
"  >+,+'+)+!+~+{+]+^+/+(+_+:+<+[+}+|+1+2+3+4+{+5+6+7+8+9+0+a+b+c+",
"& d+e+f+g+h+i+j+k+l+m+n+o+p+q+r+s+t+u+v+w+x+y+z+A+B+C+D+E+F+G+H+",
"I+J+K+L+M+N+O+P+Q+R+S+T+U+V+W+X+Y+Z+`+ @.@+@@@#@$@%@&@*@=@-@& & ",
";@>@,@'@)@!@~@{@]@^@/@(@_@& & :@<@[@}@|@1@2@3@4@5@6@7@& & & &   ",
"8@9@0@a@b@c@d@e@f@g@h@& & & i@j@k@l@m@n@o@p@q@r@s@& & & &       ",
"t@u@v@w@x@y@z@A@& & &       B@C@D@E@F@G@H@I@J@& & &             ",
"K@L@M@N@O@& & & &           P@Q@R@S@T@U@& & &                   ",
"V@W@X@& & & &               & Y@Z@`@& & &                       ",
"& & & &                       & & &                             ",
"                                                                ",
"                                                                ",
"                                                                ",
"                                                                ",
"                                                                ",
"                                                                ",
"                                                                "};
