/* XPM */
static char * agent_xpm[] = {
"32 32 406 2",
"  	c None",
". 	c #000000",
"+ 	c #141419",
"@ 	c #1E1E27",
"# 	c #0C0C13",
"$ 	c #28282F",
"% 	c #585860",
"& 	c #70707A",
"* 	c #71717F",
"= 	c #52525F",
"- 	c #282A35",
"; 	c #000009",
"> 	c #212125",
", 	c #7A7C87",
"' 	c #A3A3AF",
") 	c #9D9DAB",
"! 	c #878797",
"~ 	c #6D6D7F",
"{ 	c #54546A",
"] 	c #393A53",
"^ 	c #191A34",
"/ 	c #00000D",
"( 	c #1A1A1F",
"_ 	c #8C8C9A",
": 	c #8D8D9C",
"< 	c #717182",
"[ 	c #59596D",
"} 	c #45465C",
"| 	c #34354C",
"1 	c #24253E",
"2 	c #151631",
"3 	c #070827",
"4 	c #00011F",
"5 	c #5B5B66",
"6 	c #7B7B8C",
"7 	c #616174",
"8 	c #515166",
"9 	c #424259",
"0 	c #31324A",
"a 	c #21223C",
"b 	c #11122E",
"c 	c #030422",
"d 	c #00001E",
"e 	c #000021",
"f 	c #000010",
"g 	c #333339",
"h 	c #6E707D",
"i 	c #737485",
"j 	c #5F5F72",
"k 	c #4F4F64",
"l 	c #3E3F55",
"m 	c #32334A",
"n 	c #2C2D45",
"o 	c #282A42",
"p 	c #181934",
"q 	c #13142F",
"r 	c #0E0F2D",
"s 	c #07091F",
"t 	c #4C4C55",
"u 	c #888898",
"v 	c #7A7A8A",
"w 	c #676779",
"x 	c #46475C",
"y 	c #43445A",
"z 	c #44455A",
"A 	c #3F4056",
"B 	c #383950",
"C 	c #2F2F47",
"D 	c #282942",
"E 	c #24253F",
"F 	c #20213C",
"G 	c #141629",
"H 	c #3D3D44",
"I 	c #8F8F9F",
"J 	c #7C7C8B",
"K 	c #727282",
"L 	c #69697A",
"M 	c #5E5F71",
"N 	c #57576B",
"O 	c #525267",
"P 	c #4D4E63",
"Q 	c #49495F",
"R 	c #44445A",
"S 	c #3D3E54",
"T 	c #36374E",
"U 	c #33344C",
"V 	c #2A2B44",
"W 	c #22233F",
"X 	c #121223",
"Y 	c #090909",
"Z 	c #81818E",
"` 	c #868795",
" .	c #7E7F8E",
"..	c #757686",
"+.	c #6C6C7D",
"@.	c #636476",
"#.	c #5E5E71",
"$.	c #5C5C6F",
"%.	c #595A6D",
"&.	c #56566A",
"*.	c #494A5F",
"=.	c #404157",
"-.	c #3C3C53",
";.	c #32334B",
">.	c #22233C",
",.	c #1D1E38",
"'.	c #05050A",
").	c #404047",
"!.	c #8D8E9D",
"~.	c #797A89",
"{.	c #757585",
"].	c #747585",
"^.	c #717282",
"/.	c #6C6D7E",
"(.	c #6A6A7C",
"_.	c #666779",
":.	c #616274",
"<.	c #5A5A6E",
"[.	c #505165",
"}.	c #45455B",
"|.	c #3D3E55",
"1.	c #35364D",
"2.	c #2C2C45",
"3.	c #20213D",
"4.	c #0F0F1E",
"5.	c #666671",
"6.	c #818292",
"7.	c #767787",
"8.	c #646577",
"9.	c #56576B",
"0.	c #535467",
"a.	c #4C4D62",
"b.	c #45465B",
"c.	c #303149",
"d.	c #272841",
"e.	c #1E1F39",
"f.	c #1F203C",
"g.	c #16172A",
"h.	c #090009",
"i.	c #717180",
"j.	c #9F9FAA",
"k.	c #DDDDE0",
"l.	c #E2E2E3",
"m.	c #C9C9CC",
"n.	c #8E8F9B",
"o.	c #4A4B60",
"p.	c #414258",
"q.	c #393A51",
"r.	c #303148",
"s.	c #20213A",
"t.	c #1F203A",
"u.	c #1A1B32",
"v.	c #161616",
"w.	c #8C8D99",
"x.	c #E7E7E9",
"y.	c #E5E5E4",
"z.	c #DEDEDE",
"A.	c #D5D5D4",
"B.	c #E9E9E8",
"C.	c #8F8F9A",
"D.	c #393951",
"E.	c #2D2E46",
"F.	c #23243D",
"G.	c #1B1C34",
"H.	c #202023",
"I.	c #E8E8EB",
"J.	c #CDCDCD",
"K.	c #CECECE",
"L.	c #B0B0B0",
"M.	c #C2C2C6",
"N.	c #2F3048",
"O.	c #292A43",
"P.	c #1E1F3A",
"Q.	c #1D1E37",
"R.	c #2B2E31",
"S.	c #EBEBED",
"T.	c #E1E1E0",
"U.	c #FFFFFF",
"V.	c #E0E0E0",
"W.	c #CCCCCC",
"X.	c #E7E7E6",
"Y.	c #8F909A",
"Z.	c #2B2C45",
"`.	c #040409",
" +	c #2B2B33",
".+	c #DBDBE0",
"++	c #EFEFEE",
"@+	c #D7D7D7",
"#+	c #EAEAEA",
"$+	c #E1E1E1",
"%+	c #D0D0D0",
"&+	c #1B1C36",
"*+	c #1D1E36",
"=+	c #000004",
"-+	c #26282E",
";+	c #B8B8C2",
">+	c #ECECEB",
",+	c #8A8A8A",
"'+	c #B6B6B6",
")+	c #D6D6D6",
"!+	c #C6C6C6",
"~+	c #C3C2C1",
"{+	c #AAAAAF",
"]+	c #2E2F47",
"^+	c #1C1D37",
"/+	c #2C2C34",
"(+	c #828292",
"_+	c #E7E7E8",
":+	c #C9C9C8",
"<+	c #B9B9B9",
"[+	c #C8C8C8",
"}+	c #B8B8B7",
"|+	c #A8A8AC",
"1+	c #47485C",
"2+	c #1A1B36",
"3+	c #181831",
"4+	c #3C3C46",
"5+	c #727384",
"6+	c #BEBEBE",
"7+	c #C9C9C9",
"8+	c #C0C0BF",
"9+	c #98989E",
"0+	c #25263D",
"a+	c #0C0C0C",
"b+	c #121212",
"c+	c #9F9FA5",
"d+	c #8E8E97",
"e+	c #BFBFBE",
"f+	c #AEAEAC",
"g+	c #AEAEAE",
"h+	c #56576A",
"i+	c #21223B",
"j+	c #191A36",
"k+	c #292A41",
"l+	c #727378",
"m+	c #313131",
"n+	c #57575F",
"o+	c #B4B4B2",
"p+	c #9F9FA4",
"q+	c #686979",
"r+	c #96969B",
"s+	c #747581",
"t+	c #515265",
"u+	c #1D1E39",
"v+	c #1C1D38",
"w+	c #1B1C37",
"x+	c #24253C",
"y+	c #3E3F4C",
"z+	c #5F5F5F",
"A+	c #676767",
"B+	c #27283B",
"C+	c #464652",
"D+	c #707084",
"E+	c #85858C",
"F+	c #A0A09E",
"G+	c #9C9C9C",
"H+	c #939398",
"I+	c #595A6A",
"J+	c #37384F",
"K+	c #1A1C37",
"L+	c #28293F",
"M+	c #343445",
"N+	c #41414A",
"O+	c #454546",
"P+	c #3F3F3C",
"Q+	c #424345",
"R+	c #2F3044",
"S+	c #1B1C3A",
"T+	c #15162A",
"U+	c #141414",
"V+	c #5F5F73",
"W+	c #525368",
"X+	c #696A75",
"Y+	c #858687",
"Z+	c #8C8C89",
"`+	c #8B8B89",
" @	c #7E7E7F",
".@	c #6C6C71",
"+@	c #5B5C64",
"@@	c #51515C",
"#@	c #4B4B56",
"$@	c #4B4B55",
"%@	c #4B4C54",
"&@	c #4D4D53",
"*@	c #4E4E51",
"=@	c #4D4D4C",
"-@	c #474744",
";@	c #3E3D3B",
">@	c #363638",
",@	c #31323F",
"'@	c #21223E",
")@	c #25263F",
"!@	c #262743",
"~@	c #10101C",
"{@	c #1F1F24",
"]@	c #6C6C7F",
"^@	c #4E4F64",
"/@	c #3F3F57",
"(@	c #525361",
"_@	c #67676D",
":@	c #6F7071",
"<@	c #70706F",
"[@	c #6D6D6A",
"}@	c #686865",
"|@	c #62625F",
"1@	c #5A5A57",
"2@	c #535351",
"3@	c #4C4C4B",
"4@	c #444446",
"5@	c #3E3E43",
"6@	c #393A44",
"7@	c #353647",
"8@	c #2B2C47",
"9@	c #2B2C46",
"0@	c #2D2E47",
"a@	c #2F304B",
"b@	c #353648",
"c@	c #1A1A1D",
"d@	c #67677A",
"e@	c #55566A",
"f@	c #4A4B61",
"g@	c #3F4057",
"h@	c #34344D",
"i@	c #2F2F49",
"j@	c #32334C",
"k@	c #3A3B51",
"l@	c #414154",
"m@	c #444555",
"n@	c #454554",
"o@	c #434453",
"p@	c #414151",
"q@	c #3D3D4F",
"r@	c #3A3B4E",
"s@	c #37384E",
"t@	c #34354E",
"u@	c #33344D",
"v@	c #32334D",
"w@	c #34354D",
"x@	c #3E3F58",
"y@	c #4F4F66",
"z@	c #1E1E26",
"A@	c #000007",
"B@	c #5C5C6C",
"C@	c #47475E",
"D@	c #3B3C54",
"E@	c #3C3C54",
"F@	c #3A3B53",
"G@	c #3A3A53",
"H@	c #3B3C53",
"I@	c #3A3B52",
"J@	c #393A52",
"K@	c #3E3F56",
"L@	c #4A4B62",
"M@	c #58586E",
"N@	c #4A4A5B",
"O@	c #18181F",
"P@	c #313139",
"Q@	c #636479",
"R@	c #424359",
"S@	c #43445B",
"T@	c #44445B",
"U@	c #44455B",
"V@	c #42435A",
"W@	c #414259",
"X@	c #494A60",
"Y@	c #54556B",
"Z@	c #5F5F74",
"`@	c #474755",
" #	c #1F1F28",
".#	c #454552",
"+#	c #66667B",
"@#	c #515268",
"##	c #48495F",
"$#	c #535369",
"%#	c #5C5C71",
"&#	c #65657A",
"*#	c #69697C",
"=#	c #5F5F70",
"-#	c #4A4A57",
";#	c #2A2A33",
">#	c #0C0C0E",
",#	c #32323C",
"'#	c #656575",
")#	c #6F7082",
"!#	c #6A6B7F",
"~#	c #66667A",
"{#	c #656579",
"]#	c #68687C",
"^#	c #6D6D81",
"/#	c #707083",
"(#	c #6E6E7F",
"_#	c #636372",
":#	c #4F4F5B",
"<#	c #35353D",
"[#	c #1A1A20",
"}#	c #050505",
"|#	c #060609",
"1#	c #242429",
"2#	c #4C4C57",
"3#	c #4D4D57",
"4#	c #4D4D58",
"5#	c #484852",
"6#	c #38383F",
"7#	c #26262B",
"8#	c #111114",
"9#	c #000003",
"                              . + @ # .                         ",
"                          . $ % & * = - ;                       ",
"                        > , ' ) ! ~ { ] ^ /                     ",
"                      ( _ : < [ } | 1 2 3 4 .                   ",
"                    . 5 6 7 8 9 0 a b c d e f                   ",
"                  g h i j k l m n o a p q r s .                 ",
"                t u v w 8 x y z z A B C D E F G .               ",
"              H I J K L M N O P Q R S T U 0 V W X               ",
"            Y Z `  ...+.@.#.$.%.&.8 *.R =.-.;.>.,.'.            ",
"            ).!.~.{.].^./.(._.:.<.[.}.|.1.2.a ,.3.4.            ",
"          . 5.6.7.].8.9.N 0.a.b.-.c.d.1 a e.e.e.f.g..           ",
"          h.i.j.k.l.m.n.o.p.q.r.d.s.e.e.e.e.e.e.t.u..           ",
"          v.w.x.y.z.A.B.C.D.T E.F.e.e.e.e.e.e.e.t.G..           ",
"          H.I.y.J.K.L.B.M.q.N.O.s.e.e.e.e.e.e.e.P.Q.'.          ",
"          R.S.T.U.U.V.W.X.Y.Z.F.e.e.e.e.e.e.e.e.P.Q.`.          ",
"           +.+++@+#+#+W.$+%+z &+e.e.e.e.e.e.e.e.P.*+=+          ",
"          -+;+>+,+'+)+!+~+{+]+^+e.e.e.e.e.e.e.e.t.G..           ",
"          /+(+_+:+<+[+}+|+1+2+e.e.e.e.e.e.e.e.e.t.3+.           ",
"          4+5+6+7+K.8+9+A ,.e.e.e.e.e.e.e.e.e.e.2+0+a+          ",
"        b+c+_.d+e+f+g+h+t.i+e.e.e.e.e.e.e.e.,.j+k+l+m+          ",
"      . n+o+p+q+r+s+t+0 E e.e.e.e.e.u+v+w+w+x+y+z+A+B+.         ",
"      C+D+E+F+G+H+I+J+O.u+2+2+K+w+u+i+L+M+N+O+P+Q+R+S+T+.       ",
"    U+/.V+W+X+Y+Z+`+ @.@+@@@#@$@%@&@*@=@-@;@>@,@D '@)@!@~@      ",
"    {@]@<.^@/@l (@_@:@<@[@}@|@1@2@3@4@5@6@7@N.8@9@0@Z.a@b@.     ",
"    c@d@e@f@g@h@i@j@k@l@m@n@o@p@q@r@s@t@u@v@w@w@j@;.x@y@z@.     ",
"    A@B@{ C@|.D@E@D@F@G@] F@G@] F@F@D@D@H@I@J@K@L@M@N@O@.       ",
"    . P@Q@y R@S@T@U@U@U@T@y y y V@W@p.V@X@Y@Z@#.`@ #. .         ",
"      . .#+#@#*.##*.*.*.####*.a.$#%#&#*#=#-#;#>#. .             ",
"        . ,#'#)#!#~#{#&#]#^#/#(#_#:#<#[#}#. .                   ",
"          . |#1#4+2#3#4#5#6#7#8#9#. . .                         ",
"              . . . . . . . .                                   ",
"                                                                "};
