/* XPM */
static char * agt_aisles_xpm[] = {
"32 32 531 2",
"  	c None",
". 	c #000000",
"+ 	c #331600",
"@ 	c #652E00",
"# 	c #773A00",
"$ 	c #A25100",
"% 	c #A95500",
"& 	c #A85400",
"* 	c #803E00",
"= 	c #672F00",
"- 	c #391800",
"; 	c #391A00",
"> 	c #9A4B00",
", 	c #DC7703",
"' 	c #FD9C24",
") 	c #FFB84F",
"! 	c #FFC870",
"~ 	c #FFD082",
"{ 	c #FFD085",
"] 	c #FFD084",
"^ 	c #FFCA74",
"/ 	c #FFBB56",
"( 	c #FFA22C",
"_ 	c #E57E07",
": 	c #A35100",
"< 	c #492200",
"[ 	c #311600",
"} 	c #BB5D00",
"| 	c #FD9716",
"1 	c #FFC364",
"2 	c #FFDEA8",
"3 	c #FFEACB",
"4 	c #FFEED7",
"5 	c #FFEFD9",
"6 	c #FFEFD8",
"7 	c #FFECCE",
"8 	c #FFE1B1",
"9 	c #FFC972",
"0 	c #FFA122",
"a 	c #C76500",
"b 	c #813F00",
"c 	c #F98C07",
"d 	c #FFC160",
"e 	c #FFE1B7",
"f 	c #FFE9CD",
"g 	c #FFE7C7",
"h 	c #FFE4C1",
"i 	c #FFE3C0",
"j 	c #FFE6C6",
"k 	c #FFE5BF",
"l 	c #FFC973",
"m 	c #FF9712",
"n 	c #9E4E00",
"o 	c #AE5600",
"p 	c #FFA11C",
"q 	c #FFD392",
"r 	c #FFE0B7",
"s 	c #FFDEB4",
"t 	c #FFE1B8",
"u 	c #FFE0B6",
"v 	c #FFDFB6",
"w 	c #FFD9A2",
"x 	c #FFAB2F",
"y 	c #C96600",
"z 	c #1F0A00",
"A 	c #AC5500",
"B 	c #FFA523",
"C 	c #FFD59C",
"D 	c #FFDDB1",
"E 	c #FFD9A8",
"F 	c #FFDAA9",
"G 	c #FED5A1",
"H 	c #F3B773",
"I 	c #F2B470",
"J 	c #F1B36E",
"K 	c #F7C386",
"L 	c #FFDBAB",
"M 	c #FFDCAE",
"N 	c #FFDAA8",
"O 	c #FFAF36",
"P 	c #CC6900",
"Q 	c #0F0000",
"R 	c #7F3E00",
"S 	c #FF9D15",
"T 	c #FFCF8E",
"U 	c #FFD7A3",
"V 	c #FFD69E",
"W 	c #FFD59D",
"X 	c #FFD49C",
"Y 	c #FFD39A",
"Z 	c #FFD7A4",
"` 	c #FBEEE0",
" .	c #FBEFE4",
"..	c #FBF1E7",
"+.	c #FDE5C8",
"@.	c #FFD398",
"#.	c #FFD69F",
"$.	c #FFD6A1",
"%.	c #FFA827",
"&.	c #A75400",
"*.	c #331400",
"=.	c #F58600",
"-.	c #FFC169",
";.	c #FFD090",
">.	c #F9BB70",
",.	c #FDC886",
"'.	c #FFCF92",
").	c #FFCE90",
"!.	c #FFCD8D",
"~.	c #FFFDFA",
"{.	c #FFFFFF",
"].	c #FFEED6",
"^.	c #FFCF8B",
"/.	c #FFD190",
"(.	c #FFD091",
"_.	c #FECF8E",
":.	c #F8BA6F",
"<.	c #FECC89",
"[.	c #FFD49A",
"}.	c #FFC87D",
"|.	c #FF9409",
"1.	c #552900",
"2.	c #A15200",
"3.	c #FFAA2C",
"4.	c #FFCD8C",
"5.	c #FCBD6F",
"6.	c #F1AB5D",
"7.	c #F1C69A",
"8.	c #F6BF7E",
"9.	c #FFC982",
"0.	c #FFC984",
"a.	c #FFCA84",
"b.	c #FFC981",
"c.	c #FFD292",
"d.	c #FFFDF9",
"e.	c #FFEDD0",
"f.	c #FFCC7E",
"g.	c #FFCE84",
"h.	c #FFCF86",
"i.	c #F9C176",
"j.	c #F2C89D",
"k.	c #F0B068",
"l.	c #F8B764",
"m.	c #FFCE8C",
"n.	c #FFB343",
"o.	c #C86800",
"p.	c #150700",
"q.	c #EB7E00",
"r.	c #FFBB5A",
"s.	c #FEC479",
"t.	c #F2BF88",
"u.	c #FAEEE3",
"v.	c #F8DCBF",
"w.	c #FAB864",
"x.	c #FFC679",
"y.	c #FFC677",
"z.	c #FFC777",
"A.	c #FFC773",
"B.	c #FFCF87",
"C.	c #FFECCB",
"D.	c #FFC970",
"E.	c #FFCC77",
"F.	c #FFCC78",
"G.	c #FDC46A",
"H.	c #F6CB97",
"I.	c #FDF9F5",
"J.	c #F2C99F",
"K.	c #FBC276",
"L.	c #FFC26A",
"M.	c #FF9006",
"N.	c #3C1A00",
"O.	c #522600",
"P.	c #FF980F",
"Q.	c #FFBE67",
"R.	c #FFBD68",
"S.	c #FFEBD2",
"T.	c #FEFEFF",
"U.	c #F5BF7E",
"V.	c #FFBE61",
"W.	c #FFC46B",
"X.	c #FFC56A",
"Y.	c #FFC566",
"Z.	c #FFCE7C",
"`.	c #FFEBC7",
" +	c #FFC763",
".+	c #FFCA6A",
"++	c #FFCB68",
"@+	c #F7BB64",
"#+	c #FBF1E9",
"$+	c #FFF9EF",
"%+	c #FFC976",
"&+	c #FFA71D",
"*+	c #783C00",
"=+	c #723800",
"-+	c #FFA41F",
";+	c #FFBD66",
">+	c #FFB759",
",+	c #FFC376",
"'+	c #FFFCF7",
")+	c #F9E7D5",
"!+	c #F9B352",
"~+	c #FFC25F",
"{+	c #FFC35F",
"]+	c #FFC35B",
"^+	c #FFCC72",
"/+	c #FFFCF8",
"(+	c #FFEBC2",
"_+	c #FFC657",
":+	c #FFC95F",
"<+	c #FFCA60",
"[+	c #FCBE4E",
"}+	c #F7D5AA",
"|+	c #FFD999",
"1+	c #FFBF56",
"2+	c #FFC468",
"3+	c #FFB330",
"4+	c #A45700",
"5+	c #753C00",
"6+	c #FF9F10",
"7+	c #FFAD42",
"8+	c #FFB554",
"9+	c #FFB14B",
"0+	c #F6C78D",
"a+	c #FDB844",
"b+	c #FFC253",
"c+	c #FFC24E",
"d+	c #FFCB66",
"e+	c #FFEABD",
"f+	c #FFC549",
"g+	c #FFC852",
"h+	c #FFC74B",
"i+	c #F6BE64",
"j+	c #FDF9F9",
"k+	c #FFF1D4",
"l+	c #FFC352",
"m+	c #FFC153",
"n+	c #FFBA45",
"o+	c #FFAD17",
"p+	c #AB5F00",
"q+	c #743D00",
"r+	c #FF9600",
"s+	c #FF9001",
"t+	c #FF9813",
"u+	c #FFA32A",
"v+	c #FFB349",
"w+	c #FFF5E6",
"x+	c #FBF2EB",
"y+	c #F7B44B",
"z+	c #FFC041",
"A+	c #FFC040",
"B+	c #FFCA5B",
"C+	c #FFFDF7",
"D+	c #FFEAB8",
"E+	c #FFC53C",
"F+	c #FFCA45",
"G+	c #FABB39",
"H+	c #F8E0C3",
"I+	c #FFCF6C",
"J+	c #FFB727",
"K+	c #FFAF16",
"L+	c #FFA402",
"M+	c #FFA700",
"N+	c #AB6000",
"O+	c #723B00",
"P+	c #FF9000",
"Q+	c #FF8F00",
"R+	c #FF9300",
"S+	c #FF9500",
"T+	c #FFC263",
"U+	c #F7D3A5",
"V+	c #FCB52A",
"W+	c #FFC236",
"X+	c #FFCB52",
"Y+	c #FFFCF6",
"Z+	c #FFEBB5",
"`+	c #FFC732",
" @	c #FEC42C",
".@	c #F5C471",
"+@	c #FEFFFF",
"@@	c #FFE29F",
"#@	c #FFAF00",
"$@	c #FFAD00",
"%@	c #FFAA00",
"&@	c #FFA800",
"*@	c #FFAC00",
"=@	c #A75D00",
"-@	c #703600",
";@	c #FF9100",
">@	c #FF9800",
",@	c #FF9B00",
"'@	c #FF9E00",
")@	c #FFE9C0",
"!@	c #FDFAFD",
"~@	c #F6B646",
"{@	c #FFB603",
"]@	c #FFC533",
"^@	c #FFFCF5",
"/@	c #FFE8A7",
"(@	c #FFC105",
"_@	c #F8B61C",
":@	c #FAEADD",
"<@	c #FFFAED",
"[@	c #FFBF22",
"}@	c #FFB200",
"|@	c #FFB300",
"1@	c #FFB000",
"2@	c #FFAE00",
"3@	c #FFAB00",
"4@	c #A35400",
"5@	c #6C3500",
"6@	c #FF8800",
"7@	c #FF9400",
"8@	c #FF9700",
"9@	c #FFA000",
"0@	c #FF9F00",
"a@	c #FFBB3D",
"b@	c #FFFFFE",
"c@	c #F8DEBF",
"d@	c #FAAA00",
"e@	c #FFC31C",
"f@	c #FFFCF4",
"g@	c #FFE89E",
"h@	c #FDB700",
"i@	c #F6CB81",
"j@	c #FFDD79",
"k@	c #FFB800",
"l@	c #FFBA00",
"m@	c #FFB700",
"n@	c #FFB400",
"o@	c #9E4C00",
"p@	c #5A2D00",
"q@	c #F67A00",
"r@	c #FF9A00",
"s@	c #FFA300",
"t@	c #FFA600",
"u@	c #FFDF9D",
"v@	c #F6C05D",
"w@	c #FEC211",
"x@	c #FFFAE9",
"y@	c #FFFDF8",
"z@	c #FFE88F",
"A@	c #F7B920",
"B@	c #FCF4F3",
"C@	c #FFF5D4",
"D@	c #FFC50C",
"E@	c #FFC000",
"F@	c #FFBE00",
"G@	c #FFBB00",
"H@	c #FFB900",
"I@	c #FD8900",
"J@	c #7E3E00",
"K@	c #2B1500",
"L@	c #E06E00",
"M@	c #FB8500",
"N@	c #FFA100",
"O@	c #FFBA21",
"P@	c #FFFAEC",
"Q@	c #FDEBC5",
"R@	c #FEC204",
"S@	c #FFCD1A",
"T@	c #FFCF1E",
"U@	c #FFD11F",
"V@	c #FFCD06",
"W@	c #FCDF89",
"X@	c #FFDB55",
"Y@	c #FFC400",
"Z@	c #FFC500",
"`@	c #FFC200",
" #	c #FFBF00",
".#	c #FFC100",
"+#	c #FEA200",
"@#	c #ED7300",
"##	c #4D2800",
"$#	c #B15900",
"%#	c #F17400",
"&#	c #FFB100",
"*#	c #FFDA7B",
"=#	c #FFE799",
"-#	c #FFCC1C",
";#	c #FFC800",
">#	c #FFCA00",
",#	c #FFCC00",
"'#	c #FFCE00",
")#	c #FFCF00",
"!#	c #FFD50B",
"~#	c #FFE671",
"{#	c #FFFEF7",
"]#	c #FFF2B9",
"^#	c #FFCD00",
"/#	c #FFC700",
"(#	c #F27800",
"_#	c #CC6500",
":#	c #140800",
"<#	c #592C00",
"[#	c #E87400",
"}#	c #F17200",
"|#	c #FF9C00",
"1#	c #FFBF12",
"2#	c #FFCD32",
"3#	c #FFD200",
"4#	c #FFD400",
"5#	c #FFD600",
"6#	c #FFDC24",
"7#	c #FFDA24",
"8#	c #FFD100",
"9#	c #FFD000",
"0#	c #F67E00",
"a#	c #EB7200",
"b#	c #7C3F00",
"c#	c #040000",
"d#	c #B05900",
"e#	c #E77300",
"f#	c #F37200",
"g#	c #FFB600",
"h#	c #FFC900",
"i#	c #FFD700",
"j#	c #FFD900",
"k#	c #FFDB00",
"l#	c #FFDC00",
"m#	c #FFDA00",
"n#	c #FFD800",
"o#	c #F87D00",
"p#	c #E56E00",
"q#	c #CA6600",
"r#	c #160900",
"s#	c #291400",
"t#	c #D56C00",
"u#	c #E27000",
"v#	c #F06E00",
"w#	c #FF8E00",
"x#	c #FFB500",
"y#	c #FFC300",
"z#	c #FFCB00",
"A#	c #FFDE00",
"B#	c #FFDF00",
"C#	c #FFE100",
"D#	c #FFE000",
"E#	c #F47200",
"F#	c #E16C00",
"G#	c #E47400",
"H#	c #4A2400",
"I#	c #452100",
"J#	c #DE7100",
"K#	c #E17200",
"L#	c #E76A00",
"M#	c #FB7700",
"N#	c #FF9900",
"O#	c #FFE200",
"P#	c #FFE500",
"Q#	c #FFE600",
"R#	c #FFE700",
"S#	c #FFE300",
"T#	c #FFD300",
"U#	c #FDA400",
"V#	c #EB7300",
"W#	c #DF6E00",
"X#	c #E67500",
"Y#	c #633100",
"Z#	c #411F00",
"`#	c #D16900",
" $	c #E77600",
".$	c #DE6D00",
"+$	c #EC6A00",
"@$	c #FA7300",
"#$	c #FF8900",
"$$	c #FFDD00",
"%$	c #FFEB00",
"&$	c #FFEE00",
"*$	c #FFED00",
"=$	c #FCC600",
"-$	c #F19800",
";$	c #E17400",
">$	c #E47200",
",$	c #DF7100",
"'$	c #5C2D00",
")$	c #200F00",
"!$	c #E87500",
"~$	c #E37400",
"{$	c #DD6E00",
"]$	c #E46A00",
"^$	c #ED6F00",
"/$	c #F58800",
"($	c #FAA600",
"_$	c #FCBE00",
":$	c #FDD000",
"<$	c #FDD900",
"[$	c #FDDA00",
"}$	c #FBD000",
"|$	c #F9BA00",
"1$	c #F39C00",
"2$	c #ED8100",
"3$	c #EE7A00",
"4$	c #F37E00",
"5$	c #BA5F00",
"6$	c #351900",
"7$	c #4D2600",
"8$	c #B25900",
"9$	c #E37300",
"0$	c #E87600",
"a$	c #E27200",
"b$	c #E77900",
"c$	c #F18800",
"d$	c #F48B00",
"e$	c #F78A00",
"f$	c #FA8700",
"g$	c #FE8700",
"h$	c #FF8B00",
"i$	c #FE8A00",
"j$	c #D06F00",
"k$	c #633500",
"l$	c #080200",
"m$	c #030000",
"n$	c #361A00",
"o$	c #7D3E00",
"p$	c #B45B00",
"q$	c #D97100",
"r$	c #EF7F00",
"s$	c #FF8C00",
"t$	c #F58B00",
"u$	c #D67900",
"v$	c #9E5800",
"w$	c #4C2A00",
"x$	c #080500",
"y$	c #180B00",
"z$	c #321B00",
"A$	c #3D2200",
"B$	c #402300",
"C$	c #422500",
"D$	c #3A2200",
"E$	c #201300",
"F$	c #020200",
"                                                                ",
"                    . + @ # $ % & * = - .                       ",
"                ; > , ' ) ! ~ { ] ^ / ( _ : < .                 ",
"            [ } | 1 2 3 4 5 4 4 4 5 6 7 8 9 0 a <               ",
"        . b c d e f g h i i i i i i i h j f k l m n .           ",
"      . o p q h r s s s s s t t t u s s s s v h w x y z         ",
"    . A B C D E E E E E F G H I J K L E E E E E M N O P Q       ",
"    R S T U V W X X X X Y Z `  ...+.@.X X X X X #.$.C %.&.      ",
"  *.=.-.X ;.>.,.'.).).).!.W ~.{.{.].^././.;.(._.:.<.[.}.|.1.    ",
"  2.3.4.5.6.7.8.9.0.0.a.b.c.d.{.{.e.f.g.g.g.h.i.j.k.l.m.n.o..   ",
"p.q.r.s.t.u.{.v.w.x.y.z.A.B.d.{.{.C.D.E.E.F.G.H.{.I.J.K.L.M.N.  ",
"O.P.Q.R.S.{.{.T.U.V.W.X.Y.Z.d.{.{.`. +.+.+++@+#+{.{.$+%+W.&+*+  ",
"=+-+;+>+,+'+{.{.)+!+~+{+]+^+/+{.{.(+_+:+<+[+}+{.{.{.|+1+2+3+4+  ",
"5+6+7+8+9+L {.{.{.0+a+b+c+d+'+{.{.e+f+g+h+i+j+{.{.k+l+m+n+o+p+. ",
"q+r+s+t+u+v+w+{.{.x+y+z+A+B+C+{.{.D+E+F+G+H+{.{.{.I+J+K+L+M+N+. ",
"O+r+P+Q+R+S+T+{.{.{.U+V+W+X+Y+{.{.Z+`+ @.@+@{.{.@@#@$@%@&@*@=@. ",
"-@;@;@R+>@,@'@)@{.{.!@~@{@]@^@{.{./@(@_@:@{.{.<@[@}@|@1@2@3@4@. ",
"5@6@7@8@,@9@0@a@b@{.{.c@d@e@f@{.{.g@h@i@{.{.{.j@k@l@m@n@n@9@o@. ",
"p@q@7@r@'@s@t@t@u@{.{.+@v@w@x@y@{.z@A@B@{.{.C@D@E@F@G@H@m@I@J@. ",
"K@L@M@0@N@t@%@*@O@P@{.{.Q@R@S@T@U@V@W@{.{.{.X@Y@Z@`@ #.#+#@###  ",
". $#%#R+M+&@*@&#&#*#{.=#-#;#>#,#'#)#!#~#{#]#^#,#>#/#/#m@(#_#:#  ",
". <#[#}#|##@#@n@k@1#2#`@/#^#)#3#4#5#5#4#6#7#3#8#'#9#.#0#a#b#.   ",
"  c#d#e#f#|#g#k@G@ #`@h#^#8#4#i#j#k#l#l#m#j#n#5#n#F@o#p#q#r#    ",
"  . s#t#u#v#w#x#y#Z@/#z#9#4#n#k#A#B#C#C#D#B#B#j#$@E#F#G#H#.     ",
"    . I#J#K#L#M#N#G@^#4#5#j#l#B#O#P#Q#R#Q#S#T#U#V#W#X#Y#.       ",
"      . Z#`# $.$+$@$#$&@Y@4#$$S#R#%$&$*$S#=$-$;$>$,$'$. .       ",
"      . . )$: !$~${$]$^$/$($_$:$<$[$}$|$1$2$3$4$5$6$. .         ",
"          . . 7$8$9$0$a$K#b$2$c$d$e$f$g$h$i$j$k$l$. .           ",
"            . . m$n$o$p$q$r$f$s$P+;@t$u$v$w$x$. .               ",
"                . . . . y$z$A$B$C$D$E$F$. . .                   ",
"                      . . . . . . . . . .                       ",
"                                                                "};
