/* XPM */
static char * agt_forward_xpm[] = {
"32 32 556 2",
"  	c None",
". 	c #000000",
"+ 	c #000600",
"@ 	c #001600",
"# 	c #031C03",
"$ 	c #031903",
"% 	c #001400",
"& 	c #000800",
"* 	c #000700",
"= 	c #022402",
"- 	c #083E08",
"; 	c #0C4D09",
"> 	c #125F0D",
", 	c #166310",
"' 	c #11590C",
") 	c #084908",
"! 	c #073507",
"~ 	c #031F03",
"{ 	c #094D09",
"] 	c #21751A",
"^ 	c #44943A",
"/ 	c #60A756",
"( 	c #75B36B",
"_ 	c #80B876",
": 	c #83B979",
"< 	c #7DB673",
"[ 	c #6FAF65",
"} 	c #57A14D",
"| 	c #378A2E",
"1 	c #176710",
"2 	c #000F00",
"3 	c #0B550B",
"4 	c #308726",
"5 	c #64A958",
"6 	c #88BB7E",
"7 	c #95C28B",
"8 	c #92C187",
"9 	c #91C085",
"0 	c #91C084",
"a 	c #95C289",
"b 	c #96C38B",
"c 	c #96C28B",
"d 	c #98C48D",
"e 	c #99C48E",
"f 	c #93C189",
"g 	c #7FB775",
"h 	c #539F48",
"i 	c #1F7718",
"j 	c #083F08",
"k 	c #063306",
"l 	c #1E7714",
"m 	c #5CA44F",
"n 	c #8BBC7F",
"o 	c #94C188",
"p 	c #8EBE81",
"q 	c #90C081",
"r 	c #B9D7AF",
"s 	c #CCE2C5",
"t 	c #91C181",
"u 	c #8EBF7D",
"v 	c #90C080",
"w 	c #8FBF80",
"x 	c #8FBE81",
"y 	c #92C085",
"z 	c #93C088",
"A 	c #80B775",
"B 	c #459739",
"C 	c #11620D",
"D 	c #084008",
"E 	c #2D8820",
"F 	c #73B066",
"G 	c #90BF82",
"H 	c #8CBD7D",
"I 	c #8ABD7A",
"J 	c #8BBE79",
"K 	c #D8E9D1",
"L 	c #FFFFFF",
"M 	c #DEECD8",
"N 	c #95C480",
"O 	c #8BBF76",
"P 	c #8FC17B",
"Q 	c #8EC07B",
"R 	c #8DBF7B",
"S 	c #8CBE7B",
"T 	c #8BBD7B",
"U 	c #8CBD7E",
"V 	c #8CBD80",
"W 	c #5DA54F",
"X 	c #1A7311",
"Y 	c #021F02",
"Z 	c #083A06",
"` 	c #318C21",
" .	c #79B36A",
"..	c #8ABC7B",
"+.	c #87BB75",
"@.	c #89BD75",
"#.	c #86BC70",
"$.	c #A1CB8E",
"%.	c #E7F2E2",
"&.	c #9AC884",
"*.	c #89BF6E",
"=.	c #8EC175",
"-.	c #8CC075",
";.	c #8BBE75",
">.	c #89BE75",
",.	c #88BC75",
"'.	c #85BA75",
").	c #8ABC7C",
"!.	c #63A853",
"~.	c #1B7410",
"{.	c #031A03",
"].	c #022202",
"^.	c #278317",
"/.	c #70AF5E",
"(.	c #86BA74",
"_.	c #83B96E",
":.	c #86BC6F",
"<.	c #88BE70",
"[.	c #86BD6A",
"}.	c #A4CE8E",
"|.	c #F0F7EC",
"1.	c #A2CD89",
"2.	c #87BF67",
"3.	c #8CC170",
"4.	c #8BBF70",
"5.	c #89BF70",
"6.	c #87BD70",
"7.	c #84BA6E",
"8.	c #82B86F",
"9.	c #85B975",
"0.	c #57A244",
"a.	c #15670E",
"b.	c #18690E",
"c.	c #5AA544",
"d.	c #7FB869",
"e.	c #82BA69",
"f.	c #88BF6A",
"g.	c #86BF64",
"h.	c #A4CF89",
"i.	c #F6FBF4",
"j.	c #ACD492",
"k.	c #84BF60",
"l.	c #8AC169",
"m.	c #89BF6A",
"n.	c #87BE6A",
"o.	c #83BB69",
"p.	c #80B869",
"q.	c #7FB76A",
"r.	c #7DB56B",
"s.	c #3F962A",
"t.	c #0C4409",
"u.	c #083206",
"v.	c #399321",
"w.	c #78B362",
"x.	c #7DB664",
"y.	c #7FB863",
"z.	c #82BB63",
"A.	c #85BE64",
"B.	c #87C064",
"C.	c #85C05E",
"D.	c #A4D085",
"E.	c #FBFDFA",
"F.	c #B5D99C",
"G.	c #84BF5B",
"H.	c #87C163",
"I.	c #83BD64",
"J.	c #7FB963",
"K.	c #7DB763",
"L.	c #7DB667",
"M.	c #68AB52",
"N.	c #227911",
"O.	c #1B620D",
"P.	c #5AA63E",
"Q.	c #7BB662",
"R.	c #7BB75D",
"S.	c #7EB95E",
"T.	c #82BD5F",
"U.	c #85C05F",
"V.	c #88C25F",
"W.	c #86C259",
"X.	c #A5D281",
"Y.	c #C0DFA9",
"Z.	c #83C056",
"`.	c #83BF5C",
" +	c #83BE5F",
".+	c #80BB5E",
"++	c #7CB85E",
"@+	c #78B55D",
"#+	c #77B35F",
"$+	c #419826",
"%+	c #0A3807",
"&+	c #000E00",
"*+	c #2C8113",
"=+	c #6AAE4D",
"-+	c #77B559",
";+	c #7AB858",
">+	c #7EBB58",
",+	c #82BF59",
"'+	c #85C159",
")+	c #89C45A",
"!+	c #87C454",
"~+	c #A5D47C",
"{+	c #CBE5B6",
"]+	c #83C155",
"^+	c #80BE55",
"/+	c #7FBC58",
"(+	c #7BB958",
"_+	c #77B557",
":+	c #77B45C",
"<+	c #57A63A",
"[+	c #195C0C",
"}+	c #082002",
"|+	c #3F951E",
"1+	c #71B352",
"2+	c #75B552",
"3+	c #79B952",
"4+	c #7EBD53",
"5+	c #82C053",
"6+	c #85C353",
"7+	c #8AC654",
"8+	c #89C74E",
"9+	c #A6D678",
"0+	c #D5EAC3",
"a+	c #84C255",
"b+	c #7EBD51",
"c+	c #7BBA52",
"d+	c #76B652",
"e+	c #75B455",
"f+	c #64AC44",
"g+	c #277410",
"h+	c #0C3106",
"i+	c #449C1D",
"j+	c #6AAF44",
"k+	c #76B74E",
"l+	c #7BBB4E",
"m+	c #7FBE4E",
"n+	c #82C24D",
"o+	c #87C64E",
"p+	c #8AC84E",
"q+	c #8ACA48",
"r+	c #A8D874",
"s+	c #BFE0A3",
"t+	c #78BC43",
"u+	c #7BBB4D",
"v+	c #78B84E",
"w+	c #71B34C",
"x+	c #5DAA37",
"y+	c #2E7D11",
"z+	c #103406",
"A+	c #429D16",
"B+	c #4BA018",
"C+	c #5FAC2A",
"D+	c #71B83C",
"E+	c #7EC047",
"F+	c #84C44A",
"G+	c #89C94A",
"H+	c #8CCB49",
"I+	c #8BCD43",
"J+	c #A9DB71",
"K+	c #DBEECB",
"L+	c #7BBF40",
"M+	c #69B235",
"N+	c #54A622",
"O+	c #479F17",
"P+	c #328011",
"Q+	c #103206",
"R+	c #48A217",
"S+	c #4EA417",
"T+	c #54A918",
"U+	c #5CAF19",
"V+	c #68B722",
"W+	c #76C02F",
"X+	c #83C83A",
"Y+	c #8BCD41",
"Z+	c #8ED03D",
"`+	c #ADDE6E",
" @	c #9CCB81",
".@	c #69B924",
"+@	c #61B21D",
"@@	c #56AA18",
"#@	c #4FA517",
"$@	c #4BA317",
"%@	c #378412",
"&@	c #123306",
"*@	c #4BA217",
"=@	c #5AAD19",
"-@	c #61B319",
";@	c #67B81A",
">@	c #6DBE1B",
",@	c #75C41C",
"'@	c #7DC920",
")@	c #82CF23",
"!@	c #A5DD59",
"~@	c #AACF9C",
"{@	c #5FB31B",
"]@	c #6BBC1B",
"^@	c #63B51A",
"/@	c #5DB019",
"(@	c #55A918",
"_@	c #51A818",
":@	c #388312",
"<@	c #0F2F06",
"[@	c #4A9E16",
"}@	c #59AD19",
"|@	c #5EB119",
"1@	c #66B71A",
"2@	c #75C31C",
"3@	c #7BC91D",
"4@	c #81CE1D",
"5@	c #83D31E",
"6@	c #A3DF4C",
"7@	c #FFFEFF",
"8@	c #B0D598",
"9@	c #6ABC1B",
"0@	c #77C71C",
"a@	c #70BF1B",
"b@	c #68B91A",
"c@	c #59AC18",
"d@	c #55AB18",
"e@	c #357D11",
"f@	c #0A1F02",
"g@	c #429215",
"h@	c #60B219",
"i@	c #62B41A",
"j@	c #6BBB1B",
"k@	c #72C11B",
"l@	c #79C71C",
"m@	c #80CD1D",
"n@	c #87D31E",
"o@	c #8BD81F",
"p@	c #A9E44F",
"q@	c #B6DC91",
"r@	c #79CA1D",
"s@	c #84D11E",
"t@	c #7CCA1D",
"u@	c #65B71A",
"v@	c #58AC18",
"w@	c #2C700F",
"x@	c #041000",
"y@	c #337D11",
"z@	c #61B119",
"A@	c #6EBE1B",
"B@	c #76C51C",
"C@	c #7ECC1D",
"D@	c #85D21E",
"E@	c #8CD71F",
"F@	c #90DD1F",
"G@	c #AEE654",
"H@	c #BBE48A",
"I@	c #88D61E",
"J@	c #8FDB1F",
"K@	c #7FCD1D",
"L@	c #78C71C",
"M@	c #71C01B",
"N@	c #64B71A",
"O@	c #52A417",
"P@	c #225A0C",
"Q@	c #27640C",
"R@	c #51A017",
"S@	c #73C31C",
"T@	c #70C01B",
"U@	c #7AC71C",
"V@	c #89D51E",
"W@	c #90DB1F",
"X@	c #96DF21",
"Y@	c #B4E860",
"Z@	c #FDFEFD",
"`@	c #C4EB8A",
" #	c #98DE2D",
".#	c #9CE02A",
"+#	c #93DD20",
"@#	c #8CD81F",
"##	c #74C31C",
"$#	c #6CBC1B",
"%#	c #409014",
"&#	c #173C08",
"*#	c #183A07",
"=#	c #3C8D14",
"-#	c #6CB91A",
";#	c #7CC91D",
">#	c #8ED81F",
",#	c #95DE21",
"'#	c #9AE02A",
")#	c #BAEA6C",
"!#	c #FDFEFC",
"~#	c #CEF098",
"{#	c #A8E548",
"]#	c #A9E54B",
"^#	c #A0E238",
"/#	c #98E026",
"(#	c #8FDA1F",
"_#	c #88D31E",
":#	c #7FCC1D",
"<#	c #7CCB1D",
"[#	c #55A217",
"}#	c #337E11",
"|#	c #071100",
"1#	c #000500",
"2#	c #387C11",
"3#	c #469415",
"4#	c #82CC21",
"5#	c #86D220",
"6#	c #86D31E",
"7#	c #9AE028",
"8#	c #9FE236",
"9#	c #B7E86C",
"0#	c #D7F3AC",
"a#	c #B9EA6C",
"b#	c #B7E969",
"c#	c #AFE756",
"d#	c #A6E443",
"e#	c #9CE12E",
"f#	c #92DD1F",
"g#	c #8AD61E",
"h#	c #89D521",
"i#	c #6DB71B",
"j#	c #3E8F14",
"k#	c #26550A",
"l#	c #163105",
"m#	c #489816",
"n#	c #4D9819",
"o#	c #8FD333",
"p#	c #97DE2C",
"q#	c #91DC1F",
"r#	c #9CE12C",
"s#	c #A6E444",
"t#	c #A7E251",
"u#	c #D9EEC6",
"v#	c #FCFEF9",
"w#	c #DCF4B6",
"x#	c #C9EF8E",
"y#	c #C4ED86",
"z#	c #BDEB74",
"A#	c #B3E860",
"B#	c #A0E235",
"C#	c #94DE20",
"D#	c #8DD91F",
"E#	c #99DF30",
"F#	c #78BF27",
"G#	c #439115",
"H#	c #3E8512",
"I#	c #030E00",
"J#	c #2D580C",
"K#	c #4FA217",
"L#	c #4F991C",
"M#	c #90CD44",
"N#	c #ADE54B",
"O#	c #A4E33C",
"P#	c #B0E75A",
"Q#	c #A8DE61",
"R#	c #C5E79D",
"S#	c #DEF4C0",
"T#	c #DFF5BB",
"U#	c #D5F2A9",
"V#	c #D4F2A5",
"W#	c #CAEF90",
"X#	c #C0EC7B",
"Y#	c #B6E964",
"Z#	c #A9E54C",
"`#	c #A3E237",
" $	c #A8E24A",
".$	c #75B831",
"+$	c #469416",
"@$	c #4D9B16",
"#$	c #142A04",
"$$	c #36680D",
"%$	c #4E9C18",
"&$	c #79B83F",
"*$	c #B3E26F",
"=$	c #C4EC7B",
"-$	c #C0EB77",
";$	c #C1EC7A",
">$	c #B8E771",
",$	c #BAE975",
"'$	c #CCEF94",
")$	c #DCF4B7",
"!$	c #DEF5BB",
"~$	c #D5F2A7",
"{$	c #CAEF91",
"]$	c #C1EC7C",
"^$	c #BBEA70",
"/$	c #BEEA70",
"($	c #BFEB74",
"_$	c #A1D65D",
":$	c #62A82B",
"<$	c #4C9D16",
"[$	c #55A417",
"}$	c #1E3B06",
"|$	c #315C0C",
"1$	c #61B219",
"2$	c #5CA820",
"3$	c #8AC451",
"4$	c #BBE18A",
"5$	c #D8F2B0",
"6$	c #E7F7C7",
"7$	c #EEF9D7",
"8$	c #F4FBE5",
"9$	c #F4FBE4",
"0$	c #F2FAE1",
"a$	c #EDF9D5",
"b$	c #E6F7C6",
"c$	c #DEF4B7",
"d$	c #CDEC9F",
"e$	c #A9D773",
"f$	c #75B73B",
"g$	c #53A217",
"h$	c #569F16",
"i$	c #193105",
"j$	c #1E3607",
"k$	c #579B15",
"l$	c #6FC31C",
"m$	c #65B91A",
"n$	c #63B219",
"o$	c #76BC33",
"p$	c #93CB5A",
"q$	c #AFDA82",
"r$	c #C5E4A3",
"s$	c #CCE8AD",
"t$	c #CAE7AC",
"u$	c #BCE095",
"v$	c #A4D473",
"w$	c #87C449",
"x$	c #6CB627",
"y$	c #60B119",
"z$	c #67BC1B",
"A$	c #437B11",
"B$	c #0C1702",
"C$	c #030600",
"D$	c #2F510A",
"E$	c #5FA016",
"F$	c #77C81C",
"G$	c #76CC1D",
"H$	c #6FC51C",
"I$	c #6CC21C",
"J$	c #6DC21C",
"K$	c #70C41C",
"L$	c #6CC01B",
"M$	c #71C71C",
"N$	c #78CC1D",
"O$	c #4F8812",
"P$	c #1D3507",
"Q$	c #1B2F05",
"R$	c #3B660D",
"S$	c #548D13",
"T$	c #63A817",
"U$	c #6AB319",
"V$	c #6BB519",
"W$	c #69B118",
"X$	c #5FA116",
"Y$	c #4E8312",
"Z$	c #30530A",
"`$	c #101E02",
" %	c #030300",
".%	c #050B00",
"+%	c #080B00",
"@%	c #060900",
"                        . + @ # $ % & .                         ",
"                    * = - ; > , , ' ) ! # .                     ",
"              . ~ { ] ^ / ( _ : : < [ } | 1 - 2                 ",
"            % 3 4 5 6 7 8 9 0 a b c d e f g h i j .             ",
"          k l m n o p q r s r t u t v w x y z A B C $           ",
"      . D E F G H I J K L L L M N O P Q R S T U V W X Y         ",
"      Z `  ...+.@.#.$.L L L L L %.&.*.=.-.;.>.,.'.).!.~.{.      ",
"    ].^./.(._.:.<.[.}.L L L L L L |.1.2.3.4.5.6.7.8.9.0.a.&     ",
"  . b.c.8.d.e.[.f.g.h.L L L L L L L i.j.k.l.m.n.o.p.q.r.s.t.    ",
"  u.v.w.x.y.z.A.B.C.D.L L L L L L L L E.F.G.H.g.I.J.K.L.M.N.2   ",
". O.P.Q.R.S.T.U.V.W.X.L L L L L L L L L L Y.Z.`. +.+++@+#+$+%+  ",
"&+*+=+-+;+>+,+'+)+!+~+L L L L L L L L L L L {+]+^+/+(+_+:+<+[+. ",
"}+|+1+2+3+4+5+6+7+8+9+L L L L L L L L L L L L 0+a+b+c+d+e+f+g+. ",
"h+i+j+k+l+m+n+o+p+q+r+L L L L L L L L L L L L L s+t+u+v+w+x+y+. ",
"z+A+B+C+D+E+F+G+H+I+J+L L L L L L L L L L L L L K+L+t+M+N+O+P+. ",
"Q+R+S+T+U+V+W+X+Y+Z+`+L L L L L L L L L L L L L  @.@+@@@#@$@%@. ",
"&@*@T+=@-@;@>@,@'@)@!@L L L L L L L L L L L L ~@{@]@^@/@(@_@:@. ",
"<@[@}@|@1@>@2@3@4@5@6@L L L L L L L L L L 7@8@9@0@a@b@-@c@d@e@. ",
"f@g@h@i@j@k@l@m@n@o@p@L L L L L L L L L 7@q@r@s@t@,@>@u@/@v@w@. ",
"x@y@z@;@A@B@C@D@E@F@G@L L L L L L L L 7@H@I@J@n@K@L@M@b@N@O@P@. ",
". Q@R@S@T@U@4@V@W@X@Y@L L L L L L L Z@`@ #.#+#@#s@t@##$#$#%#&#  ",
"  *#=#-#t@;#D@>#,#'#)#L L L L L L !#~#{#]#^#/#(#_#:#B@<#[#}#|#  ",
"  1#2#3#4#5#6#(#7#8#9#7@L L L L !#0#a#b#c#d#e#f#g#4@h#i#j#k#.   ",
"  . l#m#n#o#p#q#r#s#t#u#L L L v#w#x#y#z#A#]#B#C#D#E#F#G#H#I#    ",
"    . J#K#L#M#N#O#s#P#Q#R#S#T#U#0#V#W#X#Y#Z#8#`# $.$+$@$#$.     ",
"      . $$v@%$&$*$=$-$;$>$,$'$)$!$~${$]$^$/$($_$:$<$[$}$.       ",
"        . |$1$c@2$3$4$5$6$7$8$9$0$a$b$c$d$e$f$g$/@h$i$.         ",
"          . j$k$l$m$n$o$p$q$r$s$t$u$v$w$x$y$z$]@A$B$.           ",
"            . C$D$E$F$G$H$I$J$K$l$L$I$M$N$M@O$P$. .             ",
"                . . Q$R$S$T$U$V$V$W$X$Y$Z$`$. .                 ",
"                    . . .  %.%.%+%@%. . .                       ",
"                          . . . . . .                           "};
