/* XPM */
static char * agt_stop_xpm[] = {
"32 32 399 2",
"  	c None",
". 	c #770000",
"+ 	c #CD0000",
"@ 	c #CD0202",
"# 	c #D00202",
"$ 	c #C30000",
"% 	c #220000",
"& 	c #000000",
"* 	c #780000",
"= 	c #F52E2E",
"- 	c #FF9999",
"; 	c #FFA6A6",
"> 	c #FFA3A3",
", 	c #FFA8A8",
"' 	c #FF7979",
") 	c #D30A0A",
"! 	c #410000",
"~ 	c #9D0000",
"{ 	c #FF4444",
"] 	c #FFC3C3",
"^ 	c #FFDADA",
"/ 	c #FFD4D4",
"( 	c #FFD5D5",
"_ 	c #FF9C9C",
": 	c #EB1A1A",
"< 	c #660000",
"[ 	c #1E0000",
"} 	c #BB0000",
"| 	c #FF5E5E",
"1 	c #FFC9C9",
"2 	c #FFCBCB",
"3 	c #FFC6C6",
"4 	c #FFC5C5",
"5 	c #FFD0D0",
"6 	c #FFB0B0",
"7 	c #FA3131",
"8 	c #820000",
"9 	c #3F0000",
"0 	c #D10606",
"a 	c #FF7676",
"b 	c #FFC1C1",
"c 	c #FFC8C8",
"d 	c #FFC0C0",
"e 	c #FFBEBE",
"f 	c #FFBDBD",
"g 	c #FFC4C4",
"h 	c #FFBBBB",
"i 	c #FF4848",
"j 	c #A40000",
"k 	c #0C0000",
"l 	c #570000",
"m 	c #E71414",
"n 	c #FF8989",
"o 	c #FFB7B7",
"p 	c #FFD2D2",
"q 	c #FFFAFA",
"r 	c #FFE4E4",
"s 	c #FFB8B8",
"t 	c #FFBABA",
"u 	c #FFB9B9",
"v 	c #FFB5B5",
"w 	c #FFF4F4",
"x 	c #FFF3F3",
"y 	c #FFC2C2",
"z 	c #FFBFBF",
"A 	c #FF6262",
"B 	c #C40101",
"C 	c #2C0000",
"D 	c #7A0000",
"E 	c #F72525",
"F 	c #FFB1B1",
"G 	c #FFD3D3",
"H 	c #FFFEFE",
"I 	c #FFFFFF",
"J 	c #FFE6E6",
"K 	c #FFAFAF",
"L 	c #FFB3B3",
"M 	c #FFB2B2",
"N 	c #FFAEAE",
"O 	c #FFF5F5",
"P 	c #E20D0D",
"Q 	c #520000",
"R 	c #A20000",
"S 	c #FF3838",
"T 	c #FFA9A9",
"U 	c #FFD1D1",
"V 	c #FFE9E9",
"W 	c #FFACAC",
"X 	c #FFA7A7",
"Y 	c #FFF9F9",
"Z 	c #FFAAAA",
"` 	c #FF8C8C",
" .	c #F51D1D",
"..	c #750000",
"+.	c #330000",
"@.	c #FC1C1C",
"#.	c #FFA2A2",
"$.	c #FFA5A5",
"%.	c #F8BBBB",
"&.	c #FBF6F6",
"*.	c #FFEDED",
"=.	c #FFA1A1",
"-.	c #FFFBFB",
";.	c #F8E5E5",
">.	c #FBABAB",
",.	c #FFA4A4",
"'.	c #FF8B8B",
").	c #DC0303",
"!.	c #3A0000",
"~.	c #FA2525",
"{.	c #FF9F9F",
"].	c #FE9A9A",
"^.	c #F5AEAE",
"/.	c #FAEFEF",
"(.	c #FFF1F1",
"_.	c #F6DADA",
":.	c #F8A0A0",
"<.	c #FF9D9D",
"[.	c #FF6363",
"}.	c #E10202",
"|.	c #150000",
"1.	c #4E0000",
"2.	c #FF2222",
"3.	c #FF9696",
"4.	c #FF9A9A",
"5.	c #FF9898",
"6.	c #FE9393",
"7.	c #F5A3A3",
"8.	c #F8E8E8",
"9.	c #FEFFFF",
"0.	c #F5D0D0",
"a.	c #F89999",
"b.	c #FF9E9E",
"c.	c #FF5959",
"d.	c #FF0303",
"e.	c #E80000",
"f.	c #260000",
"g.	c #4F0000",
"h.	c #FF2727",
"i.	c #FF9292",
"j.	c #FF9393",
"k.	c #FF9191",
"l.	c #FF9494",
"m.	c #FF9090",
"n.	c #F59A9A",
"o.	c #F7E0E0",
"p.	c #FDFFFF",
"q.	c #F3C5C5",
"r.	c #F99494",
"s.	c #FF8D8D",
"t.	c #FF3E3E",
"u.	c #FF0000",
"v.	c #EC0000",
"w.	c #280000",
"x.	c #560000",
"y.	c #FF2828",
"z.	c #FF8F8F",
"A.	c #F79494",
"B.	c #F7D3D3",
"C.	c #FFFDFD",
"D.	c #FCF6F6",
"E.	c #F3BABA",
"F.	c #FA9191",
"G.	c #FF6969",
"H.	c #FF2121",
"I.	c #FF0707",
"J.	c #FF0505",
"K.	c #F00101",
"L.	c #2E0000",
"M.	c #5A0000",
"N.	c #FF2525",
"O.	c #FF8585",
"P.	c #FF8686",
"Q.	c #FF8888",
"R.	c #FA9999",
"S.	c #FDF2F2",
"T.	c #F9D8D8",
"U.	c #FC8D8D",
"V.	c #FF9595",
"W.	c #FF7373",
"X.	c #FF3C3C",
"Y.	c #FF1515",
"Z.	c #FF1010",
"`.	c #FF1111",
" +	c #FF0D0D",
".+	c #FF0A0A",
"++	c #F40505",
"@+	c #5C0000",
"#+	c #FF8181",
"$+	c #FF8383",
"%+	c #FF8282",
"&+	c #FF8787",
"*+	c #FF9B9B",
"=+	c #FFE5E5",
"-+	c #FFCDCD",
";+	c #FF6868",
">+	c #FF2626",
",+	c #FF2020",
"'+	c #FF1C1C",
")+	c #FF1818",
"!+	c #FF1313",
"~+	c #FF0E0E",
"{+	c #F80909",
"]+	c #360000",
"^+	c #630000",
"/+	c #FF2424",
"(+	c #FF7575",
"_+	c #FF7C7C",
":+	c #FF8A8A",
"<+	c #FFECEC",
"[+	c #FFABAB",
"}+	c #FF3232",
"|+	c #FF2C2C",
"1+	c #FF2E2E",
"2+	c #FF2929",
"3+	c #FF1F1F",
"4+	c #FF1A1A",
"5+	c #FF1414",
"6+	c #FE0E0E",
"7+	c #4B0000",
"8+	c #FF2B2B",
"9+	c #FF3D3D",
"0+	c #FF4D4D",
"a+	c #FF5858",
"b+	c #FED4D4",
"c+	c #FF4343",
"d+	c #FF3030",
"e+	c #FF1B1B",
"f+	c #6E0000",
"g+	c #FF0808",
"h+	c #FF0C0C",
"i+	c #FF6464",
"j+	c #FE3F3F",
"k+	c #FF5F5F",
"l+	c #FFCFCF",
"m+	c #FF5050",
"n+	c #FF3535",
"o+	c #FF3434",
"p+	c #FF1919",
"q+	c #5C0202",
"r+	c #6D0303",
"s+	c #FF1212",
"t+	c #FF4F4F",
"u+	c #FF5555",
"v+	c #FF5D5D",
"w+	c #FFE3E3",
"x+	c #FF5A5A",
"y+	c #FF3636",
"z+	c #5F0404",
"A+	c #5B0000",
"B+	c #E41212",
"C+	c #FF1E1E",
"D+	c #F66E6E",
"E+	c #FCF5F5",
"F+	c #FFADAD",
"G+	c #FF5656",
"H+	c #FF7070",
"I+	c #FF7474",
"J+	c #FF6666",
"K+	c #F3D2D2",
"L+	c #F65656",
"M+	c #FE3B3B",
"N+	c #DB2020",
"O+	c #470000",
"P+	c #4D0000",
"Q+	c #BE0000",
"R+	c #D21616",
"S+	c #FC3131",
"T+	c #FF2D2D",
"U+	c #FF3333",
"V+	c #FA2B2B",
"W+	c #F45C5C",
"X+	c #FDE7E7",
"Y+	c #FF7272",
"Z+	c #FF7D7D",
"`+	c #FF7F7F",
" @	c #FF7777",
".@	c #FE5B5B",
"+@	c #FDC1C1",
"@@	c #F3BDBD",
"#@	c #EC4949",
"$@	c #FC4E4E",
"%@	c #FB4C4C",
"&@	c #CE2020",
"*@	c #B40000",
"=@	c #310000",
"-@	c #1B0000",
";@	c #B00000",
">@	c #C10000",
",@	c #CD1616",
"'@	c #F84040",
")@	c #FF3F3F",
"!@	c #FE3C3C",
"~@	c #FA5959",
"{@	c #FECDCD",
"]@	c #FF8E8E",
"^@	c #FF5B5B",
"/@	c #FF8080",
"(@	c #FB6060",
"_@	c #FAB5B5",
":@	c #F4B2B2",
"<@	c #F25151",
"[@	c #F75B5B",
"}@	c #CA1D1D",
"|@	c #9F0000",
"1@	c #120000",
"2@	c #270000",
"3@	c #AA0000",
"4@	c #CB0000",
"5@	c #CC1212",
"6@	c #F44C4C",
"7@	c #FF5454",
"8@	c #FF5353",
"9@	c #FE4646",
"0@	c #FF8484",
"a@	c #F86464",
"b@	c #F75F5F",
"c@	c #FF7B7B",
"d@	c #FF7171",
"e@	c #F36565",
"f@	c #CA1717",
"g@	c #C60000",
"h@	c #970000",
"i@	c #9C0000",
"j@	c #D50000",
"k@	c #CC0C0C",
"l@	c #EF5151",
"m@	c #FF6B6B",
"n@	c #FFA0A0",
"o@	c #EF6868",
"p@	c #CB0F0F",
"q@	c #CE0000",
"r@	c #8A0000",
"s@	c #0E0000",
"t@	c #060000",
"u@	c #890000",
"v@	c #DC0000",
"w@	c #D10505",
"x@	c #EC5151",
"y@	c #FF7878",
"z@	c #FFBCBC",
"A@	c #EB6666",
"B@	c #CF0707",
"C@	c #D40000",
"D@	c #790000",
"E@	c #710000",
"F@	c #E10000",
"G@	c #D80000",
"H@	c #E94949",
"I@	c #FE9595",
"J@	c #FFD6D6",
"K@	c #FEB6B6",
"L@	c #E95C5C",
"M@	c #D50101",
"N@	c #D70000",
"O@	c #580101",
"P@	c #E32424",
"Q@	c #E83838",
"R@	c #E83939",
"S@	c #E93B3B",
"T@	c #E93D3D",
"U@	c #E93F3F",
"V@	c #E94141",
"W@	c #E94242",
"X@	c #E84242",
"Y@	c #E74141",
"Z@	c #E73F3F",
"`@	c #E64040",
" #	c #E12C2C",
".#	c #DE0000",
"+#	c #D60000",
"@#	c #510000",
"##	c #3D0404",
"$#	c #D00B0B",
"%#	c #ED0000",
"&#	c #E40000",
"*#	c #E60000",
"=#	c #E70000",
"-#	c #E50000",
";#	c #E30000",
">#	c #3C0000",
",#	c #230606",
"'#	c #B71313",
")#	c #DC1313",
"!#	c #D81717",
"~#	c #D91B1B",
"{#	c #D91F1F",
"]#	c #D91C1C",
"^#	c #D91717",
"/#	c #D91212",
"(#	c #D80E0E",
"_#	c #D70909",
":#	c #D70505",
"<#	c #DA0000",
"[#	c #B80000",
"}#	c #0F0303",
"|#	c #0C0404",
"1#	c #0C0808",
"2#	c #0F0000",
"                                                                ",
"                  . + @ @ @ @ @ @ @ @ @ # $ %                   ",
"              & * = - ; > > > > > > > > , ' ) !                 ",
"            & ~ { ] ^ / / / / / / / / / ( ^ _ : <               ",
"          [ } | 1 2 3 3 3 3 3 3 3 3 3 3 3 4 5 6 7 8 &           ",
"        9 0 a 1 b c d e d d d d d d d d f 4 g 4 h i j k         ",
"      l m n g o p q r s o t u u u u t v ] w x y t z A B C       ",
"  & D E - f F G H I I J v K L L L M N y O I I O b M f ' P Q     ",
"& R S > L T U I I I I I V F , W W X y Y I I I I q t Z o `  ...& ",
"+.@.#.W $.> %.&.I I I I I *.F =.=.4 -.I I I I I ;.>.,.$.F '.).& ",
"!.~.{.=.{.{.].^./.I I I I I (.F 3 H I I I I I _.:.<.{.=.T [.}.|.",
"1.2.3.4.5.5.5.6.7.8.I I I I I q H I I I I 9.0.a.- 4.<.b.c.d.e.f.",
"g.h.i.j.k.k.j.l.m.n.o.I I I I I I I I I p.q.r.3.5.<.s.t.u.u.v.w.",
"x.y.` ` '.s.z.m.k.z.A.B.C.I I I I I I D.E.F.3._ 3.G.H.d.I.J.K.L.",
"M.N.O.P.P.Q.'.` z.k.'.R.S.I I I I I I T.U.5.V.W.X.Y.Z.`. +.++++.",
"@+N.#+$+%+O.&+n ` n *+=+I I I I I I I C.-+;+t.>+,+,+'+)+!+~+{+]+",
"^+/+(+_+%+Q.:+'.O.b.<+I I I I I I I I I I [+}+|+1+2+/+3+4+5+6+7+",
"< I.Y.8+9+0+c.a+j.(.I I I I I b+*.I I I I I y c+d+}+|+>+,+e+5+x.",
"f+g+h+Z.5+4+)+i+<+I I I I I d j+k+J I I I I I l+m+n+o+1+h.2.p+q+",
"r+`.s+p+,+,+a q I I I I I s t+| u+v+^ I I I I I w+x+S y+1+h.h.z+",
"A+B+H.C+N.h.D+E+I I I I F+G+G.H+I+J+x+-+I I I I K+L+c+9+y+M+N+O+",
"P+Q+R+S+T+U+V+W+X+I H <.x+Y+' Z+`+%+ @.@+@I I @@#@$@0+i %@&@*@=@",
"-@;@>@,@'@)@c+!@~@{@]@^@' /@P.:+s.s.z.P.(@_@:@<@i+k+v+[@}@Q+|@1@",
"& 2@3@4@5@6@7@8@7@9@k+Z+0@` l.- _ _ _ 4.j.a@b@c@d@I+e@f@g@h@-@  ",
"    |.i@j@k@l@m@i+H+c@O.z.5.n@X [+[+[+X n@*+k.0@` o@p@q@r@s@    ",
"      t@u@v@w@x@/@y@/@` 5.> F+v h z@h v F+> *+> A@B@C@D@t@      ",
"        & E@F@G@H@I@n@Z v z c l+/ J@/ l+c d K@L@M@N@< &         ",
"          & O@).F@P@Q@R@S@T@U@V@W@W@X@Y@Z@`@ #.#+#@#&           ",
"            & ##$#%#&#*#=#=#e.e.=#=#*#-#;#F@e.q@>#&             ",
"                ,#'#)#!#~#{#{#]#^#/#(#_#:#<#[#2@                ",
"                  & }#|#|#1#1#1#|#|#k k k 2#&                   ",
"                                                                "};
