/* XPM */
static char * agt_pause_queue_xpm[] = {
"32 32 582 2",
"  	c None",
". 	c #000800",
"+ 	c #031903",
"@ 	c #042A04",
"# 	c #053205",
"$ 	c #084208",
"% 	c #083E08",
"& 	c #062E06",
"* 	c #052905",
"= 	c #001500",
"- 	c #000000",
"; 	c #000900",
"> 	c #062D06",
", 	c #0D550B",
"' 	c #23761C",
") 	c #3E8F35",
"! 	c #539E49",
"~ 	c #60A656",
"{ 	c #69AB5F",
"] 	c #67AA5D",
"^ 	c #5DA554",
"/ 	c #4E9A45",
"( 	c #38892E",
"_ 	c #1D6D15",
": 	c #0A4A0A",
"< 	c #022302",
"[ 	c #073807",
"} 	c #186D12",
"| 	c #46973B",
"1 	c #72B168",
"2 	c #8DBE82",
"3 	c #98C48D",
"4 	c #9AC590",
"5 	c #9AC58F",
"6 	c #99C48F",
"7 	c #95C28B",
"8 	c #87BB7D",
"9 	c #68AC5E",
"0 	c #3A8E30",
"a 	c #125F0C",
"b 	c #042904",
"c 	c #031D03",
"d 	c #11620D",
"e 	c #449738",
"f 	c #7CB570",
"g 	c #93C188",
"h 	c #94C187",
"i 	c #92C184",
"j 	c #91C082",
"k 	c #91C182",
"l 	c #90C082",
"m 	c #90BF82",
"n 	c #92C085",
"o 	c #94C188",
"p 	c #8FBF85",
"q 	c #6FAE64",
"r 	c #338A29",
"s 	c #0C520A",
"t 	c #000C00",
"u 	c #207915",
"v 	c #63A955",
"w 	c #8EBE81",
"x 	c #8EBE80",
"y 	c #8BBE7B",
"z 	c #8CBE7B",
"A 	c #8DBF7B",
"B 	c #8EC07B",
"C 	c #8FC17C",
"D 	c #90C17C",
"E 	c #8EBF7B",
"F 	c #8DBE7B",
"G 	c #8CBD7D",
"H 	c #8FBF82",
"I 	c #88BA7B",
"J 	c #509E42",
"K 	c #14690E",
"L 	c #031703",
"M 	c #042D04",
"N 	c #268218",
"O 	c #6EAD5E",
"P 	c #87BB76",
"Q 	c #87BC74",
"R 	c #89BD74",
"S 	c #8BBF75",
"T 	c #8CC075",
"U 	c #8EC175",
"V 	c #8DC173",
"W 	c #8FC276",
"X 	c #90C377",
"Y 	c #8DC174",
"Z 	c #8DC075",
"` 	c #8ABE75",
" .	c #87BB72",
"..	c #87BB75",
"+.	c #87BA77",
"@.	c #89BB7B",
"#.	c #5BA44B",
"$.	c #18700F",
"%.	c #001800",
"&.	c #031B03",
"*.	c #207912",
"=.	c #69AB56",
"-.	c #86BA76",
";.	c #83B96F",
">.	c #83BA6C",
",.	c #9AC886",
"'.	c #E4F0DE",
").	c #E7F2E2",
"!.	c #E8F2E2",
"~.	c #D9EACF",
"{.	c #92C574",
"].	c #8FC470",
"^.	c #8BC16B",
"/.	c #B8D9A5",
"(.	c #E7F2E1",
"_.	c #E6F1E1",
":.	c #C0DCB3",
"<.	c #82B96A",
"[.	c #84BA6F",
"}.	c #83B970",
"|.	c #86B976",
"1.	c #55A142",
"2.	c #14640D",
"3.	c #14620D",
"4.	c #55A23E",
"5.	c #82B86F",
"6.	c #80B869",
"7.	c #83BA6A",
"8.	c #7FB962",
"9.	c #A8D093",
"0.	c #FFFFFF",
"a.	c #FBFDFA",
"b.	c #98CA77",
"c.	c #8EC468",
"d.	c #8AC363",
"e.	c #D1E7C2",
"f.	c #DDEDD4",
"g.	c #81BB63",
"h.	c #83BB6A",
"i.	c #81B869",
"j.	c #7FB76B",
"k.	c #7DB56C",
"l.	c #40972B",
"m.	c #0C4509",
"n.	c #062B04",
"o.	c #37911F",
"p.	c #77B361",
"q.	c #7CB664",
"r.	c #7FB964",
"s.	c #82BB64",
"t.	c #7FBB5D",
"u.	c #A6D08C",
"v.	c #F7FBF4",
"w.	c #99CC71",
"x.	c #8FC763",
"y.	c #8AC55D",
"z.	c #CFE7BC",
"A.	c #D9EBCE",
"B.	c #81BC5E",
"C.	c #83BC64",
"D.	c #80B964",
"E.	c #7DB764",
"F.	c #7DB667",
"G.	c #69AC54",
"H.	c #247C12",
"I.	c #001100",
"J.	c #1A5F0D",
"K.	c #58A63C",
"L.	c #7BB662",
"M.	c #7BB75E",
"N.	c #7EB95E",
"O.	c #82BD5F",
"P.	c #7FBD58",
"Q.	c #A7D188",
"R.	c #99CE6B",
"S.	c #91CA5E",
"T.	c #8CC858",
"U.	c #CFE8BA",
"V.	c #D9EBCC",
"W.	c #81BE58",
"X.	c #83BE5F",
"Y.	c #80BB5E",
"Z.	c #7DB85E",
"`.	c #78B55D",
" +	c #78B461",
".+	c #459B2A",
"++	c #0D3E08",
"@+	c #000F00",
"#+	c #2C8112",
"$+	c #6AAE4D",
"%+	c #78B55A",
"&+	c #7AB858",
"*+	c #7EBB58",
"=+	c #82BE59",
"-+	c #80BF52",
";+	c #A7D384",
">+	c #F7FBF3",
",+	c #9CD167",
"'+	c #91CC57",
")+	c #8ECB52",
"!+	c #D0E9B7",
"~+	c #D9ECCA",
"{+	c #81C052",
"]+	c #83C059",
"^+	c #80BD59",
"/+	c #7BB958",
"(+	c #78B658",
"_+	c #76B45B",
":+	c #5BA83E",
"<+	c #1D650C",
"[+	c #082002",
"}+	c #3F951E",
"|+	c #71B352",
"1+	c #75B552",
"2+	c #79B952",
"3+	c #7EBD53",
"4+	c #82C053",
"5+	c #80C04B",
"6+	c #A8D580",
"7+	c #9CD461",
"8+	c #94D152",
"9+	c #90CE4C",
"0+	c #D1EBB5",
"a+	c #DAEDC8",
"b+	c #82C24C",
"c+	c #83C153",
"d+	c #80BF53",
"e+	c #7BBA52",
"f+	c #77B752",
"g+	c #75B454",
"h+	c #67AE48",
"i+	c #2C7D12",
"j+	c #000600",
"k+	c #0C3106",
"l+	c #439C1D",
"m+	c #68AF42",
"n+	c #76B74D",
"o+	c #7BBB4F",
"p+	c #7FBF4E",
"q+	c #82C24D",
"r+	c #81C446",
"s+	c #A8D77C",
"t+	c #F7FCF2",
"u+	c #9FD75C",
"v+	c #96D44C",
"w+	c #92D246",
"x+	c #D1ECB2",
"y+	c #DAEDC7",
"z+	c #84C447",
"A+	c #84C34D",
"B+	c #80C04D",
"C+	c #7BBC4D",
"D+	c #79B94F",
"E+	c #71B34C",
"F+	c #5EA939",
"G+	c #348915",
"H+	c #001400",
"I+	c #103206",
"J+	c #429D16",
"K+	c #4CA018",
"L+	c #5CAC27",
"M+	c #70B73A",
"N+	c #7CBF45",
"O+	c #84C54A",
"P+	c #84C642",
"Q+	c #A9D979",
"R+	c #A3DB58",
"S+	c #99D847",
"T+	c #96D740",
"U+	c #D3EDB0",
"V+	c #DBEFC5",
"W+	c #85C742",
"X+	c #86C64A",
"Y+	c #81C249",
"Z+	c #77BB42",
"`+	c #68B233",
" @	c #54A621",
".@	c #469E16",
"+@	c #388D14",
"@@	c #031300",
"#@	c #123406",
"$@	c #48A217",
"%@	c #4EA417",
"&@	c #54A918",
"*@	c #5CAF19",
"=@	c #66B61F",
"-@	c #75BF2B",
";@	c #7CC530",
">@	c #A8DA70",
",@	c #F8FCF2",
"'@	c #A6DF54",
")@	c #9EDD43",
"!@	c #9ADC3C",
"~@	c #D5F0AE",
"{@	c #DAEFC2",
"]@	c #82C935",
"^@	c #7BC332",
"/@	c #6FBB27",
"(@	c #61B21B",
"_@	c #57AB18",
":@	c #51A618",
"<@	c #4CA217",
"[@	c #3E9115",
"}@	c #123306",
"|@	c #4BA217",
"1@	c #55A918",
"2@	c #5BAE19",
"3@	c #62B41A",
"4@	c #68B91A",
"5@	c #6EBE1B",
"6@	c #71C41C",
"7@	c #9DD757",
"8@	c #F8FDF1",
"9@	c #A4E244",
"0@	c #9DE034",
"a@	c #99DF2F",
"b@	c #D4F1A6",
"c@	c #D6EFB8",
"d@	c #74C51C",
"e@	c #71C11B",
"f@	c #6BBC1B",
"g@	c #65B61A",
"h@	c #5DB019",
"i@	c #57AA18",
"j@	c #52A718",
"k@	c #3E9014",
"l@	c #031200",
"m@	c #0F2B04",
"n@	c #4A9D16",
"o@	c #5AAE19",
"p@	c #60B219",
"q@	c #67B71A",
"r@	c #75C41C",
"s@	c #78C91D",
"t@	c #A2DA58",
"u@	c #F8FDF0",
"v@	c #A2E33A",
"w@	c #9AE02A",
"x@	c #96DF22",
"y@	c #D2F1A1",
"z@	c #D7EFB7",
"A@	c #7ACB1D",
"B@	c #77C61C",
"C@	c #71C01B",
"D@	c #69BA1A",
"E@	c #5AAD19",
"F@	c #56AB18",
"G@	c #3A8712",
"H@	c #041000",
"I@	c #081E02",
"J@	c #3F8F14",
"K@	c #60B319",
"L@	c #63B41A",
"M@	c #73C21C",
"N@	c #79C81C",
"O@	c #7DCD1D",
"P@	c #A5DE58",
"Q@	c #ACE650",
"R@	c #A4E441",
"S@	c #A0E238",
"T@	c #D8F3AB",
"U@	c #D9F1B7",
"V@	c #80D01E",
"W@	c #7ECB1D",
"X@	c #76C51C",
"Y@	c #5EB119",
"Z@	c #2F7410",
"`@	c #040900",
" #	c #307810",
".#	c #60B019",
"+#	c #7ECC1D",
"@#	c #82D21E",
"##	c #AAE259",
"$#	c #F9FDF3",
"%#	c #B4E862",
"&#	c #AFE756",
"*#	c #ABE54E",
"=#	c #DBF4B4",
"-#	c #DBF3B8",
";#	c #85D41E",
">#	c #81CE1D",
",#	c #72C21C",
"'#	c #67B81A",
")#	c #53A417",
"!#	c #235E0B",
"~#	c #255C0C",
"{#	c #4B9B16",
"]#	c #7AC81C",
"^#	c #82CF1D",
"/#	c #86D61E",
"(#	c #AFE55C",
"_#	c #FDFEFC",
":#	c #BDEB75",
"<#	c #B9EA6B",
"[#	c #E2F6C1",
"}#	c #E1F6C0",
"|#	c #8AD91F",
"1#	c #86D21E",
"2#	c #6DBB1B",
"3#	c #3E8E14",
"4#	c #173C08",
"5#	c #112A04",
"6#	c #3C8B14",
"7#	c #62AE19",
"8#	c #82D01E",
"9#	c #7CCA1D",
"0#	c #8DDA1F",
"a#	c #9DDF37",
"b#	c #C5E899",
"c#	c #CAEB9F",
"d#	c #CCECA0",
"e#	c #CDEDA1",
"f#	c #C9EC95",
"g#	c #C0EC7C",
"h#	c #C4ED82",
"i#	c #C2EC7E",
"j#	c #C2EB87",
"k#	c #CAEBA0",
"l#	c #C9E99F",
"m#	c #C5E79E",
"n#	c #AEE165",
"o#	c #90DC1F",
"p#	c #89D41E",
"q#	c #80CD1D",
"r#	c #7FCC1D",
"s#	c #509C16",
"t#	c #347D11",
"u#	c #030F00",
"v#	c #316B0E",
"w#	c #429215",
"x#	c #75BE21",
"y#	c #90D927",
"z#	c #87D41E",
"A#	c #90DB1F",
"B#	c #98E026",
"C#	c #9ADE2F",
"D#	c #A2E242",
"E#	c #ABE453",
"F#	c #B4E764",
"G#	c #BDEA76",
"H#	c #CBEF91",
"I#	c #CDF097",
"J#	c #CDF096",
"K#	c #C4ED83",
"L#	c #B6E86A",
"M#	c #AEE55A",
"N#	c #A5E248",
"O#	c #9CDF37",
"P#	c #97DE28",
"Q#	c #95DE20",
"R#	c #8BD71F",
"S#	c #84D11E",
"T#	c #8ED826",
"U#	c #60AB1A",
"V#	c #409115",
"W#	c #1F4809",
"X#	c #0B1602",
"Y#	c #448F13",
"Z#	c #469417",
"`#	c #7BBF2F",
" $	c #A1E23C",
".$	c #96DF24",
"+$	c #A6E444",
"@$	c #B1E75B",
"#$	c #BAEA6F",
"$$	c #D4F2A4",
"%$	c #D7F3AD",
"&$	c #D5F2A8",
"*$	c #D0F19C",
"=$	c #C8EE8C",
"-$	c #BFEB78",
";$	c #B5E863",
">$	c #9FE236",
",$	c #94DF20",
"'$	c #96DD28",
")$	c #9CDE39",
"!$	c #66AD24",
"~$	c #439415",
"{$	c #397710",
"]$	c #000500",
"^$	c #183105",
"/$	c #51A017",
"($	c #4A9916",
"_$	c #70B233",
":$	c #AAE058",
"<$	c #B2E655",
"[$	c #ADE64F",
"}$	c #BBEA71",
"|$	c #C7EE89",
"1$	c #D1F19F",
"2$	c #DAF4B3",
"3$	c #DFF5BD",
"4$	c #DEF5B9",
"5$	c #D5F2A7",
"6$	c #CBEF92",
"7$	c #B6E964",
"8$	c #ACE64F",
"9$	c #A9E447",
"0$	c #B0E651",
"a$	c #9ED74E",
"b$	c #5DA425",
"c$	c #4A9B16",
"d$	c #468C13",
"e$	c #081402",
"f$	c #193405",
"g$	c #55A216",
"h$	c #55A818",
"i$	c #5BA423",
"j$	c #92C956",
"k$	c #BFE783",
"l$	c #CEEF93",
"m$	c #CFF095",
"n$	c #D0F09B",
"o$	c #DEF5BA",
"p$	c #E1F6BF",
"q$	c #D9F3AE",
"r$	c #D1F19D",
"s$	c #CCEF91",
"t$	c #CCEE8D",
"u$	c #C9EE8A",
"v$	c #B5E175",
"w$	c #80BE46",
"x$	c #519E1B",
"y$	c #498C13",
"z$	c #0C1902",
"A$	c #112304",
"B$	c #4D8D13",
"C$	c #67BB1B",
"D$	c #66B026",
"E$	c #8DC754",
"F$	c #B6DD88",
"G$	c #D5EDB5",
"H$	c #E9F7D4",
"I$	c #F6FCEC",
"J$	c #EFF9E0",
"K$	c #E1F4C6",
"L$	c #CBE9A5",
"M$	c #AAD779",
"N$	c #7FBD44",
"O$	c #5DAA1D",
"P$	c #5CB019",
"Q$	c #64B71A",
"R$	c #3D730F",
"S$	c #060C00",
"T$	c #000300",
"U$	c #2F530B",
"V$	c #61A817",
"W$	c #73C81C",
"X$	c #6EC31C",
"Y$	c #66B91A",
"Z$	c #6DBA20",
"`$	c #7CC233",
" %	c #8CCB49",
".%	c #91CF4F",
"+%	c #90CD4E",
"@%	c #87C742",
"#%	c #76BE2D",
"$%	c #6AB81C",
"%%	c #66BA1A",
"&%	c #6FC41C",
"*%	c #70C31C",
"=%	c #549414",
"-%	c #1F3906",
";%	c #2D4D09",
">%	c #559014",
",%	c #6CB719",
"'%	c #76C81C",
")%	c #77CC1D",
"!%	c #76CD1D",
"~%	c #76CC1D",
"{%	c #68AF18",
"]%	c #4A8011",
"^%	c #203907",
"/%	c #0B1002",
"(%	c #1C3105",
"_%	c #2F500A",
":%	c #385F0D",
"<%	c #39600D",
"[%	c #365C0C",
"}%	c #2B4809",
"|%	c #182904",
"1%	c #030900",
"                                                                ",
"                      . + @ # $ % & * = -                       ",
"                ; > , ' ) ! ~ { ] ^ / ( _ : < -                 ",
"            - [ } | 1 2 3 4 4 5 4 4 6 7 8 9 0 a b -             ",
"          c d e f g h i j j j k k j l m n o p q r s t           ",
"        > u v w x y z A B C D D D C B E F y G H I J K L         ",
"      M N O G P Q R S T U V W X X Y U Z S `  ...+.@.#.$.%.      ",
"    &.*.=.-.;.>.,.'.).).!.~.{.].^./.(.).)._.:.<.[.}.|.1.2..     ",
"  - 3.4.5.6.7.8.9.0.0.0.0.a.b.c.d.e.0.0.0.0.f.g.h.i.j.k.l.m.    ",
"  n.o.p.q.r.s.t.u.0.0.0.0.v.w.x.y.z.0.0.0.0.A.B.C.D.E.F.G.H.I.  ",
"- J.K.L.M.N.O.P.Q.0.0.0.0.v.R.S.T.U.0.0.0.0.V.W.X.Y.Z.`. +.+++  ",
"@+#+$+%+&+*+=+-+;+0.0.0.0.>+,+'+)+!+0.0.0.0.~+{+]+^+/+(+_+:+<+- ",
"[+}+|+1+2+3+4+5+6+0.0.0.0.>+7+8+9+0+0.0.0.0.a+b+c+d+e+f+g+h+i+j+",
"k+l+m+n+o+p+q+r+s+0.0.0.0.t+u+v+w+x+0.0.0.0.y+z+A+B+C+D+E+F+G+H+",
"I+J+K+L+M+N+O+P+Q+0.0.0.0.t+R+S+T+U+0.0.0.0.V+W+X+Y+Z+`+ @.@+@@@",
"#@$@%@&@*@=@-@;@>@0.0.0.0.,@'@)@!@~@0.0.0.0.{@]@^@/@(@_@:@<@[@@@",
"}@|@1@2@3@4@5@6@7@0.0.0.0.8@9@0@a@b@0.0.0.0.c@d@e@f@g@h@i@j@k@l@",
"m@n@o@p@q@5@r@s@t@0.0.0.0.u@v@w@x@y@0.0.0.0.z@A@B@C@D@3@E@F@G@H@",
"I@J@K@L@f@M@N@O@P@0.0.0.0.8@Q@R@S@T@0.0.0.0.U@V@W@X@5@q@Y@2@Z@j+",
"`@ #.#D@5@X@+#@###0.0.0.0.$#%#&#*#=#0.0.0.0.-#;#>#N@,#D@'#)#!#- ",
"- ~#{#r@e@]#^#/#(#0.0.0.0._#:#<#%#[#0.0.0.0.}#|#1#W@X@5@2#3#4#  ",
"  5#6#7#8#9#1#0#a#b#c#d#e#f#g#h#i#j#d#k#l#m#n#o#p#q#B@r#s#t#u#  ",
"  - v#w#x#y#z#A#B#C#D#E#F#G#H#I#J#K#L#M#N#O#P#Q#R#S#T#U#V#W#-   ",
"    X#Y#Z#`# $.$w@+$@$#$K#J#$$%$&$*$=$-$;$*#>$,$'$)$!$~${$]$    ",
"    - ^$/$($_$:$<$[$@$}$|$1$2$3$4$5$6$g#7$8$9$0$a$b$c$d$e$      ",
"      - f$g$h$i$j$k$l$m$n$&$o$p$3$q$r$s$t$u$v$w$x$_@y$z$-       ",
"        - A$B$C$2@D$E$F$G$H$I$8@u@J$K$L$M$N$O$P$Q$R$S$-         ",
"          - T$U$V$W$X$Y$Z$`$ %.%+%@%#%$%%%&%*%=%-%-             ",
"              - S$;%>%,%'%)%!%!%!%~%)%d@{%]%^%- -               ",
"                  - - /%(%_%:%<%<%[%}%|%1%- -                   ",
"                        - - - - - - - -                         ",
"                                                                "};
