/* XPM */
static char * agt_action_success_xpm[] = {
"32 32 353 2",
"  	c None",
". 	c #082604",
"+ 	c #092404",
"@ 	c #0A3105",
"# 	c #37911E",
"$ 	c #2F8B16",
"% 	c #0B3105",
"& 	c #114608",
"* 	c #489D2E",
"= 	c #D9EBD3",
"- 	c #BCDAB2",
"; 	c #328E1A",
"> 	c #104107",
", 	c #184F09",
"' 	c #5AAA3B",
") 	c #DBECD3",
"! 	c #FBFCFA",
"~ 	c #FCFDFC",
"{ 	c #BEDCB4",
"] 	c #3F9A25",
"^ 	c #154B09",
"/ 	c #000000",
"( 	c #23640C",
"_ 	c #6BB549",
": 	c #DBEBD2",
"< 	c #EDF5E9",
"[ 	c #E3F0DE",
"} 	c #E3F0DF",
"| 	c #EFF6EC",
"1 	c #C4DEB9",
"2 	c #50A435",
"3 	c #215F0D",
"4 	c #2D740F",
"5 	c #79BF54",
"6 	c #D8EACE",
"7 	c #DFEED8",
"8 	c #D8EACF",
"9 	c #D8E9D0",
"0 	c #D7E9CF",
"a 	c #E8F2E4",
"b 	c #A6CE94",
"c 	c #3B9E17",
"d 	c #143C07",
"e 	c #296E0F",
"f 	c #28670D",
"g 	c #081100",
"h 	c #388612",
"i 	c #85C65F",
"j 	c #D2E7C5",
"k 	c #CEE5C1",
"l 	c #D5E8CB",
"m 	c #A7CF92",
"n 	c #4DA126",
"o 	c #2C8513",
"p 	c #062604",
"q 	c #001300",
"r 	c #2D7811",
"s 	c #74BB50",
"t 	c #64B439",
"u 	c #2F730F",
"v 	c #0B1D00",
"w 	c #459514",
"x 	c #8FCB67",
"y 	c #CBE4BB",
"z 	c #C7E2B5",
"A 	c #C5E1B3",
"B 	c #C4E0B2",
"C 	c #C3E0B2",
"D 	c #C4E0B3",
"E 	c #CAE3BB",
"F 	c #99C97D",
"G 	c #4BA21A",
"H 	c #2C7F12",
"I 	c #0E5C0D",
"J 	c #042204",
"K 	c #061A00",
"L 	c #348612",
"M 	c #7DBF5A",
"N 	c #BEDCAD",
"O 	c #B2D69C",
"P 	c #6AB83C",
"Q 	c #3A8212",
"R 	c #091300",
"S 	c #143204",
"T 	c #52A218",
"U 	c #96CE6C",
"V 	c #C3E0AC",
"W 	c #BDDDA5",
"X 	c #BBDCA3",
"Y 	c #BADCA3",
"Z 	c #BBDCA5",
"` 	c #BFDDAA",
" .	c #91C66D",
"..	c #50A718",
"+.	c #2F8112",
"@.	c #0D580C",
"#.	c #063406",
"$.	c #0D2404",
"%.	c #419119",
"&.	c #82C15F",
"*.	c #B1D69C",
"=.	c #ADD495",
"-.	c #B1D699",
";.	c #AED594",
">.	c #75BF43",
",.	c #489715",
"'.	c #0C1E00",
").	c #1F3E06",
"!.	c #5EB11E",
"~.	c #9AD16E",
"{.	c #BADD9E",
"].	c #B4D996",
"^.	c #B3D995",
"/.	c #B2D895",
"(.	c #B3D997",
"_.	c #B4D999",
":.	c #85C158",
"<.	c #58AD19",
"[.	c #318112",
"}.	c #0C560C",
"|.	c #052D05",
"1.	c #0F2703",
"2.	c #419A15",
"3.	c #62AF35",
"4.	c #A4CF8A",
"5.	c #A6D18B",
"6.	c #A3CF86",
"7.	c #A5D086",
"8.	c #A8D289",
"9.	c #A9D38A",
"0.	c #7EC348",
"a.	c #52A316",
"b.	c #193304",
"c.	c #2A5409",
"d.	c #67B924",
"e.	c #9CD26E",
"f.	c #B2D98F",
"g.	c #ACD687",
"h.	c #ABD687",
"i.	c #AED78B",
"j.	c #AAD687",
"k.	c #7ABE43",
"l.	c #5EB319",
"m.	c #338112",
"n.	c #0C540C",
"o.	c #052605",
"p.	c #1E4A0A",
"q.	c #53AF19",
"r.	c #4BA117",
"s.	c #60AD2E",
"t.	c #8CC464",
"u.	c #9ECD7C",
"v.	c #A0CF7C",
"w.	c #9ECE78",
"x.	c #A0D07A",
"y.	c #A4D37E",
"z.	c #85C84C",
"A.	c #5EB218",
"B.	c #203E06",
"C.	c #315C0C",
"D.	c #73C52A",
"E.	c #9CD26B",
"F.	c #A9D67F",
"G.	c #A5D479",
"H.	c #A6D57B",
"I.	c #A7D67E",
"J.	c #9FD173",
"K.	c #77BF36",
"L.	c #66B91A",
"M.	c #348012",
"N.	c #0B500B",
"O.	c #031F03",
"P.	c #062905",
"Q.	c #368913",
"R.	c #5AAE19",
"S.	c #56A918",
"T.	c #6FB736",
"U.	c #8AC559",
"V.	c #97CC6A",
"W.	c #9BCF6E",
"X.	c #A0D272",
"Y.	c #89C94D",
"Z.	c #68BB1C",
"`.	c #75C32C",
" +	c #9AD265",
".+	c #A2D470",
"++	c #9FD36C",
"@+	c #A0D46D",
"#+	c #A1D46F",
"$+	c #A1D46E",
"%+	c #9AD164",
"&+	c #87C748",
"*+	c #71BF24",
"=+	c #6FC01B",
"-+	c #337F12",
";+	c #0A4B0A",
">+	c #031803",
",+	c #021C02",
"'+	c #0C550C",
")+	c #388413",
"!+	c #64B61A",
"~+	c #5BAF19",
"{+	c #60B219",
"]+	c #6BB927",
"^+	c #7BC139",
"/+	c #87C74A",
"(+	c #8FCB54",
"_+	c #95CF5C",
":+	c #8CCB4C",
"<+	c #94D057",
"[+	c #99D15E",
"}+	c #97D15A",
"|+	c #94D056",
"1+	c #91CF50",
"2+	c #89CB43",
"3+	c #7EC632",
"4+	c #71C01F",
"5+	c #70C21C",
"6+	c #78C325",
"7+	c #317B16",
"8+	c #094609",
"9+	c #021302",
"0+	c #042104",
"a+	c #0B510B",
"b+	c #378313",
"c+	c #6DBE1B",
"d+	c #63B61A",
"e+	c #65B61A",
"f+	c #66B81A",
"g+	c #68BA1A",
"h+	c #6BBC1B",
"i+	c #6FBF1C",
"j+	c #73C121",
"k+	c #79C427",
"l+	c #7AC527",
"m+	c #7AC625",
"n+	c #7AC623",
"o+	c #78C51F",
"p+	c #75C51C",
"q+	c #74C41C",
"r+	c #73C31C",
"s+	c #7AC91D",
"t+	c #82C633",
"u+	c #2E761B",
"v+	c #084108",
"w+	c #000C00",
"x+	c #031A03",
"y+	c #0A4D0A",
"z+	c #368212",
"A+	c #77C41E",
"B+	c #6CBD1B",
"C+	c #6EBE1B",
"D+	c #71C11B",
"E+	c #73C21C",
"F+	c #75C41C",
"G+	c #77C61C",
"H+	c #78C71C",
"I+	c #79C81C",
"J+	c #7BC91D",
"K+	c #84D123",
"L+	c #8AC842",
"M+	c #2A731F",
"N+	c #073B07",
"O+	c #000900",
"P+	c #021402",
"Q+	c #0A4F0A",
"R+	c #3B8618",
"S+	c #81C92A",
"T+	c #72C21C",
"U+	c #76C51C",
"V+	c #78C61C",
"W+	c #7AC81C",
"X+	c #7CCA1D",
"Y+	c #7ECB1D",
"Z+	c #7FCC1D",
"`+	c #7FCD1D",
" @	c #7DCC1D",
".@	c #8CD62A",
"+@	c #92CB53",
"@@	c #2D7621",
"#@	c #000300",
"$@	c #021000",
"%@	c #12550B",
"&@	c #418C1F",
"*@	c #8CCE3A",
"=@	c #7ECC20",
"-@	c #81CD1D",
";@	c #82CF1D",
">@	c #84D01E",
",@	c #85D11E",
"'@	c #83D11E",
")@	c #96DC34",
"!@	c #99CC64",
"~@	c #337D23",
"{@	c #0C3C08",
"]@	c #020E00",
"^@	c #1A580C",
"/@	c #479224",
"(@	c #95D14A",
"_@	c #89D326",
":@	c #80CE1D",
"<@	c #84D11E",
"[@	c #86D21E",
"}@	c #87D31E",
"|@	c #89D41E",
"1@	c #86D51E",
"2@	c #A2E243",
"3@	c #A0CE74",
"4@	c #388322",
"5@	c #0F3A06",
"6@	c #030600",
"7@	c #1F590C",
"8@	c #4E9927",
"9@	c #9FD55C",
"0@	c #93DA2F",
"a@	c #86D41E",
"b@	c #8BD61E",
"c@	c #8DD81F",
"d@	c #8ADA1F",
"e@	c #ADE655",
"f@	c #A7D183",
"g@	c #3D8920",
"h@	c #123907",
"i@	c #000400",
"j@	c #23580C",
"k@	c #539F28",
"l@	c #A8D86E",
"m@	c #9FE13C",
"n@	c #8CDA1F",
"o@	c #8EDC1F",
"p@	c #B8E967",
"q@	c #ABD38C",
"r@	c #428E1D",
"s@	c #123006",
"t@	c #24510A",
"u@	c #59A627",
"v@	c #AEDA7C",
"w@	c #B1E653",
"x@	c #C0EB75",
"y@	c #A9D488",
"z@	c #459018",
"A@	c #112905",
"B@	c #244B0A",
"C@	c #5DAB21",
"D@	c #B3DB8A",
"E@	c #A4D479",
"F@	c #479014",
"G@	c #0F2204",
"H@	c #234309",
"I@	c #4B9114",
"J@	c #0C1902",
"K@	c #112104",
"L@	c #060F00",
"                                                                ",
"                                                                ",
"                                                                ",
"                                                  . +           ",
"                                                @ # $ %         ",
"                                              & * = - ; >       ",
"                                            , ' ) ! ~ { ] ^     ",
"                                        / ( _ : < [ } | 1 2 3 / ",
"                                      / 4 5 6 7 8 9 9 0 a b c d ",
"        / e f /                     g h i j j k k k k l m n o p ",
"      q r s t u /                 v w x y z A B C D E F G H I J ",
"    K L M N O P Q R             S T U V W X X Y Z `  ...+.@.#./ ",
"  $.%.&.*.=.-.;.>.,.'.        ).!.~.{.].^.^./.(._.:.<.[.}.|./   ",
"1.2.3.4.5.6.7.8.9.0.a.b.    c.d.e.f.g.h.h.h.i.j.k.l.m.n.o./     ",
"p.q.r.s.t.u.v.w.x.y.z.A.B.C.D.E.F.G.G.G.H.I.J.K.L.M.N.O./       ",
"P.Q.R...S.T.U.V.W.W.X.Y.Z.`. +.+++@+#+$+%+&+*+=+-+;+>+/         ",
",+'+)+!+~+~+{+]+^+/+(+_+:+<+[+}+|+1+2+3+4+5+6+7+8+9+/           ",
"/ 0+a+b+c+d+e+f+g+h+i+j+k+l+m+n+o+p+q+r+s+t+u+v+w+/             ",
"  / x+y+z+A+B+h+C+D+E+F+p+G+H+I+I+J+I+K+L+M+N+O+/               ",
"    / P+Q+R+S+q+T+U+V+W+X+Y+Z+Z+`+ @.@+@@@N+#@                  ",
"      / $@%@&@*@=@I+Y+Z+-@;@>@,@'@)@!@~@{@/                     ",
"        / ]@^@/@(@_@:@<@[@}@|@1@2@3@4@5@/                       ",
"            6@7@8@9@0@a@b@c@d@e@f@g@h@/                         ",
"              i@j@k@l@m@n@o@p@q@r@s@/                           ",
"                / t@u@v@w@x@y@z@A@/                             ",
"                  / B@C@D@E@F@G@/                               ",
"                    / H@~+I@J@/                                 ",
"                      / K@L@/                                   ",
"                        / /                                     ",
"                                                                ",
"                                                                ",
"                                                                "};
