/* XPM */
static char * bug_xpm[] = {
"32 32 529 2",
"  	c None",
". 	c #723800",
"+ 	c #3A1D00",
"@ 	c #000000",
"# 	c #060300",
"$ 	c #2F1800",
"% 	c #010000",
"& 	c #170B00",
"* 	c #321800",
"= 	c #080300",
"- 	c #100800",
"; 	c #371B00",
"> 	c #0F0800",
", 	c #0D0600",
"' 	c #3C1D00",
") 	c #0B0400",
"! 	c #140900",
"~ 	c #3E1E00",
"{ 	c #080400",
"] 	c #020100",
"^ 	c #180B00",
"/ 	c #391B00",
"( 	c #442100",
"_ 	c #090400",
": 	c #190B00",
"< 	c #050200",
"[ 	c #2A1400",
"} 	c #502700",
"| 	c #452000",
"1 	c #1A0C00",
"2 	c #040200",
"3 	c #492300",
"4 	c #5D2D00",
"5 	c #1B0D00",
"6 	c #0D0605",
"7 	c #411F03",
"8 	c #733D04",
"9 	c #763D04",
"0 	c #301704",
"a 	c #0A0403",
"b 	c #401F00",
"c 	c #422000",
"d 	c #201000",
"e 	c #602F00",
"f 	c #412216",
"g 	c #AF8C7F",
"h 	c #986E5C",
"i 	c #E3C57A",
"j 	c #C6A163",
"k 	c #A07B6E",
"l 	c #9F7A6A",
"m 	c #1F0E08",
"n 	c #060200",
"o 	c #793B00",
"p 	c #723700",
"q 	c #482200",
"r 	c #623016",
"s 	c #79442E",
"t 	c #7F4B28",
"u 	c #EED660",
"v 	c #D2B04E",
"w 	c #764025",
"x 	c #7D472D",
"y 	c #421F0D",
"z 	c #160B00",
"A 	c #5E2D00",
"B 	c #512800",
"C 	c #150A00",
"D 	c #5C2D00",
"E 	c #7D3D00",
"F 	c #9E4D00",
"G 	c #8F4600",
"H 	c #3D1D00",
"I 	c #7D4000",
"J 	c #C37800",
"K 	c #DCB20C",
"L 	c #FEE622",
"M 	c #FBDC1F",
"N 	c #CE9605",
"O 	c #C57800",
"P 	c #633500",
"Q 	c #693300",
"R 	c #894300",
"S 	c #884200",
"T 	c #733800",
"U 	c #562A00",
"V 	c #341900",
"W 	c #AF5500",
"X 	c #311900",
"Y 	c #D08900",
"Z 	c #F8B603",
"` 	c #ECAE21",
" .	c #EDAF27",
"..	c #F9B206",
"+.	c #C57F00",
"@.	c #170C00",
"#.	c #030100",
"$.	c #854100",
"%.	c #884300",
"&.	c #1A0D00",
"*.	c #1E0F00",
"=.	c #CF6600",
"-.	c #8C4500",
";.	c #0E0400",
">.	c #874F0C",
",.	c #FECF6F",
"'.	c #FEECB1",
").	c #FEEEB2",
"!.	c #FED883",
"~.	c #9E6316",
"{.	c #281000",
"].	c #A95200",
"^.	c #A24F00",
"/.	c #211000",
"(.	c #BB5A00",
"_.	c #B56009",
":.	c #AAA998",
"<.	c #D8B566",
"[.	c #F1B13D",
"}.	c #F0B03D",
"|.	c #E3B357",
"1.	c #ACB1A6",
"2.	c #C26F16",
"3.	c #924300",
"4.	c #190D02",
"5.	c #AC9B84",
"6.	c #ECF2F7",
"7.	c #CEBF8D",
"8.	c #FEE192",
"9.	c #FEE298",
"0.	c #D3BF84",
"a.	c #ECF1EE",
"b.	c #B6AEA2",
"c.	c #100B08",
"d.	c #1D0E00",
"e.	c #5E2E00",
"f.	c #522800",
"g.	c #422100",
"h.	c #2E1600",
"i.	c #281300",
"j.	c #452200",
"k.	c #7C3C00",
"l.	c #8B4300",
"m.	c #914500",
"n.	c #7F3900",
"o.	c #676462",
"p.	c #E6F1FC",
"q.	c #F1F6F8",
"r.	c #D5D5AE",
"s.	c #FEEB7C",
"t.	c #FEEC7F",
"u.	c #D5D1A0",
"v.	c #EEF3F2",
"w.	c #F5FBFE",
"x.	c #757980",
"y.	c #6E3500",
"z.	c #8C4100",
"A.	c #7B3B00",
"B.	c #5A2B00",
"C.	c #2B1500",
"D.	c #120900",
"E.	c #412000",
"F.	c #4D2700",
"G.	c #522A00",
"H.	c #5A2E00",
"I.	c #221100",
"J.	c #6C3400",
"K.	c #803E00",
"L.	c #663100",
"M.	c #2A1300",
"N.	c #442202",
"O.	c #857C73",
"P.	c #E3E9EE",
"Q.	c #F0F3E2",
"R.	c #E9EEE4",
"S.	c #D7D696",
"T.	c #FBE641",
"U.	c #FEED41",
"V.	c #D7D381",
"W.	c #E6E9E4",
"X.	c #EDF1DD",
"Y.	c #EEF5F7",
"Z.	c #919090",
"`.	c #371D06",
" +	c #3B1B00",
".+	c #643000",
"++	c #7C3D00",
"@+	c #6F3800",
"#+	c #442200",
"$+	c #231300",
"%+	c #254681",
"&+	c #D7EEFE",
"*+	c #E7E9E6",
"=+	c #D8DABF",
"-+	c #EEF0D7",
";+	c #D2C07A",
">+	c #E7AF13",
",+	c #F2B50D",
"'+	c #D0B95E",
")+	c #E8EDDC",
"!+	c #DDE0C0",
"~+	c #DDE2E3",
"{+	c #E8F8FE",
"]+	c #3C5D8E",
"^+	c #000002",
"/+	c #0C1F42",
"(+	c #BDD8FC",
"_+	c #E9F2F9",
":+	c #C5CBC5",
"<+	c #D5D0B9",
"[+	c #E8E0C8",
"}+	c #D7D1B1",
"|+	c #F5E0A8",
"1+	c #FEE193",
"2+	c #D0BE87",
"3+	c #E2DEC9",
"4+	c #DCD5BB",
"5+	c #BCC8CF",
"6+	c #DBE9F8",
"7+	c #D5E9FE",
"8+	c #19315A",
"9+	c #061633",
"0+	c #96B8E7",
"a+	c #E7F2FE",
"b+	c #B5C6D1",
"c+	c #C4C8B9",
"d+	c #D8D8C0",
"e+	c #EBEDE0",
"f+	c #D8DCC8",
"g+	c #F8F0A3",
"h+	c #FEF6A3",
"i+	c #D3D1B6",
"j+	c #E4E4D8",
"k+	c #DDD6BD",
"l+	c #C6CABE",
"m+	c #A8C2DD",
"n+	c #DEECFC",
"o+	c #B1CCF0",
"p+	c #0D203F",
"q+	c #021130",
"r+	c #84ABE3",
"s+	c #EBF7FE",
"t+	c #A6C3E2",
"u+	c #B3C0BD",
"v+	c #C6CBBD",
"w+	c #DCE3D0",
"x+	c #E9EDE6",
"y+	c #D2D2AA",
"z+	c #F8ED78",
"A+	c #FEF175",
"B+	c #CFC893",
"C+	c #E4E8E3",
"D+	c #E0E1CA",
"E+	c #C9CABC",
"F+	c #B5C2C3",
"G+	c #9BBEE8",
"H+	c #E6F2FE",
"I+	c #A3C2EB",
"J+	c #0A1A36",
"K+	c #03122F",
"L+	c #7CA7E2",
"M+	c #9BBFEC",
"N+	c #9BB6C8",
"O+	c #AEC0CE",
"P+	c #B3C2CA",
"Q+	c #D3DBD1",
"R+	c #E4E8DE",
"S+	c #D5D68F",
"T+	c #FEFD56",
"U+	c #FEFD54",
"V+	c #D2CB78",
"W+	c #E2E4DB",
"X+	c #D0D5CE",
"Y+	c #B8C5CF",
"Z+	c #B8C5C5",
"`+	c #99B7D2",
" @	c #91BBEC",
".@	c #E6F5FE",
"+@	c #091B3B",
"@@	c #062051",
"#@	c #84AEE4",
"$@	c #E9F6FE",
"%@	c #9CBEE2",
"&@	c #8DAEC5",
"*@	c #A1B9CA",
"=@	c #A0BFE6",
"-@	c #AABBCE",
";@	c #B3BFCC",
">@	c #C6CED7",
",@	c #898E6F",
"'@	c #929036",
")@	c #8F8937",
"!@	c #757659",
"~@	c #C2C9D0",
"{@	c #B6BFCA",
"]@	c #B2C4D7",
"^@	c #A9BDC5",
"/@	c #8BAECE",
"(@	c #8EB6E7",
"_@	c #E4F2FE",
":@	c #9EC2EE",
"<@	c #0D264F",
"[@	c #102E62",
"}@	c #9CC4F5",
"|@	c #E6F3FD",
"1@	c #98B9D8",
"2@	c #78A3CB",
"3@	c #85AEDA",
"4@	c #8EB6E6",
"5@	c #9FC0E9",
"6@	c #AFBFD1",
"7@	c #AAB6C5",
"8@	c #B3BECC",
"9@	c #343B4D",
"0@	c #15131B",
"a@	c #16161C",
"b@	c #222836",
"c@	c #ACB6C4",
"d@	c #B6BEC6",
"e@	c #B3C6DB",
"f@	c #A2C2E9",
"g@	c #95B8E3",
"h@	c #8FB1D2",
"i@	c #7DA6CA",
"j@	c #87B0DC",
"k@	c #DCECFD",
"l@	c #B3D3F9",
"m@	c #1B3D72",
"n@	c #000003",
"o@	c #0B2C64",
"p@	c #A1CCFE",
"q@	c #D5E8FE",
"r@	c #7DA9D6",
"s@	c #6097D7",
"t@	c #6BA2E7",
"u@	c #7BACE8",
"v@	c #9EBFE8",
"w@	c #B3C5D8",
"x@	c #B5BDC0",
"y@	c #A2AEBD",
"z@	c #091023",
"A@	c #000005",
"B@	c #000006",
"C@	c #040811",
"D@	c #8F9EAF",
"E@	c #C5C8C5",
"F@	c #B3C8E1",
"G@	c #A2C2E7",
"H@	c #91B8E7",
"I@	c #80AFE8",
"J@	c #72A4E4",
"K@	c #699BD0",
"L@	c #6DA1DC",
"M@	c #C6E0FB",
"N@	c #B8DCFE",
"O@	c #143C7C",
"P@	c #00091D",
"Q@	c #4D8EE8",
"R@	c #D2E8FE",
"S@	c #5B99E7",
"T@	c #528ED2",
"U@	c #5D99E4",
"V@	c #6CA3E6",
"W@	c #7DACE6",
"X@	c #9EBFE7",
"Y@	c #B0C6E1",
"Z@	c #DBDAC4",
"`@	c #B6B9A7",
" #	c #685606",
".#	c #5C4B00",
"+#	c #5F4D00",
"@#	c #705700",
"##	c #B5B18B",
"$#	c #DCDBD0",
"%#	c #B0C8E6",
"&#	c #A2C0E6",
"*#	c #92B8E6",
"=#	c #81AFE6",
"-#	c #6FA4E7",
";#	c #659CE0",
">#	c #5792D3",
",#	c #4C91E9",
"'#	c #CBE3FC",
")#	c #6AA4F2",
"!#	c #000F2C",
"~#	c #042152",
"{#	c #7FB8FE",
"]#	c #96C0F2",
"^#	c #3882E0",
"/#	c #5A93D5",
"(#	c #5C98E7",
"_#	c #7CACE6",
":#	c #9FBFE6",
"<#	c #ACC6E7",
"[#	c #D3D7D5",
"}#	c #C6BE7C",
"|#	c #F2D200",
"1#	c #FEF100",
"2#	c #FEED00",
"3#	c #F8CB00",
"4#	c #C9B661",
"5#	c #CBD3E1",
"6#	c #B0C9E8",
"7#	c #6FA4E6",
"8#	c #629BE3",
"9#	c #5F97D5",
"0#	c #3782E4",
"a#	c #84B5F1",
"b#	c #92C5FE",
"c#	c #0A306C",
"d#	c #08285A",
"e#	c #79B5FE",
"f#	c #78ACEE",
"g#	c #3983E0",
"h#	c #5592DC",
"i#	c #5C99E7",
"j#	c #AEC8E8",
"k#	c #C0CFE8",
"l#	c #C2B24E",
"m#	c #FCEB00",
"n#	c #FEFE00",
"o#	c #FCDB00",
"p#	c #BC9B38",
"q#	c #BBCBE9",
"r#	c #B2CAE8",
"s#	c #5F9AE7",
"t#	c #5B96D8",
"u#	c #3C85E2",
"v#	c #68A3ED",
"w#	c #88BDFE",
"x#	c #0E3B80",
"y#	c #06204D",
"z#	c #579EFB",
"A#	c #79AFF0",
"B#	c #3681E4",
"C#	c #4D8FE6",
"D#	c #5D99E6",
"E#	c #B1CAE9",
"F#	c #ACC3E3",
"G#	c #755822",
"H#	c #6F6000",
"I#	c #818200",
"J#	c #787700",
"K#	c #755800",
"L#	c #553912",
"M#	c #96B0D6",
"N#	c #B9D0EB",
"O#	c #70A4E6",
"P#	c #609AE6",
"Q#	c #5192E6",
"R#	c #3984E4",
"S#	c #6DA6ED",
"T#	c #68A9FC",
"U#	c #092E67",
"V#	c #000818",
"W#	c #2C75DC",
"X#	c #75AFF3",
"Y#	c #458CE7",
"Z#	c #4B8FE6",
"`#	c #BCD5F2",
" $	c #6884AB",
".$	c #140901",
"+$	c #401B00",
"@$	c #0B0300",
"#$	c #160800",
"$$	c #3E1C00",
"%$	c #526C96",
"&$	c #C0D8F5",
"*$	c #4F91E6",
"=$	c #4189E6",
"-$	c #75ACF2",
";$	c #3984E9",
">$	c #02112A",
",$	c #0E3777",
"'$	c #4996FC",
")$	c #5296EB",
"!$	c #4B8EE6",
"~$	c #A4C4E9",
"{$	c #B0CEF5",
"]$	c #1F2E47",
"^$	c #3E2000",
"/$	c #101C31",
"($	c #A4C4ED",
"_$	c #ABCAEC",
":$	c #4E90E6",
"<$	c #5193E9",
"[$	c #519BFC",
"}$	c #144590",
"|$	c #000208",
"1$	c #164792",
"2$	c #3F8DF6",
"3$	c #5399F3",
"4$	c #609EEC",
"5$	c #6FA7EB",
"6$	c #83B2EC",
"7$	c #99C3F3",
"8$	c #A0C6F5",
"9$	c #466188",
"0$	c #000001",
"a$	c #314B74",
"b$	c #9ABFEE",
"c$	c #9EC5F5",
"d$	c #87B6EC",
"e$	c #74A9EB",
"f$	c #64A0EC",
"g$	c #569BF2",
"h$	c #4491F7",
"i$	c #1C54A8",
"j$	c #000510",
"k$	c #0A2248",
"l$	c #295BA2",
"m$	c #4780CF",
"n$	c #5C90D8",
"o$	c #608FCF",
"p$	c #4A6C9E",
"q$	c #162640",
"r$	c #0E1B30",
"s$	c #446493",
"t$	c #608ECB",
"u$	c #5E92D8",
"v$	c #4B83D1",
"w$	c #2E61AA",
"x$	c #0D2955",
"y$	c #000106",
"z$	c #00030A",
"A$	c #010815",
"B$	c #00040A",
"C$	c #000308",
"D$	c #00040C",
"                    . + @             # $ %                     ",
"                      & * =         - ; >                       ",
"                        , ' )     ! ~ {                         ",
"    # ]                   ^ /     ( _                   : <     ",
"    [ }                     | _ 1 /                   2 3 ]     ",
"      4 5               @ 6 7 8 9 0 a                 b c       ",
"      d e               f g h i j k l m             n o _       ",
"        p q - # @     % r s t u v w x y @       z n A B         ",
"        C D E F G H     I J K L M N O P     Q R S T U =         ",
"            @ _ V W D   X Y Z `  ...+.@.#.$.%.&.# @             ",
"                  *.=.-.;.>.,.'.).!.~.{.].^.#                   ",
"                    /.(._.:.<.[.}.|.1.2.3.#                     ",
"% %             <     4.5.6.7.8.9.0.a.b.c.                      ",
"d.e.f.g.h.i.j.k.l.m.n.o.p.q.r.s.t.u.v.w.x.y.z.A.B.C.D.E.F.G.H.D.",
"@ { I.j.J.K.L.~ M.N.O.P.Q.R.S.T.U.V.W.X.Y.Z.`. +.+++%.@+#+$+_ @ ",
"        @ @ @     %+&+*+=+-+;+>+,+'+)+!+~+{+]+^+  @ ] @         ",
"                /+(+_+:+<+[+}+|+1+2+3+4+5+6+7+8+                ",
"              9+0+a+b+c+d+e+f+g+h+i+j+k+l+m+n+o+p+              ",
"            q+r+s+t+u+v+w+x+y+z+A+B+C+D+E+F+G+H+I+J+            ",
"          K+L+s+M+N+O+P+Q+R+S+T+U+V+W+X+Y+Z+`+ @.@G++@          ",
"        @@#@$@%@&@*@=@-@;@>@,@'@)@!@~@{@]@t+^@/@(@_@:@<@        ",
"      [@}@|@1@2@3@4@5@6@7@8@9@0@a@b@c@d@e@f@g@h@i@j@k@l@m@n@    ",
"    o@p@q@r@s@t@u@4@v@w@x@y@z@A@B@C@D@E@F@G@H@I@J@K@L@M@N@O@@   ",
"  P@Q@R@S@T@U@V@W@4@X@Y@Z@`@ #.#+#@###$#%#&#*#=#-#;#>#,#'#)#!#  ",
"  ~#{#]#^#/#(#V@_#4@:#<#[#}#|#1#2#3#4#5#6#&#*#=#7#8#9#0#a#b#c#  ",
"  d#e#f#g#h#i#V@_#4@:#j#k#l#m#n#n#o#p#q#r#&#*#=#7#s#t#u#v#w#x#@ ",
"  y#z#A#B#C#D#V@_#4@:#E#F#G#H#I#J#K#L#M#N#&#*#=#O#P#Q#R#S#T#U#  ",
"  V#W#X#Y#Z#D#V@_#4@:#`# $.$+$@$#$$$@ %$&$&#*#=#O#P#*$=$-$;$>$  ",
"    ,$'$)$!$D#V@_#4@~${$]$  - ^$X 2   /$($_$*#=#O#P#:$<$[$}$@   ",
"    |$1$2$3$4$5$6$7$8$9$0$              a$b$c$d$e$f$g$h$i$j$    ",
"      n@k$l$m$n$o$p$q$n@                @ r$s$t$u$v$w$x$y$      ",
"          @ z$A$B$@                         @ C$A$D$@ @         "};
