/* XPM */
static char * cnrdelete_all_xpm[] = {
"32 32 445 2",
"  	c None",
". 	c #AF0000",
"+ 	c #B10000",
"@ 	c #B50000",
"# 	c #B60000",
"$ 	c #B30000",
"% 	c #800000",
"& 	c #990000",
"* 	c #3F0000",
"= 	c #AA0000",
"- 	c #B20000",
"; 	c #B90000",
"> 	c #C20606",
", 	c #CA1A1A",
"' 	c #D12929",
") 	c #D22B2B",
"! 	c #CB1919",
"~ 	c #BE0606",
"{ 	c #8A0000",
"] 	c #550000",
"^ 	c #000000",
"/ 	c #8C0000",
"( 	c #B80000",
"_ 	c #C50C0C",
": 	c #DC4747",
"< 	c #EF8383",
"[ 	c #F9AAAA",
"} 	c #FFBEBE",
"| 	c #FFC6C6",
"1 	c #FFC7C7",
"2 	c #FFC4C4",
"3 	c #FFBABA",
"4 	c #FCA5A5",
"5 	c #F37D7D",
"6 	c #E84343",
"7 	c #D20C0C",
"8 	c #A00000",
"9 	c #460000",
"0 	c #A20000",
"a 	c #C30707",
"b 	c #E55858",
"c 	c #FBA8A8",
"d 	c #FFC8C8",
"e 	c #FFCCCC",
"f 	c #FFC0C0",
"g 	c #FEACAC",
"h 	c #FB9C9C",
"i 	c #F99696",
"j 	c #FB9A9A",
"k 	c #FEA9A9",
"l 	c #FFB9B9",
"m 	c #FFC3C3",
"n 	c #FFBDBD",
"o 	c #FE9D9D",
"p 	c #F35151",
"q 	c #DA0707",
"r 	c #910000",
"s 	c #1C0000",
"t 	c #D62424",
"u 	c #F99393",
"v 	c #FFBBBB",
"w 	c #FFB3B3",
"x 	c #FB9898",
"y 	c #ED5D5D",
"z 	c #DD2B2B",
"A 	c #D00F0F",
"B 	c #C90404",
"C 	c #C60202",
"D 	c #C80404",
"E 	c #CD0F0F",
"F 	c #D82929",
"G 	c #E95757",
"H 	c #FA8F8F",
"I 	c #FFAAAA",
"J 	c #FFACAC",
"K 	c #FD8585",
"L 	c #EC2020",
"M 	c #B70000",
"N 	c #370000",
"O 	c #E43434",
"P 	c #FEA2A2",
"Q 	c #FFA8A8",
"R 	c #FF8181",
"S 	c #E40A0A",
"T 	c #C10000",
"U 	c #BB0000",
"V 	c #C50000",
"W 	c #C70000",
"X 	c #C60000",
"Y 	c #C30000",
"Z 	c #BD0000",
"` 	c #CA0000",
" .	c #EC5656",
"..	c #FF9999",
"+.	c #FF9B9B",
"@.	c #FF9090",
"#.	c #F12D2D",
"$.	c #350000",
"%.	c #770000",
"&.	c #E82929",
"*.	c #FE9A9A",
"=.	c #FF9E9E",
"-.	c #FF9797",
";.	c #FD5858",
">.	c #E60404",
",.	c #670000",
"'.	c #530000",
").	c #510000",
"!.	c #520000",
"~.	c #610000",
"{.	c #820000",
"].	c #DD1B1B",
"^.	c #F97474",
"/.	c #FF8A8A",
"(.	c #FF8787",
"_.	c #FF8B8B",
":.	c #FF8585",
"<.	c #F02323",
"[.	c #B40000",
"}.	c #120000",
"|.	c #410000",
"1.	c #D90D0D",
"2.	c #FB8181",
"3.	c #FF9494",
"4.	c #FD9090",
"5.	c #FC8E8E",
"6.	c #FF9292",
"7.	c #FF6666",
"8.	c #E40C0C",
"9.	c #440000",
"0.	c #DE2626",
"a.	c #FF7C7C",
"b.	c #FF8282",
"c.	c #FF7B7B",
"d.	c #FF7E7E",
"e.	c #FF7A7A",
"f.	c #FF7F7F",
"g.	c #FF6C6C",
"h.	c #EC0B0B",
"i.	c #830000",
"j.	c #9D0000",
"k.	c #F54F4F",
"l.	c #FF8E8E",
"m.	c #EB3232",
"n.	c #EC6C6C",
"o.	c #FC8585",
"p.	c #FF6F6F",
"q.	c #FE1A1A",
"r.	c #A40000",
"s.	c #EE3030",
"t.	c #FF7979",
"u.	c #FF7373",
"v.	c #FF7878",
"w.	c #F95454",
"x.	c #E42020",
"y.	c #FA6767",
"z.	c #FF7474",
"A.	c #FB3F3F",
"B.	c #D40000",
"C.	c #320000",
"D.	c #340000",
"E.	c #DB1010",
"F.	c #FE7474",
"G.	c #F63F3F",
"H.	c #D80000",
"I.	c #D30D0D",
"J.	c #E85959",
"K.	c #FB7B7B",
"L.	c #FF7777",
"M.	c #FF7D7D",
"N.	c #FF2A2A",
"O.	c #AE0000",
"P.	c #970000",
"Q.	c #FF3A3A",
"R.	c #FF7272",
"S.	c #FF6E6E",
"T.	c #FF7171",
"U.	c #F94949",
"V.	c #DC0505",
"W.	c #E83333",
"X.	c #FF5E5E",
"Y.	c #F10D0D",
"Z.	c #7D0000",
"`.	c #700000",
" +	c #F13333",
".+	c #E90E0E",
"++	c #CB0000",
"@+	c #D80404",
"#+	c #E84242",
"$+	c #FA6E6E",
"%+	c #FF7575",
"&+	c #FF3939",
"*+	c #FF4343",
"=+	c #FF6B6B",
"-+	c #FF6D6D",
";+	c #F73B3B",
">+	c #DE0101",
",+	c #D50000",
"'+	c #CD0000",
")+	c #D80C0C",
"!+	c #FB5050",
"~+	c #FF3838",
"{+	c #FA0707",
"]+	c #920000",
"^+	c #FA3030",
"/+	c #FD4B4B",
"(+	c #E90000",
"_+	c #890000",
":+	c #7C0000",
"<+	c #E30000",
"[+	c #E92D2D",
"}+	c #F95F5F",
"|+	c #FF6969",
"1+	c #F72F2F",
"2+	c #E10000",
"3+	c #9C0000",
"4+	c #F30F0F",
"5+	c #FF0202",
"6+	c #FE0000",
"7+	c #220000",
"8+	c #0E0000",
"9+	c #FB0000",
"0+	c #FF1717",
"a+	c #FB1D1D",
"b+	c #E20000",
"c+	c #3B0000",
"d+	c #6B0000",
"e+	c #E50000",
"f+	c #EB1B1B",
"g+	c #F74B4B",
"h+	c #FE6868",
"i+	c #FF6565",
"j+	c #F72222",
"k+	c #940000",
"l+	c #060000",
"m+	c #F40202",
"n+	c #FF0707",
"o+	c #130000",
"p+	c #FD0303",
"q+	c #FF0606",
"r+	c #FE0707",
"s+	c #D10000",
"t+	c #100000",
"u+	c #4A0000",
"v+	c #FA2626",
"w+	c #FF6A6A",
"x+	c #FF4A4A",
"y+	c #FA1818",
"z+	c #F40000",
"A+	c #7A0000",
"B+	c #FA0505",
"C+	c #FF0D0D",
"D+	c #E70000",
"E+	c #3D0000",
"F+	c #BA0000",
"G+	c #FC0505",
"H+	c #FF0F0F",
"I+	c #FF1010",
"J+	c #CC0000",
"K+	c #640000",
"L+	c #F31919",
"M+	c #FF5555",
"N+	c #FF5656",
"O+	c #FF5959",
"P+	c #FF5858",
"Q+	c #FF4F4F",
"R+	c #FF4949",
"S+	c #FF2929",
"T+	c #160000",
"U+	c #6C0000",
"V+	c #FF0909",
"W+	c #FF1313",
"X+	c #FF0A0A",
"Y+	c #E50101",
"Z+	c #170000",
"`+	c #F90606",
" @	c #FF1515",
".@	c #FF1919",
"+@	c #D90202",
"@@	c #A60000",
"#@	c #FF2424",
"$@	c #FF5353",
"%@	c #FF5757",
"&@	c #FF6262",
"*@	c #FF4141",
"=@	c #FF3232",
"-@	c #FF5F5F",
";@	c #FF5A5A",
">@	c #FF5454",
",@	c #FF5151",
"'@	c #FF3434",
")@	c #DE0303",
"!@	c #2D0000",
"~@	c #FF1212",
"{@	c #FE0E0E",
"]@	c #DE0000",
"^@	c #F50404",
"/@	c #FC1010",
"(@	c #2C0000",
"_@	c #FF0000",
":@	c #FE3131",
"<@	c #FF4646",
"[@	c #FF0505",
"}@	c #FF3131",
"|@	c #FF6767",
"1@	c #FF6464",
"2@	c #FF3F3F",
"3@	c #E90A0A",
"4@	c #BE0202",
"5@	c #FF2121",
"6@	c #FF1F1F",
"7@	c #FA0D0D",
"8@	c #290000",
"9@	c #790000",
"0@	c #EF0000",
"a@	c #FE1717",
"b@	c #FF2B2B",
"c@	c #FF2828",
"d@	c #BD0202",
"e@	c #FF3B3B",
"f@	c #FF7676",
"g@	c #CD0404",
"h@	c #E20C0C",
"i@	c #FF2D2D",
"j@	c #FF5D5D",
"k@	c #FF4545",
"l@	c #F90E0E",
"m@	c #FA1616",
"n@	c #FF3030",
"o@	c #FF2323",
"p@	c #F00606",
"q@	c #3E0000",
"r@	c #E40000",
"s@	c #F70A0A",
"t@	c #FF2E2E",
"u@	c #FF3E3E",
"v@	c #FF3D3D",
"w@	c #AE0606",
"x@	c #030000",
"y@	c #2C0202",
"z@	c #DD1111",
"A@	c #FF3636",
"B@	c #FD1B1B",
"C@	c #E60000",
"D@	c #8E0000",
"E@	c #F30000",
"F@	c #FE1D1D",
"G@	c #FF4242",
"H@	c #FF4C4C",
"I@	c #FF3535",
"J@	c #FF0E0E",
"K@	c #FF1414",
"L@	c #8D0B0B",
"M@	c #1B0303",
"N@	c #C61212",
"O@	c #FF5C5C",
"P@	c #FF5050",
"Q@	c #FF4747",
"R@	c #FF3333",
"S@	c #EE0505",
"T@	c #DF0000",
"U@	c #480000",
"V@	c #F70101",
"W@	c #FF2F2F",
"X@	c #F61616",
"Y@	c #640909",
"Z@	c #B30F0F",
"`@	c #FF1C1C",
" #	c #F70E0E",
".#	c #EC0000",
"+#	c #8F0000",
"@#	c #FD0000",
"##	c #FA0606",
"$#	c #FF6868",
"%#	c #FF4E4E",
"&#	c #A31717",
"*#	c #7F0000",
"=#	c #CC3333",
"-#	c #F02A2A",
";#	c #C12121",
">#	c #A01C1C",
",#	c #DA3C3C",
"'#	c #FF7070",
")#	c #FA1515",
"!#	c #D90000",
"~#	c #200000",
"{#	c #070000",
"]#	c #FD0808",
"^#	c #FF9D9D",
"/#	c #FF8D8D",
"(#	c #F87979",
"_#	c #F46D6D",
":#	c #FF9898",
"<#	c #FFA1A1",
"[#	c #F71414",
"}#	c #F50000",
"|#	c #F00000",
"1#	c #420000",
"2#	c #0B0000",
"3#	c #FF0808",
"4#	c #FF2C2C",
"5#	c #FFB0B0",
"6#	c #FFC9C9",
"7#	c #FFDCDC",
"8#	c #FFEAEA",
"9#	c #FFF2F2",
"0#	c #FFEFEF",
"a#	c #FFE3E3",
"b#	c #FFD5D5",
"c#	c #FFBFBF",
"d#	c #FFA0A0",
"e#	c #FD3636",
"f#	c #F80A0A",
"g#	c #470000",
"h#	c #F90303",
"i#	c #FF2525",
"j#	c #FF6161",
"k#	c #FFA6A6",
"l#	c #FFC1C1",
"m#	c #FFD1D1",
"n#	c #FFCACA",
"o#	c #FFB1B1",
"p#	c #C60101",
"q#	c #2F0000",
"r#	c #AE0C0C",
"s#	c #FA1F1F",
"t#	c #FF4040",
"u#	c #FF5B5B",
"v#	c #DB1A1A",
"w#	c #650606",
"x#	c #290505",
"y#	c #811818",
"z#	c #C72E2E",
"A#	c #EE4444",
"B#	c #F85252",
"C#	c #DB3E3E",
"D#	c #A12626",
"E#	c #4D0C0C",
"F#	c #120606",
"G#	c #331212",
"H#	c #401919",
"I#	c #572727",
"J#	c #491F1F",
"K#	c #3C1616",
"L#	c #220909",
"                                                                ",
"                      . + @ # # # $ % & *                       ",
"                  = - ; > , ' ) ' ! ~ @ { ] ^                   ",
"              / ( _ : < [ } | 1 2 3 4 5 6 7 8 9                 ",
"            0 a b c d e f g h i j k l m n o p q r s             ",
"        ^ = t u v w x y z A B C D E F G H I J K L M N           ",
"      ^ r O P J Q R S T U V W X X X Y Z `  ...+.@.#.V $.        ",
"      %.&.*.=.-.-.-.;.>.$ ,.'.).!.~.{.; ].^./.(._.:.<.[.}.      ",
"    |.1.2.3.4.5././.6.7.8.!.^ ^ ^ ^ 9.0.a.b.c.d.e.f.g.h.i.      ",
"    j.k.l.e.m.n.o.f.f.(.p.q.r     r.s.e.t.u.v.w.x.y.z.A.B.C.    ",
"  D.E.F.d.G.H.I.J.K.v.L.M.z.N.O.P.Q.v.R.S.T.U.V.` W.7.X.Y.Z.    ",
"  `. +z.7..+++= @+#+$+u.R.%+z.&+*+%+S.=+-+;+>+,+'+)+!+~+{+@ ^   ",
"^ ]+^+7./+(+_+^ :+<+[+}+S.p.p.u.T.=+=+|+1+2+<+3+] B.4+5+6+,+7+  ",
"8++ 9+0+a+b+c+^ ^ d+e+f+g+h+S.-+g.g.i+j+e+(+k+l+^ + m+n+5+b+C.  ",
"o+; p+q+r+s+t+    ^ u+2+v+|+-+=+w+i+x+y+z+A+^ ^   _+B+C+q+D+E+  ",
"o+F+G+H+I+J+l+      K+L+x+M+N+O+P+Q+R+x+S+= T+    U+V+W+X+Y+*   ",
"Z+M `+ @.@+@^     @@#@$@%@O+&@*@=@-@;@>@,@'@)@!@  Z.~@.@{@]@N   ",
"^ j.^@.@#@/@(@  _@:@;@X.i+p.<@r+[@}@|@1@;@N+2@3@'.4@5@6@7@s+8@  ",
"  9@0@a@b@c@U d@e@X.&@-+f@*+q+_@g@h@i@|+g.j@%@k@l@m@n@o@p@F+8+  ",
"  q@r@s@t@e@c@u@j@1@R.L.v@V+V+w@x@y@z@c@i+p.X.M+<@e@A@B@C@D@^   ",
"  ^ + E@F@G@H@P+&@R.u.I@J@K@L@^ ^   M@N@#@;@=+O@P@Q@R@S@T@q@^   ",
"    U@0@V@W@>@j@-+|@S+H+X@Y@^ ^       ^ Z@`@O@|@;@<@ #.#8 ^     ",
"    ^ +#@###v@$#%+R.%#=@&#T+Z+*#=#-#;#>#,#7.L.'#>@)#0@!#~#^     ",
"      {#$ _@]#Q.T.l.=.^#/#(#_#g.=+u.:.:#<#..b.$@[#}#|#1#^       ",
"        2#. _@3#4#X./#5#6#7#8#9#0#a#b#c#d#R.e#f#_@.#g#^         ",
"          ^ *#h#W+i#2@j#:.k#l#m#n#o#l.i+~+0+I+C+p#8@^ ^         ",
"            ^ q#r#s#=@t#%#u#-@j@>@R+v@'@n@b@v#w#x@^             ",
"              ^ ^ x#y#z#A#O+|+f@u.1@B#C#D#E#l+^ ^               ",
"                  ^ ^ ^ F#G#H#I#J#K#L#l+^ ^ ^                   ",
"                        ^ ^ ^ ^ ^ ^ ^ ^                         ",
"                                                                ",
"                                                                "};
