/* XPM */
static char * connect_established_xpm[] = {
"32 32 249 2",
"  	c None",
". 	c #808FD4",
"+ 	c #7987C9",
"@ 	c #717EBD",
"# 	c #8899DA",
"$ 	c #808ECD",
"% 	c #7380C0",
"& 	c #889AE2",
"* 	c #8C9DDC",
"= 	c #7B8ACD",
"- 	c #756EC0",
"; 	c #746DBF",
"> 	c #726CBE",
", 	c #899BE3",
"' 	c #99AAE3",
") 	c #7C8BCE",
"! 	c #746EC0",
"~ 	c #8C89CE",
"{ 	c #8380C8",
"] 	c #6E68B9",
"^ 	c #899CE4",
"/ 	c #A2B3E7",
"( 	c #7C8ACE",
"_ 	c #817CC6",
": 	c #BCBFEA",
"< 	c #DBE2FF",
"[ 	c #D1D7FB",
"} 	c #7F7CC4",
"| 	c #6864B4",
"1 	c #889BE3",
"2 	c #ADBFEE",
"3 	c #7677C4",
"4 	c #7C79C4",
"5 	c #6A65B6",
"6 	c #736DBF",
"7 	c #9E9BD6",
"8 	c #DCE0FB",
"9 	c #E0E5FF",
"0 	c #DCE2FF",
"a 	c #D9E0FF",
"b 	c #CFD5FA",
"c 	c #7A78C0",
"d 	c #6360B0",
"e 	c #8799E0",
"f 	c #7677C5",
"g 	c #8F94D3",
"h 	c #BAC9F3",
"i 	c #7873C2",
"j 	c #BEBDE6",
"k 	c #E8ECFF",
"l 	c #E4E9FF",
"m 	c #E1E6FF",
"n 	c #DDE3FF",
"o 	c #DAE1FF",
"p 	c #D6DEFF",
"q 	c #CCD3FA",
"r 	c #7575BC",
"s 	c #5E5CAB",
"t 	c #6460B1",
"u 	c #A1B2E8",
"v 	c #7672C1",
"w 	c #C0BFE6",
"x 	c #ECF0FF",
"y 	c #E9EDFF",
"z 	c #E6EAFF",
"A 	c #E2E7FF",
"B 	c #DFE4FF",
"C 	c #D7DFFF",
"D 	c #D4DCFF",
"E 	c #C9D1FA",
"F 	c #7171B9",
"G 	c #5857A6",
"H 	c #5A59A8",
"I 	c #706DBD",
"J 	c #C2C1E6",
"K 	c #F1F4FF",
"L 	c #EEF1FF",
"M 	c #EAEEFF",
"N 	c #E7EBFF",
"O 	c #E3E8FF",
"P 	c #D5DDFF",
"Q 	c #D2DAFF",
"R 	c #C7CFF9",
"S 	c #6C6DB5",
"T 	c #5454A2",
"U 	c #6E69BA",
"V 	c #AAA8D8",
"W 	c #F6F7FF",
"X 	c #F2F4FF",
"Y 	c #EFF2FF",
"Z 	c #EBEFFF",
"` 	c #D3DBFF",
" .	c #CFD8FF",
"..	c #C4CDF9",
"+.	c #6A6CB3",
"@.	c #6D68B9",
"#.	c #7E7AC1",
"$.	c #F1F2FB",
"%.	c #F7F8FF",
"&.	c #F3F5FF",
"*.	c #F0F3FF",
"=.	c #E5EAFF",
"-.	c #DEE4FF",
";.	c #DBE1FF",
">.	c #D0D9FF",
",.	c #CDD6FF",
"'.	c #8E8ED1",
").	c #6864B5",
"!.	c #6763B3",
"~.	c #6A66B6",
"{.	c #D0CEE8",
"].	c #FBFCFF",
"^.	c #F8F9FF",
"/.	c #F5F6FF",
"(.	c #F1F3FF",
"_.	c #E6EBFF",
":.	c #D1DAFF",
"<.	c #A2A5DF",
"[.	c #6863B4",
"}.	c #9B99CF",
"|.	c #6461B1",
"1.	c #625FAF",
"2.	c #8481C2",
"3.	c #FFFFFF",
"4.	c #FDFDFF",
"5.	c #F9FAFF",
"6.	c #DAE0FF",
"7.	c #ABAEE3",
"8.	c #BCBCE2",
"9.	c #BEBEE1",
"0.	c #605DAD",
"a.	c #6662B2",
"b.	c #9698D3",
"c.	c #FEFEFF",
"d.	c #FAFBFF",
"e.	c #ADB0E2",
"f.	c #B8B9E2",
"g.	c #EDF1FF",
"h.	c #F4F6FF",
"i.	c #BEBEDF",
"j.	c #5B5AA9",
"k.	c #5958A7",
"l.	c #635FAF",
"m.	c #979AD7",
"n.	c #D6DDFF",
"o.	c #F7F9FF",
"p.	c #B0B2E2",
"q.	c #6561B1",
"r.	c #B5B7E2",
"s.	c #BDBEDE",
"t.	c #5756A5",
"u.	c #5555A3",
"v.	c #5F5DAC",
"w.	c #9498D5",
"x.	c #F5F7FF",
"y.	c #B2B4E2",
"z.	c #6460B0",
"A.	c #B2B4E1",
"B.	c #BDBDDC",
"C.	c #5D5BAB",
"D.	c #6261AE",
"E.	c #B8BFEE",
"F.	c #D7DEFF",
"G.	c #E1E7FF",
"H.	c #F6F8FF",
"I.	c #B5B6E2",
"J.	c #AFB1E1",
"K.	c #BEBEDC",
"L.	c #5E5EAA",
"M.	c #BCC3EE",
"N.	c #B7B9E1",
"O.	c #ABAFE1",
"P.	c #BFBFDC",
"Q.	c #5D5DA8",
"R.	c #C2C7EE",
"S.	c #EDF0FF",
"T.	c #BABBE1",
"U.	c #615EAE",
"V.	c #A8ACE0",
"W.	c #7F7FB9",
"X.	c #C7CBEE",
"Y.	c #EAEDFF",
"Z.	c #C8C8E6",
"`.	c #A5A9E0",
" +	c #5D5EA8",
".+	c #CCCFEE",
"++	c #8583C1",
"@+	c #9B9FDA",
"#+	c #D1D9FF",
"$+	c #D8DFFF",
"%+	c #6969AE",
"&+	c #5E5EA8",
"*+	c #D1D4EE",
"=+	c #8281BF",
"-+	c #B3B9E9",
";+	c #D0D8FF",
">+	c #F2F5FF",
",+	c #5E5FA8",
"'+	c #6C6BB1",
")+	c #B2B8E9",
"!+	c #DCE3FF",
"~+	c #E7EAF9",
"{+	c #D0D1E8",
"]+	c #D4D4E8",
"^+	c #5656A4",
"/+	c #8386C6",
"(+	c #D9DCF3",
"_+	c #6869AE",
":+	c #9F9FCB",
"<+	c #5F5FA8",
"[+	c #5655A4",
"}+	c #5554A3",
"|+	c #8487C5",
"1+	c #E0E6FF",
"2+	c #D5DCFF",
"3+	c #E5E9FF",
"4+	c #8E8FC5",
"5+	c #C2C1DF",
"6+	c #8789C5",
"7+	c #E2E5F3",
"8+	c #F5F9FF",
"9+	c #A6A5D5",
"0+	c #838ACF",
"a+	c #8597DD",
"b+	c #898BC5",
"c+	c #ECEFFF",
"d+	c #7072B6",
"e+	c #989DD4",
"f+	c #6E6ABA",
"g+	c #9BA9DE",
"h+	c #9DAFE9",
"i+	c #8A9DE5",
"j+	c #8B8DC5",
"k+	c #CACAE2",
"l+	c #5C5BAA",
"m+	c #716BBD",
"n+	c #A4B6E9",
"o+	c #F4F4F9",
"p+	c #7B89CC",
"q+	c #94A5DF",
"r+	c #8697DE",
"s+	c #9D9DCB",
"t+	c #7886C8",
"u+	c #8493D4",
"v+	c #8495DB",
"w+	c #7582C3",
"x+	c #8897D4",
"y+	c #7985C1",
"z+	c #7886C7",
"        . + @                                                   ",
"        # $ %                                                   ",
"      & * =           - ; >                                     ",
"      , ' )         ! ; ~ { ]                                   ",
"      ^ / (     - ; _ : < [ } |                                 ",
"      1 2 3 4 5 6 7 8 9 0 a b c d                               ",
"      e f g h i j k l m n o p q r s                             ",
"        t u v w x y z A B < C D E F G                           ",
"        H I J K L M N O 9 0 a P Q R S T                         ",
"        U V W X Y Z k l m n o p `  ...+.T                       ",
"      @.#.$.%.&.*.x y =.A -.;.C D >.,.'.).!.                    ",
"      ~.{.].^./.(.L M _.O 9 0 a P :.<.[.}.|.1.                  ",
"    ).2.3.4.5.W X Y Z k l m n 6.p 7.!.8.X 9.0.s                 ",
"    a.b.%.c.d.%.&.*.x y =.A -.;.e.a.f.g.(.h.i.j.k.              ",
"    l.m.n.o.].^.h.(.g.M _.O 9 p.q.r.y x *.&.%.s.t.u.            ",
"    v.w.>.0 %.5.x.X Y Z k l y.z.A.l k Z Y X W 5.B.T T           ",
"    C.D.E.F.G.H.%.&.*.x y I.d J.9 O N M L (./.^.].K.T T         ",
"      G L.M.n N x.h.(.g.N.1.O.< B A z y x *.&.%.d.c.P.T T       ",
"        T Q.R.O S.H.X T.U.V.p o n m l k Z Y X W 5.4.3.W.T       ",
"          T Q.X.Y.&.Z.0.`.Q P a 0 9 O N M L K /.^.].3.W.T       ",
"            T  +.+*.++@+,.#+D $+< B A z y x *.&.%.].3.%+T       ",
"              T &+*+=+-+,.;+` p o n m l k Z Y >+W c.P.T         ",
"                T ,+'+)+P  .Q P a !+9 O N M L ~+{+]+%+T         ",
"                  T ^+/+P ;.Q D $+< B A z y (+_+:+<+[+          ",
"                    }+T |+0 1+2+F.o -.m 3+k 4+P.3.5+d           ",
"                      T T 6+A _.F.a !+1+N d.W.7+8+9+0+a+        ",
"                        T T b+k c+o -.Y 3.3.:+d+e+f+g+h+i+      ",
"                          T T j+Y X d.3.3.k+<+l+5 m+) n+&       ",
"                            T T 4+H.3.o+:+T T       p+q+r+      ",
"                              T T s+k+%+T T         t+u+v+      ",
"                                T T T T             w+x+        ",
"                                                    y+z+        "};
