/* XPM */
static char * connect_no_xpm[] = {
"32 32 208 2",
"  	c None",
". 	c #7A88CB",
"+ 	c #828EC9",
"@ 	c #6E79B7",
"# 	c #8191D6",
"$ 	c #8897D4",
"% 	c #7581C2",
"& 	c #8293D8",
"* 	c #8796D3",
"= 	c #7683C4",
"- 	c #889AE2",
"; 	c #98A8E4",
"> 	c #7C8BCF",
", 	c #756EC0",
"' 	c #746DBF",
") 	c #726CBE",
"! 	c #899BE3",
"~ 	c #9FB0E7",
"{ 	c #7E8DD1",
"] 	c #746EC0",
"^ 	c #736DBF",
"/ 	c #8A85CA",
"( 	c #7671C0",
"_ 	c #6E69BA",
": 	c #899CE3",
"< 	c #A7B9EA",
"[ 	c #7E8DD0",
"} 	c #7974C2",
"| 	c #B9BAE6",
"1 	c #DDE3FF",
"2 	c #C4C9F2",
"3 	c #726EBC",
"4 	c #6A65B6",
"5 	c #C0D2F8",
"6 	c #7C8ACD",
"7 	c #6F69BB",
"8 	c #6763B4",
"9 	c #746DC0",
"0 	c #9693D2",
"a 	c #DCE0FB",
"b 	c #DEE4FF",
"c 	c #DBE2FF",
"d 	c #D8DFFF",
"e 	c #C2C7F1",
"f 	c #6E6BB8",
"g 	c #6562B2",
"h 	c #889AE1",
"i 	c #91A2E0",
"j 	c #807DC8",
"k 	c #8E90D0",
"l 	c #9BA3DA",
"m 	c #7470BE",
"n 	c #7A74C2",
"o 	c #BBBBE6",
"p 	c #E5EAFF",
"q 	c #E2E7FF",
"r 	c #DFE5FF",
"s 	c #DCE2FF",
"t 	c #D9E0FF",
"u 	c #D6DEFF",
"v 	c #BFC5F0",
"w 	c #6A67B5",
"x 	c #615EAE",
"y 	c #706DBD",
"z 	c #878BCD",
"A 	c #C5DCFF",
"B 	c #8788CE",
"C 	c #817CC5",
"D 	c #D4D6F3",
"E 	c #E9EDFF",
"F 	c #E6EAFF",
"G 	c #E3E8FF",
"H 	c #E0E6FF",
"I 	c #DAE1FF",
"J 	c #D7DFFF",
"K 	c #D5DCFF",
"L 	c #BDC3F0",
"M 	c #6664B1",
"N 	c #5D5BAA",
"O 	c #6360B0",
"P 	c #909FDB",
"Q 	c #8C92D6",
"R 	c #8984C9",
"S 	c #E7EAFB",
"T 	c #ECF0FF",
"U 	c #EAEDFF",
"V 	c #E7EBFF",
"W 	c #E4E9FF",
"X 	c #E1E6FF",
"Y 	c #D6DDFF",
"Z 	c #D3DBFF",
"` 	c #BAC1EF",
" .	c #6261AD",
"..	c #5857A6",
"+.	c #6666B4",
"@.	c #7872BF",
"#.	c #E3E4F6",
"$.	c #F0F3FF",
"%.	c #EDF1FF",
"&.	c #EBEEFF",
"*.	c #E8ECFF",
"=.	c #D4DBFF",
"-.	c #D1D9FF",
";.	c #B8BFEE",
">.	c #5D5EA9",
",.	c #5554A3",
"'.	c #6864B5",
").	c #D5D4EE",
"!.	c #F4F6FF",
"~.	c #F1F4FF",
"{.	c #EEF1FF",
"].	c #EBEFFF",
"^.	c #D2DAFF",
"/.	c #CFD7FF",
"(.	c #B6BDEE",
"_.	c #5B5CA8",
":.	c #5454A2",
"<.	c #6D68B9",
"[.	c #B3B1DC",
"}.	c #F8F9FF",
"|.	c #F5F7FF",
"1.	c #F2F4FF",
"2.	c #EFF2FF",
"3.	c #D2DBFF",
"4.	c #D0D8FF",
"5.	c #CDD6FF",
"6.	c #B4BCEE",
"7.	c #5F5FA8",
"8.	c #6C67B8",
"9.	c #7D79C0",
"0.	c #FCFCFF",
"a.	c #F9FAFF",
"b.	c #F6F8FF",
"c.	c #F3F5FF",
"d.	c #CED7FF",
"e.	c #ECEFFF",
"f.	c #7F7FB9",
"g.	c #6965B6",
"h.	c #D9D8ED",
"i.	c #FDFDFF",
"j.	c #FAFBFF",
"k.	c #F7F9FF",
"l.	c #D4DCFF",
"m.	c #D1DAFF",
"n.	c #EDF0FF",
"o.	c #FFFFFF",
"p.	c #6864B4",
"q.	c #8480C2",
"r.	c #FEFEFF",
"s.	c #FBFCFF",
"t.	c #D5DDFF",
"u.	c #EED2AF",
"v.	c #FFD28F",
"w.	c #6662B2",
"x.	c #A3A4D8",
"y.	c #FCFDFF",
"z.	c #F0CC9F",
"A.	c #FF9900",
"B.	c #EAAA54",
"C.	c #989BD7",
"D.	c #DBE1FF",
"E.	c #F7F8FF",
"F.	c #FFB930",
"G.	c #FFEC7C",
"H.	c #FF9F0A",
"I.	c #E38E1B",
"J.	c #605EAD",
"K.	c #9599D6",
"L.	c #D0D9FF",
"M.	c #FFAC30",
"N.	c #5E5CAB",
"O.	c #7E80C4",
"P.	c #BFB9CC",
"Q.	c #DF8C1E",
"R.	c #5C5AA9",
"S.	c #5A58A7",
"T.	c #8487C7",
"U.	c #F6F7FF",
"V.	c #BFBFDC",
"W.	c #695D8E",
"X.	c #5757A5",
"Y.	c #5655A3",
"Z.	c #8487C5",
"`.	c #E0E5FF",
" +	c #8688C5",
".+	c #F9D49F",
"++	c #FFBF60",
"@+	c #FFE673",
"#+	c #FFAC1D",
"$+	c #878AC5",
"%+	c #EAEEFF",
"&+	c #F2F5FF",
"*+	c #F8FAFF",
"=+	c #FADBAF",
"-+	c #FFCC4D",
";+	c #CA8333",
">+	c #655B92",
",+	c #898BC5",
"'+	c #FFCC80",
")+	c #8B8DC5",
"!+	c #FFF9EF",
"~+	c #EA9724",
"{+	c #8D8EC5",
"]+	c #E8EAF9",
"^+	c #9494C5",
"/+	c #5F5898",
"(+	c #E89016",
"_+	c #7272B3",
"            . + @                                               ",
"          # $ %                                                 ",
"          & * =                                                 ",
"        - ; >               , ' )                               ",
"        ! ~ {             ] ^ / ( _                             ",
"        : < [         ] ' } | 1 2 3 4                           ",
"        ! 5 6 , 7 8 9 ^ 0 a b c d e f g                         ",
"        h i j k l m n o p q r s t u v w x                       ",
"          y z A B C D E F G H 1 I J K L M N                     ",
"          O P Q R S T U V W X b c d Y Z `  ...                  ",
"          ..+.@.#.$.%.&.*.p q r s t u =.-.;.>.,.                ",
"          '._ ).!.~.{.].E F G H 1 I J K ^./.(._.:.              ",
"          <.[.}.|.1.2.T U V W X b c d Y 3.4.5.6.7.:.            ",
"        8.9.0.a.b.c.$.%.&.*.p q r s t u Z -.d.e.f.:.            ",
"      4 g.h.i.j.k.!.~.{.].E F G H 1 I J l.m.n.o.f.:.            ",
"      p.q.o.r.s.}.|.1.2.T U V W X b c d t.u.v.o.f.:.            ",
"      w.x.y.o.0.a.b.c.$.%.&.*.p q r s t z.A.A.B.:.:.            ",
"      O C.D.}.i.j.E.!.~.{.].E F G H 1 ~.A.F.G.H.I.              ",
"      J.K.L.I }.s.}.|.1.2.T U V W X c.o.M.H.G.G.H.A.            ",
"      N.O.d.Y r k.a.b.c.$.%.&.*.p !.o.o.P.Q.H.G.G.H.A.          ",
"      R.S.T.Z D.W E.E.!.~.{.].E U.o.o.V.:.W.A.H.G.G.H.A.        ",
"        X.Y.Z.d `.E E.|.1.2.T k.o.o.V.:.:.  A.A.H.G.G.H.A.      ",
"            :. +1 p {.b.c.$..+A.++V.:.:.      A.A.H.@+#+A.      ",
"              :.$+G %+&+*+=+A.-+H.;+>+          A.A.A.A.A.      ",
"                :.,+*.2.k.'+H.G.G.H.A.A.          A.A.A.        ",
"                  :.)+n.!.!+~+H.G.G.H.A.A.                      ",
"                    :.{+]+^+/+(+H.G.G.H.A.A.                    ",
"                      :._+:.:.A.A.H.G.G.H.A.A.                  ",
"                        :.:.    A.A.H.G.@+A.A.                  ",
"                                  A.A.H.#+A.A.                  ",
"                                    A.A.A.A.                    ",
"                                                                "};
