/* XPM */
static char * database_xpm[] = {
"32 32 358 2",
"  	c None",
". 	c #1F1F3F",
"+ 	c #585868",
"@ 	c #747484",
"# 	c #8E8E9B",
"$ 	c #95959F",
"% 	c #A0A0AA",
"& 	c #9898A4",
"* 	c #9595A2",
"= 	c #828290",
"- 	c #5C5C6E",
"; 	c #47475B",
"> 	c #45455A",
", 	c #7B7B8B",
"' 	c #B9B9C2",
") 	c #E4E4E7",
"! 	c #F7F7F8",
"~ 	c #FDFDFD",
"{ 	c #FFFFFF",
"] 	c #F0F0F3",
"^ 	c #CFCFD5",
"/ 	c #9696A1",
"( 	c #555567",
"_ 	c #00003F",
": 	c #353550",
"< 	c #6F6F7E",
"[ 	c #C6C6CE",
"} 	c #EEEEF2",
"| 	c #F1F1F4",
"1 	c #EDEDF0",
"2 	c #ECECEF",
"3 	c #EFEFF1",
"4 	c #F0F0F2",
"5 	c #F1F1F3",
"6 	c #F2F2F4",
"7 	c #F6F6F7",
"8 	c #FBFBFC",
"9 	c #FEFEFF",
"0 	c #E7E7EA",
"a 	c #9494A1",
"b 	c #464656",
"c 	c #3F3F55",
"d 	c #878795",
"e 	c #D8D8DF",
"f 	c #DCDCE3",
"g 	c #DADAE0",
"h 	c #DEDEE3",
"i 	c #E1E1E6",
"j 	c #E4E4E9",
"k 	c #E8E8EC",
"l 	c #EAEAED",
"m 	c #EBEBEE",
"n 	c #EEEEF1",
"o 	c #EEEEF0",
"p 	c #F4F4F6",
"q 	c #FAFAFC",
"r 	c #BBBBC4",
"s 	c #4E4E62",
"t 	c #3A3A4E",
"u 	c #767686",
"v 	c #CCCCD5",
"w 	c #C8C8D1",
"x 	c #CBCBD3",
"y 	c #D3D3DA",
"z 	c #DFDFE4",
"A 	c #E2E2E7",
"B 	c #E5E5E9",
"C 	c #E9E9ED",
"D 	c #E6E6EB",
"E 	c #E7E7EC",
"F 	c #A6A6B2",
"G 	c #454557",
"H 	c #3E3E4C",
"I 	c #B0B0BC",
"J 	c #BDBDC8",
"K 	c #C2C2CD",
"L 	c #D2D2D9",
"M 	c #E7E7EB",
"N 	c #D9D9E0",
"O 	c #D1D1D8",
"P 	c #C7C7D0",
"Q 	c #BBBBC6",
"R 	c #BFBFCA",
"S 	c #6D6D7D",
"T 	c #00002A",
"U 	c #595968",
"V 	c #B4B4C1",
"W 	c #B9B9C4",
"X 	c #C4C4CE",
"Y 	c #CDCDD5",
"Z 	c #D5D5DC",
"` 	c #DBDBE1",
" .	c #E0E0E5",
"..	c #E4E4E8",
"+.	c #EAEAEE",
"@.	c #CECED6",
"#.	c #C6C6CF",
"$.	c #BCBCC7",
"%.	c #B6B6C2",
"&.	c #8C8C9B",
"*.	c #05050B",
"=.	c #000000",
"-.	c #626272",
";.	c #B3B3BF",
">.	c #D0D0D8",
",.	c #D9D9DF",
"'.	c #E0E0E4",
").	c #E9E9EC",
"!.	c #E6E6EA",
"~.	c #CACAD2",
"{.	c #BEBEC8",
"].	c #B5B5C1",
"^.	c #8E8E9D",
"/.	c #0C0C11",
"(.	c #ACACB9",
"_.	c #BEBEC9",
":.	c #D4D4DC",
"<.	c #F3F3F4",
"[.	c #EFEFF2",
"}.	c #EBEBEF",
"|.	c #D7D7DE",
"1.	c #C0C0CA",
"2.	c #B7B7C3",
"3.	c #858595",
"4.	c #18181C",
"5.	c #9595A0",
"6.	c #9393A2",
"7.	c #CDCDD4",
"8.	c #F5F5F6",
"9.	c #F4F4F5",
"0.	c #D0D0D7",
"a.	c #A7A7B4",
"b.	c #8C8C9C",
"c.	c #333336",
"d.	c #AAAAAF",
"e.	c #9E9EAC",
"f.	c #A4A4B1",
"g.	c #D4D4DB",
"h.	c #DCDCE2",
"i.	c #F9F9FA",
"j.	c #FBFBFB",
"k.	c #FAFAFA",
"l.	c #D6D6DD",
"m.	c #BFBFC9",
"n.	c #B8B8C3",
"o.	c #27272B",
"p.	c #62626A",
"q.	c #E0E0E8",
"r.	c #9A9AA8",
"s.	c #B2B2BD",
"t.	c #FCFCFC",
"u.	c #FAFAFB",
"v.	c #9696A4",
"w.	c #B9B9C5",
"x.	c #A4A4AE",
"y.	c #3F3F4F",
"z.	c #D5D5DD",
"A.	c #B1B1BD",
"B.	c #B6B6C1",
"C.	c #D6D6DC",
"D.	c #FEFEFE",
"E.	c #C1C1CB",
"F.	c #ABABB7",
"G.	c #BDBDC7",
"H.	c #C9C9D3",
"I.	c #6F6F80",
"J.	c #040408",
"K.	c #4C4C5D",
"L.	c #7F7F90",
"M.	c #B5B5C0",
"N.	c #ACACB8",
"O.	c #CECED5",
"P.	c #F6F6F8",
"Q.	c #F7F7F9",
"R.	c #D7D7DD",
"S.	c #C4C4CD",
"T.	c #B0B0BD",
"U.	c #8D8D9C",
"V.	c #666679",
"W.	c #0C0C10",
"X.	c #6C6C7C",
"Y.	c #838395",
"Z.	c #7D7D8F",
"`.	c #9F9FAC",
" +	c #A9A9B6",
".+	c #9797A7",
"++	c #8B8B9B",
"@+	c #858596",
"#+	c #858594",
"$+	c #828291",
"%+	c #767685",
"&+	c #7E7E8D",
"*+	c #898997",
"=+	c #9191A1",
"-+	c #9A9AA9",
";+	c #A8A8B5",
">+	c #848494",
",+	c #808092",
"'+	c #777789",
")+	c #1F1F23",
"!+	c #9D9DA7",
"~+	c #868697",
"{+	c #9D9DAC",
"]+	c #9898A7",
"^+	c #8A8A9A",
"/+	c #636376",
"(+	c #3B3B4E",
"_+	c #454559",
":+	c #616174",
"<+	c #79798B",
"[+	c #8C8C9D",
"}+	c #9B9BAA",
"|+	c #9E9EAD",
"1+	c #848495",
"2+	c #9292A1",
"3+	c #8F8F9F",
"4+	c #363636",
"5+	c #A3A3A7",
"6+	c #AAAAB6",
"7+	c #A5A5B2",
"8+	c #9797A6",
"9+	c #9595A5",
"0+	c #9494A4",
"a+	c #8E8E9E",
"b+	c #838393",
"c+	c #757586",
"d+	c #666678",
"e+	c #818191",
"f+	c #8D8D9D",
"g+	c #9494A3",
"h+	c #9696A5",
"i+	c #9C9CAA",
"j+	c #AAAAB7",
"k+	c #BCBCC5",
"l+	c #212121",
"m+	c #5E5E68",
"n+	c #E3E3E9",
"o+	c #A5A5B1",
"p+	c #CCCCD4",
"q+	c #B4B4C0",
"r+	c #AEAEBA",
"s+	c #ABABB8",
"t+	c #BBBBC5",
"u+	c #BABAC5",
"v+	c #C2C2CC",
"w+	c #9D9DA9",
"x+	c #000005",
"y+	c #404050",
"z+	c #B7B7C2",
"A+	c #E3E3E8",
"B+	c #E3E3E7",
"C+	c #E5E5EA",
"D+	c #D8D8DE",
"E+	c #C1C1CC",
"F+	c #6D6D7F",
"G+	c #07070B",
"H+	c #525263",
"I+	c #7B7B8D",
"J+	c #C2C2CB",
"K+	c #D5D5DB",
"L+	c #E2E2E6",
"M+	c #AEAEBB",
"N+	c #B2B2BE",
"O+	c #66667A",
"P+	c #0E0E12",
"Q+	c #080808",
"R+	c #7C7C88",
"S+	c #888898",
"T+	c #7E7E8F",
"U+	c #777788",
"V+	c #686879",
"W+	c #6C6C7D",
"X+	c #7A7A8B",
"Y+	c #9999A9",
"Z+	c #A1A1AE",
"`+	c #808091",
" @	c #828293",
".@	c #7C7C8C",
"+@	c #2A2A2D",
"@@	c #A8A8AF",
"#@	c #898999",
"$@	c #8A8A9B",
"%@	c #656578",
"&@	c #505064",
"*@	c #3B3B4F",
"=@	c #646476",
"-@	c #7B7B8C",
";@	c #9999A8",
">@	c #A6A6B3",
",@	c #333333",
"'@	c #828287",
")@	c #CECED8",
"!@	c #AFAFBB",
"~@	c #9F9FAD",
"{@	c #9393A3",
"]@	c #9292A2",
"^@	c #9B9BA9",
"/@	c #B7B7C0",
"(@	c #0B0B0E",
"_@	c #1C1C1E",
":@	c #CFCFD7",
"<@	c #AFAFBC",
"[@	c #C8C8D0",
"}@	c #D6D6E0",
"|@	c #5A5A5E",
"1@	c #434347",
"2@	c #CFCFD8",
"3@	c #CACAD4",
"4@	c #B3B3BE",
"5@	c #D0D0DB",
"6@	c #7A7A83",
"7@	c #343437",
"8@	c #A7A7B0",
"9@	c #C2C2CE",
"0@	c #A9A9B5",
"a@	c #B3B3BD",
"b@	c #BCBCC4",
"c@	c #B8B8C2",
"d@	c #B7B7C1",
"e@	c #B2B2BC",
"f@	c #BDBDC9",
"g@	c #626269",
"h@	c #000001",
"i@	c #09090B",
"j@	c #56565E",
"k@	c #91919D",
"l@	c #9F9FAE",
"m@	c #9090A2",
"n@	c #7B7B8F",
"o@	c #69697C",
"p@	c #56566A",
"q@	c #434357",
"r@	c #4E4E61",
"s@	c #68687B",
"t@	c #7E7E90",
"u@	c #9292A4",
"v@	c #A3A3B3",
"w@	c #A0A0AE",
"x@	c #74747D",
"y@	c #242427",
"z@	c #040406",
"A@	c #2A2A2F",
"B@	c #494953",
"C@	c #585866",
"D@	c #595969",
"E@	c #505061",
"F@	c #414153",
"G@	c #4A4A5B",
"H@	c #5B5B6C",
"I@	c #61616F",
"J@	c #575761",
"K@	c #3A3A40",
"L@	c #131316",
"M@	c #010102",
"N@	c #030305",
"O@	c #030306",
"P@	c #050506",
"Q@	c #020204",
"                    . + @ # $ % & * = - ;                       ",
"                > , ' ) ! ~ { { { { ~ ] ^ / ( _                 ",
"            : < [ } | 1 2 1 3 4 5 6 6 7 8 9 0 a b               ",
"          c d e f g h i j k l m 1 1 n o n n p q r s             ",
"        t u v w x y g z A B k C m m 2 2 2 m C D E F G           ",
"        H I J K x L e h A B k l m m l M i N O P Q R S T         ",
"        U V W X Y Z `  ...k +.2 2 C B  .` Z @.#.$.%.&.*.        ",
"      =.-.;.Q P >.,.'.B ).2 3 3 n 2 C !.i ` y ~.{.].^./.        ",
"      =.S (._.~.:.h B +.n 5 6 <.<.5 [.}.!. .|.Y 1.2.3.4.        ",
"      =.5.6.X 7.,.i C 3 <.8.! ! ! 7 9.4 m ..` 0.#.a.b.c.        ",
"      =.d.e.f.g.h.B 1 6 7 i.j.8 8 k.! 9.3 M h l.m.3.n.o.        ",
"        p.q.r.s.h.m 5 8.i.t.~ ~ ~ t.u.7 6 2 A #.v.w.x.=.        ",
"      =.y.R z.A.B.C.o i.D.{ { { { { 9 u.6  .E.F.G.H.I.J.        ",
"      =.K.L.B.w M.N.n.O. .n P.Q.! | !.R.S.;.T.{.J U.V.W.        ",
"      =.X.Y.Z.`.;. +.+++@+#+$+%+&+*+U.=+-+;+;. +>+,+'+)+        ",
"      =.!+~+{+~+b.r.]+^+'+/+s (+_+:+<+[+}+|+6.1+2+3+2+4+        ",
"      =.5+6+v.n.7+8+9+0+a+b+c+d+I.e+f+g+h+9+i+I j+>+k+l+        ",
"      =.m+n+o+F.Y p+m.q+r+s+s+(.s+j+N.A.t+w @.u+]+v+w+x+        ",
"      =.y+;.|.z+;.@...m k A+B+A B+A C++.M D+G.r+v+E+F+G+        ",
"      =.H+I+j+P z+j+I J+K+L+l ] 2 !.` p+t+M+N+m.B.@+O+P+        ",
"  =.=.Q+R+,+,+v.M+ +.+S+T+U+I.V+W+X+>+f+Y+;+A.Z+`+ @.@+@=.=.    ",
"=.=.=.=.@@#@-+3+$@h+8+b.<+%@&@*@; =@-@a+-+-+3+S+;@e+>@,@=.=.=.  ",
"=.=.=.=.'@)@&.I !@~@;@]+{@++L.c+X+#@]@8+]+}+>@;.8+^@/@(@=.=.=.=.",
"=.=.=.=._@>.w >@m.:@x 1.n.;.I <@<@A.q+t+#.:@[@N.F.}@|@=.=.=.=.=.",
"=.=.=.=.=.1@2@3@A.W >.i M C M !.!.k M A+D+S.4@w.5@6@=.=.=.=.=.=.",
"=.=.=.=.=.=.7@8@9@(.e.~@0@a@/@b@c@d@e@ +f.j+f@w.g@h@=.=.=.=.=.=.",
"=.=.=.=.=.=.=.i@j@k@l@m@n@o@p@q@r@s@t@u@v@w@x@y@=.=.=.=.=.=.=.  ",
"  =.=.=.=.=.=.=.=.z@A@B@C@D@E@F@G@H@I@J@K@L@=.=.=.=.=.=.=.=.=.  ",
"    =.=.=.=.=.=.=.=.=.=.=.M@N@O@P@Q@=.=.=.=.=.=.=.=.=.=.=.=.    ",
"      =.=.=.=.=.=.=.=.=.=.=.=.=.=.=.=.=.=.=.=.=.=.=.=.=.=.      ",
"          =.=.=.=.=.=.=.=.=.=.=.=.=.=.=.=.=.=.=.=.=.            ",
"                  =.=.=.=.=.=.=.=.=.=.=.=.=.=.                  "};
