/* XPM */
static char * db_comit_xpm[] = {
"32 32 314 2",
"  	c None",
". 	c #9A9A9A",
"+ 	c #9C9C9C",
"@ 	c #A8A8A8",
"# 	c #888888",
"$ 	c #AEAEAE",
"% 	c #A2A2A2",
"& 	c #A5A5A5",
"* 	c #B2B2B2",
"= 	c #BEBEBE",
"- 	c #CECECE",
"; 	c #DBDBDB",
"> 	c #E5E5E5",
", 	c #E3E3E3",
"' 	c #E4E4E4",
") 	c #DADADA",
"! 	c #CCCCCC",
"~ 	c #BDBDBD",
"{ 	c #AFAFAF",
"] 	c #D5D5D5",
"^ 	c #EAEAEA",
"/ 	c #F9F9F9",
"( 	c #FDFDFD",
"_ 	c #FCFCFC",
": 	c #F5F5F5",
"< 	c #E2E2E2",
"[ 	c #CDCDCD",
"} 	c #C6C6C6",
"| 	c #E1E1E1",
"1 	c #F2F2F2",
"2 	c #F3F3F3",
"3 	c #F0F0F0",
"4 	c #F1F1F1",
"5 	c #EDEDED",
"6 	c #D7D7D7",
"7 	c #D9D9D9",
"8 	c #E8E8E8",
"9 	c #E7E7E7",
"0 	c #E6E6E6",
"a 	c #D2D2D2",
"b 	c #DDDDDD",
"c 	c #DCDCDC",
"d 	c #DEDEDE",
"e 	c #C8C8C8",
"f 	c #C3C3C3",
"g 	c #D4D4D4",
"h 	c #D1D1D1",
"i 	c #BABABA",
"j 	c #B0B0B0",
"k 	c #B8B8B8",
"l 	c #C4C4C4",
"m 	c #C5C5C5",
"n 	c #C9C9C9",
"o 	c #ADADAD",
"p 	c #A0A0A0",
"q 	c #909090",
"r 	c #A4A4A4",
"s 	c #A9A9A9",
"t 	c #B1B1B1",
"u 	c #B4B4B4",
"v 	c #BBBBBB",
"w 	c #CBCBCB",
"x 	c #C7C7C7",
"y 	c #C1C1C1",
"z 	c #B9B9B9",
"A 	c #AAAAAA",
"B 	c #9D9D9D",
"C 	c #535353",
"D 	c #A7A7A7",
"E 	c #8B8B8B",
"F 	c #979797",
"G 	c #9B9B9B",
"H 	c #B7B7B7",
"I 	c #A3A3A3",
"J 	c #989898",
"K 	c #8A8A8A",
"L 	c #4C4C4C",
"M 	c #727272",
"N 	c #8C8C8C",
"O 	c #8E8E8E",
"P 	c #9F9F9F",
"Q 	c #D0D0D0",
"R 	c #CFCFCF",
"S 	c #CACACA",
"T 	c #ABABAB",
"U 	c #8D8D8D",
"V 	c #828282",
"W 	c #898989",
"X 	c #666666",
"Y 	c #E9E9E9",
"Z 	c #959595",
"` 	c #676767",
" .	c #8F8F8F",
"..	c #B5B5B5",
"+.	c #D6D6D6",
"@.	c #D3D3D3",
"#.	c #838383",
"$.	c #646464",
"%.	c #757575",
"&.	c #9E9E9E",
"*.	c #B6B6B6",
"=.	c #C0C0C0",
"-.	c #7D7C7B",
";.	c #ADABA5",
">.	c #CFCDCB",
",.	c #696969",
"'.	c #7D7D7D",
").	c #B3B3B3",
"!.	c #A4A4A1",
"~.	c #AFAFB3",
"{.	c #869ED8",
"].	c #878FA1",
"^.	c #686460",
"/.	c #7E7E7E",
"(.	c #C1C1C0",
"_.	c #9C9891",
":.	c #476DB5",
"<.	c #427DE0",
"[.	c #3471CA",
"}.	c #565A5E",
"|.	c #717171",
"1.	c #737373",
"2.	c #C2C2C2",
"3.	c #9F9992",
"4.	c #5978A5",
"5.	c #0761D9",
"6.	c #66A2E9",
"7.	c #308CED",
"8.	c #2074C5",
"9.	c #BFBFBF",
"0.	c #5F5F5F",
"a.	c #777777",
"b.	c #6F6F6F",
"c.	c #595959",
"d.	c #636363",
"e.	c #7C7C7C",
"f.	c #939393",
"g.	c #A6A7A7",
"h.	c #98938D",
"i.	c #61758E",
"j.	c #1373DE",
"k.	c #4B9DED",
"l.	c #B9DCFA",
"m.	c #87C8F8",
"n.	c #3EADFD",
"o.	c #1EA9FF",
"p.	c #999999",
"q.	c #969696",
"r.	c #7A7A7A",
"s.	c #818181",
"t.	c #949494",
"u.	c #96938F",
"v.	c #6B737D",
"w.	c #227ED7",
"x.	c #48A6F6",
"y.	c #ACDBFC",
"z.	c #B2E1FF",
"A.	c #B4E4FF",
"B.	c #90D8FF",
"C.	c #48ADF4",
"D.	c #20B3FF",
"E.	c #B8B8B9",
"F.	c #AFADAC",
"G.	c #3B8BD0",
"H.	c #49AEFD",
"I.	c #A5DBFE",
"J.	c #A6DFFF",
"K.	c #9CDDFF",
"L.	c #9CDEFF",
"M.	c #B2E7FF",
"N.	c #A3E2FF",
"O.	c #43A0EA",
"P.	c #1EB9FF",
"Q.	c #6A6A6A",
"R.	c #AFAAA8",
"S.	c #5A98CD",
"T.	c #49B2FE",
"U.	c #A2DCFF",
"V.	c #9DDDFF",
"W.	c #8FDAFF",
"X.	c #8FDCFF",
"Y.	c #8DDEFF",
"Z.	c #8DE0FF",
"`.	c #BAEDFF",
" +	c #B7ECFF",
".+	c #3EA0E7",
"++	c #15BFFF",
"@+	c #868686",
"#+	c #87817E",
"$+	c #648B9D",
"%+	c #52C5FD",
"&+	c #A5E3FF",
"*+	c #9DE4FF",
"=+	c #83DDFF",
"-+	c #85DFFF",
";+	c #83E0FF",
">+	c #82E1FF",
",+	c #7DE1FF",
"'+	c #84E3FF",
")+	c #CDF4FF",
"!+	c #A8D5F5",
"~+	c #298CE0",
"{+	c #4F4F4F",
"]+	c #5D5D5D",
"^+	c #616161",
"/+	c #675F5C",
"(+	c #579AB5",
"_+	c #A1EFFF",
":+	c #A4E9FF",
"<+	c #77DCFF",
"[+	c #78DDFF",
"}+	c #77DDFF",
"|+	c #75DDFF",
"1+	c #72DCFF",
"2+	c #70DBFF",
"3+	c #69D8FF",
"4+	c #83DFFF",
"5+	c #EDFBFF",
"6+	c #459CE7",
"7+	c #000000",
"8+	c #BCBCBC",
"9+	c #ACACAC",
"0+	c #A1A1A1",
"a+	c #827D7A",
"b+	c #6391B8",
"c+	c #70BFEE",
"d+	c #41B0F2",
"e+	c #60D0FF",
"f+	c #68D4FF",
"g+	c #65D3FF",
"h+	c #63D3FF",
"i+	c #61D2FF",
"j+	c #5FD2FF",
"k+	c #58CFFF",
"l+	c #309DEB",
"m+	c #5BAAEA",
"n+	c #3783DC",
"o+	c #252525",
"p+	c #C0BFBF",
"q+	c #BEC0C2",
"r+	c #90A2AB",
"s+	c #72909E",
"t+	c #4CBDF3",
"u+	c #56CBFF",
"v+	c #54C9FF",
"w+	c #52C9FF",
"x+	c #50C8FF",
"y+	c #4FC8FF",
"z+	c #2B98EA",
"A+	c #1CB9FF",
"B+	c #1DBAFF",
"C+	c #00B6FF",
"D+	c #202020",
"E+	c #BAB9B9",
"F+	c #928D8A",
"G+	c #77787A",
"H+	c #41B0EC",
"I+	c #41C0FF",
"J+	c #3FBDFF",
"K+	c #3CBCFF",
"L+	c #38BBFF",
"M+	c #31B8FF",
"N+	c #1B8DE9",
"O+	c #007FFF",
"P+	c #191919",
"Q+	c #323232",
"R+	c #6B6B6B",
"S+	c #747474",
"T+	c #848484",
"U+	c #7F7D7C",
"V+	c #585C5E",
"W+	c #279AE1",
"X+	c #20AFFF",
"Y+	c #21ACFF",
"Z+	c #20ADFF",
"`+	c #1FACFF",
" @	c #1EACFF",
".@	c #1788E6",
"+@	c #171717",
"@@	c #222222",
"#@	c #353535",
"$@	c #414141",
"%@	c #474747",
"&@	c #424242",
"*@	c #444444",
"=@	c #484848",
"-@	c #3F3F3F",
";@	c #2D2D2A",
">@	c #1D1D22",
",@	c #1B81CD",
"'@	c #1B9FFE",
")@	c #1C9CF8",
"!@	c #1C9DF9",
"~@	c #1C9DF8",
"{@	c #1CA1FF",
"]@	c #166DCB",
"^@	c #1E1414",
"/@	c #1C1C1C",
"(@	c #151515",
"_@	c #131313",
":@	c #1E1E1E",
"<@	c #251F1A",
"[@	c #1C61A1",
"}@	c #168BF6",
"|@	c #1788EE",
"1@	c #1789EF",
"2@	c #168DF8",
"3@	c #1C619F",
"4@	c #201A1A",
"5@	c #182424",
"6@	c #1F344E",
"7@	c #1E3750",
"8@	c #1E3851",
"9@	c #203651",
"                                                                ",
"                    . + @ # . $ % &                             ",
"                * = - ; > , > ' ) ! ~ {                         ",
"            ! ] ^ / ( ( _ _ _ _ ( _ : < [ }                     ",
"          ] | 1 2 3 3 3 3 3 3 3 3 3 4 2 5 6 [                   ",
"        7 ; 8 8 9 9 9 9 9 9 9 9 9 9 9 9 8 0 a [                 ",
"      b ! ; b b b b b b b b b b b b b b c d ] e                 ",
"      a f g h h h h h h h h h h h h h h h a a i !               ",
"      j k l m m m l m } e n n e } l l m } m l o p               ",
"      q r s o t u v f n ! - - w x y z * { A @ B C               ",
"      D E . F G @ H y n [ - - ! } = * I J J G K L               ",
"      - M N O P j ~ } ! Q a a R S f z T J U V W X               ",
"      Y Z `  .& ..y S Q g +.] @.R e = j P #.$.~ %.              ",
"      &.| # V I *.f w h g +.] @.R n =.t G -.;.>.,.              ",
"      '.n d j s u = x [ Q h h R w l v ).!.~.{.].^.              ",
"      p /.x 6 } x R g g @.@.@.@.g @.Q (._.:.<.[.}.              ",
"      > |.1.A l z ).k =.f l m m 2.~ z 3.4.5.6.7.8.              ",
"      n 9.0.a.Z D & Z V b.c.d.e.f.g.h.i.j.k.l.m.n.o.            ",
"      #.< k E f.p.P P q.W r.s.t.% u.v.w.x.y.z.A.B.C.D.          ",
"      E p < w k i z *.).).).u E.F.W G.H.I.J.K.L.M.N.O.P.        ",
"      @.Q.+ - n y n a +.6 +.7 @.R.S.T.U.V.W.X.Y.Z.`. +.+++      ",
"      v T c.E * *.@ + F f.@+U #+$+%+&+*+=+-+;+>+,+'+)+!+~+      ",
"      {+Y + e.O P r G W 1.]+^+/+(+_+:+<+[+}+|+1+2+3+4+5+6+      ",
"      7+p.^ 8+9+o o 9+s r 0+. a+b+c+d+e+f+g+h+i+j+k+l+m+n+      ",
"        o+B b n l [ a a Q a R p+q+r+s+t+u+v+w+x+y+z+A+B+C+      ",
"        7+D+M v =.t 9+{ { o j *.E+F+G+H+I+J+K+L+M+N+O+          ",
"          7+P+Q+R+q t.# S+]+` T+. U+V+W+X+Y+Z+`+ @.@            ",
"              7++@@@#@$@%@&@*@=@-@;@>@,@'@)@!@~@{@]@^@/@        ",
"                      7+(@@@_@7+_@:@<@[@}@|@1@1@2@3@4@:@7+      ",
"                                  7+P+5@6@7@7@8@9@@@7+7+        ",
"                                                                ",
"                                                                "};
