/* XPM */
static char * db_status_xpm[] = {
"32 32 373 2",
"  	c None",
". 	c #B0B0B0",
"+ 	c #ADADAD",
"@ 	c #B6B6B6",
"# 	c #BEBEBE",
"$ 	c #CFCFCF",
"% 	c #D6D6D6",
"& 	c #D0D0D0",
"* 	c #C3C3C3",
"= 	c #BABABA",
"- 	c #B5B5B5",
"; 	c #C1C1C1",
"> 	c #CECECE",
", 	c #E1E1E1",
"' 	c #F5F5F5",
") 	c #FEFEFE",
"! 	c #FFFFFF",
"~ 	c #FDFDFD",
"{ 	c #E3E3E3",
"] 	c #CDCDCD",
"^ 	c #C7C7C7",
"/ 	c #D3D3D3",
"( 	c #E0E0E0",
"_ 	c #F2F2F2",
": 	c #F6F6F6",
"< 	c #F4F4F4",
"[ 	c #DFDFDF",
"} 	c #DADADA",
"| 	c #EBEBEB",
"1 	c #EAEAEA",
"2 	c #DEDEDE",
"3 	c #DDDDDD",
"4 	c #DCDCDC",
"5 	c #CBCBCB",
"6 	c #D5D5D5",
"7 	c #D4D4D4",
"8 	c #CCCCCC",
"9 	c #C9C9C9",
"0 	c #B1B1B1",
"a 	c #C4C4C4",
"b 	c #C8C8C8",
"c 	c #CACACA",
"d 	c #ACACAC",
"e 	c #000000",
"f 	c #979797",
"g 	c #969696",
"h 	c #B7B7B7",
"i 	c #B9B9B9",
"j 	c #B4B4B4",
"k 	c #AFAFAF",
"l 	c #909090",
"m 	c #666666",
"n 	c #8F8F8F",
"o 	c #999999",
"p 	c #9B9B9B",
"q 	c #9F9F9F",
"r 	c #BBBBBB",
"s 	c #C5C5C5",
"t 	c #9C9C9C",
"u 	c #828282",
"v 	c #333333",
"w 	c #E4E4E4",
"x 	c #A4A4A4",
"y 	c #7C7C7C",
"z 	c #929292",
"A 	c #A2A2A2",
"B 	c #B2B2B2",
"C 	c #C6C6C6",
"D 	c #B3B3B3",
"E 	c #7F7F7F",
"F 	c #2A2A2A",
"G 	c #E7E7E7",
"H 	c #D9D9D9",
"I 	c #6E6E6E",
"J 	c #7A7A7A",
"K 	c #959595",
"L 	c #A9A9A9",
"M 	c #B8B8B8",
"N 	c #D1D1D1",
"O 	c #AAAAAA",
"P 	c #7B7B7B",
"Q 	c #707070",
"R 	c #BFBFBF",
"S 	c #3F3F3F",
"T 	c #858585",
"U 	c #6D6D6D",
"V 	c #ABABAB",
"W 	c #D2D2D2",
"X 	c #919191",
"Y 	c #555555",
"Z 	c #9D9D9D",
"` 	c #A8A8A8",
" .	c #C2C2C2",
"..	c #BDBDBD",
"+.	c #D7D7D7",
"@.	c #8A8A8A",
"#.	c #878787",
"$.	c #A0A0A0",
"%.	c #CDCFD1",
"&.	c #C5CCD2",
"*.	c #BFC6CF",
"=.	c #C7CCD4",
"-.	c #CCD1D8",
";.	c #949AA3",
">.	c #7D848A",
",.	c #646464",
"'.	c #939393",
").	c #D2D4D5",
"!.	c #C1C8D0",
"~.	c #BCB5B1",
"{.	c #CDA581",
"].	c #E29F5D",
"^.	c #EDA14E",
"/.	c #E29642",
"(.	c #B97630",
"_.	c #C09369",
":.	c #6B5844",
"<.	c #8D8D8D",
"[.	c #5E5E5E",
"}.	c #A5A5A5",
"|.	c #AEAEAE",
"1.	c #818181",
"2.	c #727272",
"3.	c #666565",
"4.	c #6F7275",
"5.	c #747578",
"6.	c #B17841",
"7.	c #ED8408",
"8.	c #FF9E00",
"9.	c #FFB500",
"0.	c #FFC200",
"a.	c #FFC700",
"b.	c #FFAC00",
"c.	c #FB9200",
"d.	c #FF8A00",
"e.	c #FF8D00",
"f.	c #6C6C6C",
"g.	c #A6A6A6",
"h.	c #9A9A9A",
"i.	c #8C8C8C",
"j.	c #7B7B7A",
"k.	c #606265",
"l.	c #64615F",
"m.	c #CF771D",
"n.	c #FF9B00",
"o.	c #FFC003",
"p.	c #FFD123",
"q.	c #FFD543",
"r.	c #FFD652",
"s.	c #FFD654",
"t.	c #FFD747",
"u.	c #FFD628",
"v.	c #FFCC06",
"w.	c #FFAB00",
"x.	c #FF8B00",
"y.	c #868686",
"z.	c #A3A3A4",
"A.	c #84878D",
"B.	c #D28230",
"C.	c #FFA100",
"D.	c #FFC526",
"E.	c #FFD265",
"F.	c #FFD77E",
"G.	c #FFDB85",
"H.	c #FFDE88",
"I.	c #FFDE89",
"J.	c #FFDA88",
"K.	c #FFD682",
"L.	c #FFD26A",
"M.	c #FFCD2D",
"N.	c #FFB200",
"O.	c #FF9000",
"P.	c #FF7F00",
"Q.	c #C0C0C0",
"R.	c #A8ADB3",
"S.	c #B69472",
"T.	c #FF9600",
"U.	c #FFC334",
"V.	c #FFD471",
"W.	c #FFD970",
"X.	c #FFE172",
"Y.	c #F9D570",
"Z.	c #EAC368",
"`.	c #EBC36A",
" +	c #FBD675",
".+	c #FFDF78",
"++	c #FFD873",
"@+	c #FFD472",
"#+	c #FFC83E",
"$+	c #FFA800",
"%+	c #FF9200",
"&+	c #787878",
"*+	c #6A6A6A",
"=+	c #BCBCBC",
"-+	c #A7A7A7",
";+	c #797E86",
">+	c #D0882E",
",+	c #FFB619",
"'+	c #FFD363",
")+	c #FFD65E",
"!+	c #FFDF61",
"~+	c #CFA648",
"{+	c #936126",
"]+	c #956429",
"^+	c #936128",
"/+	c #966329",
"(+	c #D8AF54",
"_+	c #FFDD69",
":+	c #FFD661",
"<+	c #FFD364",
"[+	c #FFBD29",
"}+	c #FF9A00",
"|+	c #171717",
"1+	c #7E7E7E",
"2+	c #A3A3A3",
"3+	c #949494",
"4+	c #6E6E6F",
"5+	c #4A494D",
"6+	c #D5880F",
"7+	c #FFCC40",
"8+	c #FFD354",
"9+	c #FFDE52",
"0+	c #E4BE46",
"a+	c #7F4B15",
"b+	c #C69D41",
"c+	c #F9DA67",
"d+	c #F7D76A",
"e+	c #B18539",
"f+	c #8B571D",
"g+	c #F4CE57",
"h+	c #FFDB56",
"i+	c #FFD452",
"j+	c #FFCB49",
"k+	c #FFA804",
"l+	c #343434",
"m+	c #8D8D8E",
"n+	c #706F70",
"o+	c #E1A123",
"p+	c #FFD140",
"q+	c #FFD545",
"r+	c #FFE245",
"s+	c #D7B234",
"t+	c #AB8027",
"u+	c #FAE358",
"v+	c #FFE964",
"w+	c #FFF570",
"x+	c #D6B74E",
"y+	c #804C15",
"z+	c #E8C445",
"A+	c #FFE04A",
"B+	c #FFD644",
"C+	c #FFCF47",
"D+	c #FFB310",
"E+	c #4E4E4E",
"F+	c #AEAEB0",
"G+	c #919093",
"H+	c #E9AD22",
"I+	c #FFC913",
"J+	c #FFD52C",
"K+	c #FFDF34",
"L+	c #FFE73B",
"M+	c #FFED45",
"N+	c #FFEA4B",
"O+	c #FFF255",
"P+	c #E2C648",
"Q+	c #8F611D",
"R+	c #B68E2B",
"S+	c #FFE445",
"T+	c #FFDF3A",
"U+	c #FFD62D",
"V+	c #FFC81B",
"W+	c #FFB403",
"X+	c #3E3E3E",
"Y+	c #A5A5A6",
"Z+	c #84858D",
"`+	c #D8A626",
" @	c #FFCA00",
".@	c #FFD201",
"+@	c #FFDE07",
"@@	c #FFE812",
"#@	c #FFEC23",
"$@	c #FFF336",
"%@	c #D9BF31",
"&@	c #895C11",
"*@	c #C6A620",
"=@	c #FFEF2E",
"-@	c #FFE61E",
";@	c #FFDD0B",
">@	c #FFD200",
",@	c #FFC600",
"'@	c #FFB700",
")@	c #191919",
"!@	c #585858",
"~@	c #454853",
"{@	c #8F7229",
"]@	c #FFD700",
"^@	c #FFE200",
"/@	c #FFEA06",
"(@	c #FFEF1A",
"_@	c #FFEF2F",
":@	c #966C13",
"<@	c #B3901E",
"[@	c #FFFB30",
"}@	c #FFEE17",
"|@	c #FFE803",
"1@	c #FFE100",
"2@	c #FFD600",
"3@	c #FFB900",
"4@	c #131313",
"5@	c #323232",
"6@	c #484848",
"7@	c #525252",
"8@	c #3D4041",
"9@	c #403B37",
"0@	c #DFB107",
"a@	c #FFE400",
"b@	c #FFE40B",
"c@	c #FFEA23",
"d@	c #FFF037",
"e@	c #FEF147",
"f@	c #D7C03F",
"g@	c #EBDC47",
"h@	c #FFF543",
"i@	c #FFEF2B",
"j@	c #FFEC0F",
"k@	c #FFDC00",
"l@	c #FFD100",
"m@	c #4B3B15",
"n@	c #EBC506",
"o@	c #FFEF20",
"p@	c #FFEB3E",
"q@	c #FFF054",
"r@	c #FBED61",
"s@	c #9D7828",
"t@	c #C4AA3F",
"u@	c #FFFA5B",
"v@	c #FFEF40",
"w@	c #FFEB26",
"x@	c #FFEF08",
"y@	c #F5D400",
"z@	c #7F670F",
"A@	c #121B24",
"B@	c #3D351E",
"C@	c #BDA120",
"D@	c #FFE847",
"E@	c #FFFA71",
"F@	c #FFFA8A",
"G@	c #E0CA77",
"H@	c #EFDF7C",
"I@	c #FFFD79",
"J@	c #FFFA58",
"K@	c #FFEF32",
"L@	c #C9B213",
"M@	c #4A431C",
"N@	c #121225",
"O@	c #1C1C1C",
"P@	c #191E23",
"Q@	c #1B1B21",
"R@	c #524A22",
"S@	c #998939",
"T@	c #C6B75F",
"U@	c #DED279",
"V@	c #DCCF72",
"W@	c #C9BA53",
"X@	c #9F9234",
"Y@	c #5C5521",
"Z@	c #212124",
"`@	c #1A1A24",
" #	c #1F1F1F",
".#	c #0C0C19",
"+#	c #17171F",
"@#	c #25251C",
"##	c #0D0D1A",
"                                                                ",
"                . + @ # $ % & * = - .                           ",
"            ; > , ' ) ! ! ) ! ! ~ ' { ] ^                       ",
"          / ( _ : < _ _ _ _ _ _ _ < ' _ [ $                     ",
"        } [ | 1 1 1 1 1 1 1 1 1 1 1 1 1 | 2 $                   ",
"      3 & [ ( ( ( ( ( ( ( ( ( ( ( ( ( ( ( ( ] ]                 ",
"    4 5 5 % 6 6 6 6 7 7 7 7 7 7 7 6 6 6 6 % 8 ;                 ",
"    9 0 a 9 9 b b ^ ^ b 9 c 9 b ^ ^ b b 9 9 a d e               ",
"    f g d . - h i # a 9 8 ] 8 9 a # i h j k + l m               ",
"    h n o p p q + r a c > $ > 5 s r + q p p t u v               ",
"    w x y l z A B # C 8 $ & $ 8 ^ # D x z l E l F               ",
"    G H I J K L M a 8 N 7 6 7 N 8 a i O f P Q R S               ",
"    T 9 # U l V = C ] W 6 % 6 W > C r d X I - M Y               ",
"    Q l w ; Z ` @  .c & W W W & 5 * h L q ..+.@.Y               ",
"    @.#.$.4 > ; ^ ] > > > $ > > $ %.&.*.=.-.;.>.S               ",
"    > r ,.'.* a = R 9 N 7 7 6 ).!.~.{.].^./.(._.:.              ",
"    ` H <.[.T }.|.A X 1.2.3.4.5.6.7.8.9.0.a.0.b.c.d.e.          ",
"    f.g., X T z t $.h.i.j.k.l.m.n.o.p.q.r.s.t.u.v.w.x.x.        ",
"    E y.^ 2 i 0 D 0 k . z.A.B.C.D.E.F.G.H.I.J.K.L.M.N.O.P.      ",
"    ..` 2.Q./ a C $ 6 W R.S.T.U.V.W.X.Y.Z.`. +.+++@+#+$+%+      ",
"    D / &+*+g.=+D ` -+t ;+>+,+'+)+!+~+{+]+^+/+(+_+:+<+[+}+      ",
"    |+K } &+1+f g.2+3+4+5+6+7+8+9+0+a+b+c+d+e+f+g+h+i+j+k+      ",
"      l+7 % L g.` L O m+n+o+p+q+r+s+t+u+v+w+x+y+z+A+B+C+D+      ",
"        E+> +.a ^ ] & F+G+H+I+J+K+L+M+N+O+P+Q+R+S+T+U+V+W+      ",
"          X+g.b r j r Y+Z+`+ @.@+@@@#@$@%@&@*@=@-@;@>@,@'@      ",
"            )@!@n q f y ~@{@>@]@^@/@(@_@:@<@[@}@|@1@2@ @3@      ",
"                4@5@6@7@8@9@0@a@b@c@d@e@f@g@h@i@j@a@k@l@3@      ",
"                            m@n@o@p@q@r@s@t@u@v@w@x@y@z@        ",
"                          e A@B@C@D@E@F@G@H@I@J@K@L@M@N@e       ",
"                            O@P@Q@R@S@T@U@V@W@X@Y@Z@`@O@        ",
"                                 #.#+#O@@#@#O@+###e             ",
"                                                                "};
