/* XPM */
static char * document_xpm[] = {
"32 32 102 2",
"  	c None",
". 	c #D9D9D9",
"+ 	c #D7D7D7",
"@ 	c #CACACA",
"# 	c #393939",
"$ 	c #B8B8B8",
"% 	c #FCFCFC",
"& 	c #F9F9F9",
"* 	c #E1E1E1",
"= 	c #141414",
"- 	c #F5F5F5",
"; 	c #E9E9E9",
"> 	c #CFCFCF",
", 	c #0D0D0D",
"' 	c #C6C6C6",
") 	c #CCCCCC",
"! 	c #DADADA",
"~ 	c #CBCBCB",
"{ 	c #D1D1D1",
"] 	c #C9C9C9",
"^ 	c #DBDBDB",
"/ 	c #EDEDED",
"( 	c #C5C5C5",
"_ 	c #D0D0D0",
": 	c #D2D2D2",
"< 	c #E3E3E3",
"[ 	c #0E0E0E",
"} 	c #C0C0C0",
"| 	c #BCBCBC",
"1 	c #BFBFBF",
"2 	c #C4C4C4",
"3 	c #F3F3F3",
"4 	c #C8C8C8",
"5 	c #E8E8E8",
"6 	c #E7E7E7",
"7 	c #E6E6E6",
"8 	c #DEDEDE",
"9 	c #E2E2E2",
"0 	c #E4E4E4",
"a 	c #DCDCDC",
"b 	c #C7C7C7",
"c 	c #F7F7F7",
"d 	c #F6F6F6",
"e 	c #F8F8F8",
"f 	c #F2F2F2",
"g 	c #090909",
"h 	c #E0E0E0",
"i 	c #D6D6D6",
"j 	c #D8D8D8",
"k 	c #D5D5D5",
"l 	c #ECECEC",
"m 	c #B7B7B7",
"n 	c #B9B9B9",
"o 	c #BDBDBD",
"p 	c #050505",
"q 	c #D3D3D3",
"r 	c #EEEEEE",
"s 	c #2E2E2E",
"t 	c #F0F0F0",
"u 	c #F1F1F1",
"v 	c #333333",
"w 	c #EBEBEB",
"x 	c #DDDDDD",
"y 	c #313131",
"z 	c #FBFBFB",
"A 	c #C2C2C2",
"B 	c #C3C3C3",
"C 	c #BEBEBE",
"D 	c #2F2F2F",
"E 	c #B2B2B2",
"F 	c #CECECE",
"G 	c #BBBBBB",
"H 	c #B5B5B5",
"I 	c #2C2C2C",
"J 	c #2A2A2A",
"K 	c #282828",
"L 	c #AFAFAF",
"M 	c #B1B1B1",
"N 	c #B0B0B0",
"O 	c #B6B6B6",
"P 	c #AAAAAA",
"Q 	c #B3B3B3",
"R 	c #262626",
"S 	c #252525",
"T 	c #6C6C6C",
"U 	c #636363",
"V 	c #626262",
"W 	c #606060",
"X 	c #5F5F5F",
"Y 	c #5E5E5E",
"Z 	c #5C5C5C",
"` 	c #5A5A5A",
" .	c #585858",
"..	c #575757",
"+.	c #565656",
"@.	c #555555",
"#.	c #545454",
"$.	c #515151",
"%.	c #525252",
"&.	c #4E4E4E",
"*.	c #020202",
"=.	c #000000",
"  . + + + + + + + + + + + + + + + @ #                           ",
"$ % % % % % % % % % % % % % % % & & * =                         ",
"$ % % % % % % % % % % % % % % & - ; > + ,                       ",
"$ % ' ) > ! ~ { ] ^ / ) ( ' + _ : < { - ~ [                     ",
"$ % } ( { _ ) | 1 ] ' ) ' 2 ) @ > * > % 3 4 [                   ",
"$ % < 5 5 6 7 8 9 5 9 5 0 6 6 7 9 a ~ % % 3 b [                 ",
"$ % c d e c d e & c e e & e e c f ! ' % % % - 2 g               ",
"$ % 8 > { h i i ! h j _ a { > k j l m $ $ n n o $ p             ",
"$ % i i j + 7 q : * { 9 ^ i k k 9 3 r 6 * ^ ! ^ - s             ",
"$ % t t r / u u r r r / r f e / < 7 j a { k k ) % v             ",
"$ % ; t f f f w 6 3 f u f 6 % t j ^ q x @ _ ) 4 % y             ",
"$ % 5 - c c e t ; e c c c 6 z l q + : a k ] ] k % y             ",
"$ % i A B B 2 } C 2 B B A 4 z l a h a k ^ : ! ! % v             ",
"$ % k } B B B } C B B B B ( z 0 _ _ x 9 i q q 4 % y             ",
"$ % < 9 7 7 7 h ^ 6 7 7 7 x e e c c e e e e - f % y             ",
"$ % 5 - c c e r ; e c c c 6 e & & & & & & c - - % y             ",
"$ % < ; w w l 0 h / w w l h d - 0 l 6 5 a < a x % D             ",
"$ % 7 f - - d / 6 c - - d 0 c f _ j ) 2 E F 4 m % s             ",
"$ % : o 1 1 } o G } 1 1 C 2 - / q ] 1 @ A q _ 4 % s             ",
"$ % > } A A A C | A } } A A 3 / | | H @ o C | G % I             ",
"$ % ^ i j j ! q ) q q q : : t / 0 5 7 5 7 5 5 6 % I             ",
"$ % x l r r r 6 * r r r r 8 / r r r r r r r r r % J             ",
"$ % < x 8 8 8 x a 8 8 8 8 h l l l l l l l l l l % J             ",
"$ % h * 9 * < < 0 9 < * h 6 < 0 ; 6 * 7 ; ; ; ; % K             ",
"$ % L M H N m A 4 E O P L ~ o M o ~ M G 1 0 ; ; % K             ",
"$ % O ] C F G Q $ @ | m n o ' A H G 1 ] ( < 5 ; % R             ",
"$ % E m O n } ( n C 4 N n G ( H M n n o 2 * 6 5 z R             ",
"$ % H m } | C } E $ + { ) _ k > ~ > > _ + 7 6 5 z R             ",
"$ % o C A 1 B } C C x < < < < < < < < < < < < 6 & S             ",
"$ % % % % % % z z z z z & & & c c c c - - - - - % R             ",
"$ T U V W X X Y Z Z ` ` `  . ...+.+.@.#.$.$.$.%.&.*.            ",
"=.=.=.=.=.=.=.=.=.=.=.=.=.=.=.=.=.=.=.=.=.=.=.=.=.=.            "};
