/* XPM */
static char * exit_xpm[] = {
"32 32 694 2",
"  	c None",
". 	c #120000",
"+ 	c #3F1B1B",
"@ 	c #462A2A",
"# 	c #462C2C",
"$ 	c #462F2F",
"% 	c #492F2F",
"& 	c #493131",
"* 	c #422121",
"= 	c #461515",
"- 	c #B87B7B",
"; 	c #E1B9B9",
"> 	c #E5C5C5",
", 	c #E7C6C6",
"' 	c #E8C8C8",
") 	c #E9CACA",
"! 	c #EBCCCC",
"~ 	c #ECCFCF",
"{ 	c #EDD1D1",
"] 	c #EFD3D3",
"^ 	c #F0D5D5",
"/ 	c #F1D6D6",
"( 	c #F2D9D9",
"_ 	c #F3DADA",
": 	c #F4DCDC",
"< 	c #F4DEDE",
"[ 	c #F5E0E0",
"} 	c #F6E2E2",
"| 	c #F7E3E3",
"1 	c #F7E4E4",
"2 	c #F8E5E5",
"3 	c #F8E7E7",
"4 	c #F5DDDD",
"5 	c #C99D9D",
"6 	c #491F1F",
"7 	c #4D1919",
"8 	c #D9A2A2",
"9 	c #DAB8B8",
"0 	c #CDA3A3",
"a 	c #CC9F9F",
"b 	c #CEA1A1",
"c 	c #D0A3A3",
"d 	c #D2A4A4",
"e 	c #D3A5A5",
"f 	c #D5A7A7",
"g 	c #D6A9A9",
"h 	c #D8AAAA",
"i 	c #D9ACAC",
"j 	c #DBADAD",
"k 	c #DCAFAF",
"l 	c #DDB0B0",
"m 	c #DDB1B1",
"n 	c #DEB3B3",
"o 	c #DFB5B5",
"p 	c #E0B6B6",
"q 	c #E1B7B7",
"r 	c #E2BABA",
"s 	c #E1BBBB",
"t 	c #E4C3C3",
"u 	c #F5E2E2",
"v 	c #F6D6D6",
"w 	c #512626",
"x 	c #130000",
"y 	c #B76E6E",
"z 	c #CB9D9D",
"A 	c #C08888",
"B 	c #C38B8B",
"C 	c #C68D8D",
"D 	c #C78F8F",
"E 	c #C99090",
"F 	c #CB9191",
"G 	c #CC9393",
"H 	c #CE9494",
"I 	c #D09595",
"J 	c #D19797",
"K 	c #D39797",
"L 	c #CE9191",
"M 	c #D19494",
"N 	c #D79C9C",
"O 	c #D79E9E",
"P 	c #D89F9F",
"Q 	c #D9A1A1",
"R 	c #DAA2A2",
"S 	c #DBA3A3",
"T 	c #DCA5A5",
"U 	c #DCA6A6",
"V 	c #DCA8A8",
"W 	c #DCA9A9",
"X 	c #DAA7A7",
"Y 	c #EBC8C8",
"Z 	c #D3A2A2",
"` 	c #410C0C",
" .	c #C68080",
"..	c #BF8484",
"+.	c #C18484",
"@.	c #C38686",
"#.	c #C58787",
"$.	c #C78888",
"%.	c #C98A8A",
"&.	c #CB8B8B",
"*.	c #CD8D8D",
"=.	c #CE8E8E",
"-.	c #D09090",
";.	c #D29090",
">.	c #CA9090",
",.	c #D0B3B3",
"'.	c #CFAEAE",
").	c #D09292",
"!.	c #D99898",
"~.	c #D99999",
"{.	c #DA9B9B",
"].	c #DB9C9C",
"^.	c #DC9E9E",
"/.	c #DD9F9F",
"(.	c #DDA0A0",
"_.	c #DDA2A2",
":.	c #DEA3A3",
"<.	c #DEA5A5",
"[.	c #EAB4B4",
"}.	c #491D1D",
"|.	c #3E0303",
"1.	c #B86767",
"2.	c #C07F7F",
"3.	c #C07D7D",
"4.	c #C27E7E",
"5.	c #C47F7F",
"6.	c #C68181",
"7.	c #C88282",
"8.	c #CA8484",
"9.	c #CC8585",
"0.	c #CE8787",
"a.	c #D08888",
"b.	c #CF8484",
"c.	c #E7CECE",
"d.	c #FFFFFF",
"e.	c #E0B7B7",
"f.	c #D78B8B",
"g.	c #DA9292",
"h.	c #DB9393",
"i.	c #DC9595",
"j.	c #DD9696",
"k.	c #DE9898",
"l.	c #DF9999",
"m.	c #DF9A9A",
"n.	c #E09C9C",
"o.	c #DF9D9D",
"p.	c #E2A3A3",
"q.	c #DC8888",
"r.	c #4A0F0F",
"s.	c #390000",
"t.	c #AB4D4D",
"u.	c #C07A7A",
"v.	c #BF7575",
"w.	c #C17777",
"x.	c #C37878",
"y.	c #C57A7A",
"z.	c #C77B7B",
"A.	c #C97D7D",
"B.	c #CC7E7E",
"C.	c #CE7F7F",
"D.	c #CF8080",
"E.	c #D07E7E",
"F.	c #EFCDCD",
"G.	c #D78282",
"H.	c #DB8B8B",
"I.	c #DD8D8D",
"J.	c #DE8F8F",
"K.	c #DF9090",
"L.	c #E09292",
"M.	c #E19393",
"N.	c #E29494",
"O.	c #E29696",
"P.	c #E69F9F",
"Q.	c #D56969",
"R.	c #410000",
"S.	c #A23A3A",
"T.	c #BF7474",
"U.	c #BE6E6E",
"V.	c #C07070",
"W.	c #C37171",
"X.	c #C57272",
"Y.	c #C77474",
"Z.	c #CA7575",
"`.	c #C97070",
" +	c #CB7171",
".+	c #D07878",
"++	c #D07676",
"@+	c #F4DDDD",
"#+	c #EEC8C8",
"$+	c #D87A7A",
"%+	c #D67A7A",
"&+	c #DB7F7F",
"*+	c #E18787",
"=+	c #E18989",
"-+	c #E28A8A",
";+	c #E38B8B",
">+	c #E48D8D",
",+	c #E48E8E",
"'+	c #E89999",
")+	c #D25555",
"!+	c #9D2D2D",
"~+	c #BE6C6C",
"{+	c #BD6868",
"]+	c #C06969",
"^+	c #C26A6A",
"/+	c #C56C6C",
"(+	c #C86B6B",
"_+	c #C06565",
":+	c #C48A8A",
"<+	c #C68F8F",
"[+	c #C76D6D",
"}+	c #D16E6E",
"|+	c #F4DBDB",
"1+	c #EFC4C4",
"2+	c #D46F6F",
"3+	c #E0C9C9",
"4+	c #D49F9F",
"5+	c #D77575",
"6+	c #E48080",
"7+	c #E48383",
"8+	c #E58484",
"9+	c #E68585",
"0+	c #E78787",
"a+	c #EB9292",
"b+	c #CF3838",
"c+	c #430000",
"d+	c #3C0000",
"e+	c #9B2424",
"f+	c #BC6363",
"g+	c #BC6060",
"h+	c #BF6262",
"i+	c #C26363",
"j+	c #C56262",
"k+	c #BD5E5E",
"l+	c #D7B6B6",
"m+	c #FDFFFF",
"n+	c #DEB2B2",
"o+	c #CE6060",
"p+	c #F4D9D9",
"q+	c #EEBBBB",
"r+	c #DE8888",
"s+	c #FEFFFF",
"t+	c #E0BCBC",
"u+	c #DA7272",
"v+	c #E77A7A",
"w+	c #E77D7D",
"x+	c #E87E7E",
"y+	c #EA8686",
"z+	c #E76666",
"A+	c #CB0505",
"B+	c #450000",
"C+	c #9A1E1E",
"D+	c #BB5B5B",
"E+	c #BC5959",
"F+	c #BF5A5A",
"G+	c #C25B5B",
"H+	c #BC5353",
"I+	c #DAB7B7",
"J+	c #F3D5D5",
"K+	c #CF5959",
"L+	c #F4D7D7",
"M+	c #EEB9B9",
"N+	c #E17C7C",
"O+	c #FFFEFE",
"P+	c #E4BFBF",
"Q+	c #E06B6B",
"R+	c #EA7575",
"S+	c #EB7A7A",
"T+	c #EB7272",
"U+	c #E01313",
"V+	c #D00000",
"W+	c #460000",
"X+	c #3E0000",
"Y+	c #9B1C1C",
"Z+	c #B95353",
"`+	c #BB5151",
" @	c #BE5353",
".@	c #BD4A4A",
"+@	c #CD8F8F",
"@@	c #F9ECEC",
"#@	c #DA7C7C",
"$@	c #D05353",
"%@	c #F4D6D6",
"&@	c #F0BBBB",
"*@	c #DC5757",
"=@	c #E88E8E",
"-@	c #FCEDED",
";@	c #E39E9E",
">@	c #EA6868",
",@	c #EE7070",
"'@	c #E61F1F",
")@	c #E30000",
"!@	c #D60303",
"~@	c #480000",
"{@	c #9D1919",
"]@	c #B84B4B",
"^@	c #BB4A4A",
"/@	c #BD4949",
"(@	c #BD5252",
"_@	c #F3E9E9",
":@	c #F9EBEB",
"<@	c #CF4C4C",
"[@	c #D35151",
"}@	c #F4D4D4",
"|@	c #F0B8B8",
"1@	c #DE5454",
"2@	c #E05555",
"3@	c #E87575",
"4@	c #FCEEEE",
"5@	c #F7EDED",
"6@	c #E66A6A",
"7@	c #E82323",
"8@	c #E40100",
"9@	c #E50C09",
"0@	c #D80E0A",
"a@	c #480101",
"b@	c #9E1616",
"c@	c #B74343",
"d@	c #BA4242",
"e@	c #BA3939",
"f@	c #D08787",
"g@	c #DC8181",
"h@	c #CB4040",
"i@	c #D14D4D",
"j@	c #D34949",
"k@	c #F5D7D7",
"l@	c #F2B8B8",
"m@	c #DF4C4C",
"n@	c #E45757",
"o@	c #E44D4D",
"p@	c #EF8C8C",
"q@	c #E8716F",
"r@	c #E7110D",
"s@	c #E71611",
"t@	c #DA1711",
"u@	c #A01414",
"v@	c #B53C3C",
"w@	c #BA3B3B",
"x@	c #B83333",
"y@	c #E5BCBC",
"z@	c #CA3F3F",
"A@	c #CE4343",
"B@	c #D24646",
"C@	c #D33F3F",
"D@	c #ECA7A7",
"E@	c #EA8585",
"F@	c #E14646",
"G@	c #E45050",
"H@	c #E75050",
"I@	c #E95050",
"J@	c #FBDCDC",
"K@	c #F2AEAD",
"L@	c #E50904",
"M@	c #E81913",
"N@	c #E81F17",
"O@	c #DD1F17",
"P@	c #4A0301",
"Q@	c #A41212",
"R@	c #B53434",
"S@	c #B83232",
"T@	c #BB3535",
"U@	c #F1D9D9",
"V@	c #E5A0A0",
"W@	c #C92F2F",
"X@	c #CF3D3D",
"Y@	c #D23F3F",
"Z@	c #D53F3F",
"`@	c #D84242",
" #	c #E47272",
".#	c #E56A6A",
"+#	c #E04242",
"@#	c #E34747",
"##	c #E64949",
"$#	c #E94D4D",
"%#	c #EA3F3F",
"&#	c #F5A0A0",
"*#	c #F9D4D3",
"=#	c #E71C14",
"-#	c #E91F17",
";#	c #EA261C",
">#	c #DF261C",
",#	c #A70F0F",
"'#	c #B42C2C",
")#	c #B72929",
"!#	c #BE3636",
"~#	c #F6E5E5",
"{#	c #E08A8A",
"]#	c #C92828",
"^#	c #CF3636",
"/#	c #D23737",
"(#	c #D53939",
"_#	c #D83939",
":#	c #DA3333",
"<#	c #DD3636",
"[#	c #E23E3E",
"}#	c #E54242",
"|#	c #E84444",
"1#	c #E93737",
"2#	c #E50D0D",
"3#	c #F07170",
"4#	c #FBE2E2",
"5#	c #EA2A22",
"6#	c #EA241A",
"7#	c #EB2D21",
"8#	c #E12D21",
"9#	c #4B0503",
"0#	c #4D0000",
"a#	c #A90C0C",
"b#	c #B32424",
"c#	c #B62222",
"d#	c #BC2A2A",
"e#	c #E09090",
"f#	c #C81F1F",
"g#	c #CF2F2F",
"h#	c #D23030",
"i#	c #D63131",
"j#	c #DD3535",
"k#	c #E03838",
"l#	c #E33939",
"m#	c #E53030",
"n#	c #E51818",
"o#	c #E40403",
"p#	c #EE817F",
"q#	c #FBDBD9",
"r#	c #EA2A20",
"s#	c #EB2A1F",
"t#	c #ED3326",
"u#	c #E43225",
"v#	c #4B0603",
"w#	c #520000",
"x#	c #AC0808",
"y#	c #B21D1D",
"z#	c #B71D1D",
"A#	c #B81616",
"B#	c #ECC0C0",
"C#	c #EABFBF",
"D#	c #C81B1B",
"E#	c #D02727",
"F#	c #D32929",
"G#	c #D72B2B",
"H#	c #DA2D2D",
"I#	c #DD2C2C",
"J#	c #DF2323",
"K#	c #DF1111",
"L#	c #E10101",
"M#	c #E50704",
"N#	c #E20300",
"O#	c #F2BAB9",
"P#	c #F9C2BF",
"Q#	c #EA2318",
"R#	c #EC3124",
"S#	c #EE3829",
"T#	c #E63728",
"U#	c #560000",
"V#	c #AF0707",
"W#	c #B21515",
"X#	c #B61616",
"Y#	c #B60A0A",
"Z#	c #DB8181",
"`#	c #FBF7F7",
" $	c #CD4545",
".$	c #CE1515",
"+$	c #D32020",
"@$	c #D51B1B",
"#$	c #D71212",
"$$	c #D80707",
"%$	c #DB0000",
"&$	c #DF0000",
"*$	c #E20000",
"=$	c #E40604",
"-$	c #E50000",
";$	c #E13A37",
">$	c #FCF7F7",
",$	c #F48B85",
"'$	c #EA2316",
")$	c #ED3528",
"!$	c #EF3C2C",
"~$	c #E93C2B",
"{$	c #4B0605",
"]$	c #590000",
"^$	c #B20505",
"/$	c #B10E0E",
"($	c #B40E0E",
"_$	c #B70909",
":$	c #C32B2B",
"<$	c #FCF3F3",
"[$	c #ECC8C8",
"}$	c #C50C0C",
"|$	c #CE0000",
"1$	c #D20000",
"2$	c #D50000",
"3$	c #D90000",
"4$	c #DD0000",
"5$	c #E10000",
"6$	c #E40202",
"7$	c #DD100E",
"8$	c #F2C8C7",
"9$	c #FEF5F4",
"0$	c #EE443A",
"a$	c #EB2D20",
"b$	c #ED382A",
"c$	c #F0402F",
"d$	c #EC3F2E",
"e$	c #4D0605",
"f$	c #5E0000",
"g$	c #B50101",
"h$	c #AE0202",
"i$	c #B20202",
"j$	c #B50202",
"k$	c #B60000",
"l$	c #DD7E7E",
"m$	c #E9B8B8",
"n$	c #C91E1E",
"o$	c #CD0000",
"p$	c #DC2322",
"q$	c #EFBDBC",
"r$	c #F4948E",
"s$	c #ED3527",
"t$	c #EE3B2C",
"u$	c #F04230",
"v$	c #EF4231",
"w$	c #4F0605",
"x$	c #610000",
"y$	c #B80000",
"z$	c #AE0000",
"A$	c #B20000",
"B$	c #B90000",
"C$	c #BD0505",
"D$	c #EDB5B5",
"E$	c #F7EAEA",
"F$	c #DF8686",
"G$	c #D53B3B",
"H$	c #D81B1B",
"I$	c #DD3B3B",
"J$	c #F8EBEB",
"K$	c #F9C0BE",
"L$	c #EB291E",
"M$	c #EC2F21",
"N$	c #ED3729",
"O$	c #EE3D2D",
"P$	c #F14432",
"Q$	c #F24433",
"R$	c #520805",
"S$	c #650000",
"T$	c #BB0000",
"U$	c #AF0000",
"V$	c #B30000",
"W$	c #B70000",
"X$	c #BD0000",
"Y$	c #C40C0C",
"Z$	c #EDB0B0",
"`$	c #FAF2F2",
" %	c #F8BBB8",
".%	c #EA2B21",
"+%	c #EA271B",
"@%	c #EC3326",
"#%	c #ED3829",
"$%	c #EE3E2E",
"%%	c #F14533",
"&%	c #F54634",
"*%	c #560806",
"=%	c #6B0000",
"-%	c #B00000",
";%	c #B40000",
">%	c #BC0000",
",%	c #C00000",
"'%	c #C20000",
")%	c #C60202",
"!%	c #E17272",
"~%	c #FAE7E7",
"{%	c #FDE9E8",
"]%	c #F2807C",
"^%	c #E91E15",
"/%	c #EA2217",
"(%	c #EB2E22",
"_%	c #ED392A",
":%	c #EE3F2F",
"<%	c #F04633",
"[%	c #F74734",
"}%	c #5A0806",
"|%	c #730606",
"1%	c #C50A0A",
"2%	c #B50000",
"3%	c #C40000",
"4%	c #C70000",
"5%	c #C80000",
"6%	c #D21717",
"7%	c #E46666",
"8%	c #F2AEAE",
"9%	c #F9D6D6",
"0%	c #FCEBEB",
"a%	c #FDEBEB",
"b%	c #FBD7D7",
"c%	c #F7B1B0",
"d%	c #F06F6D",
"e%	c #E92823",
"f%	c #E70E07",
"g%	c #E92017",
"h%	c #EA281E",
"i%	c #EB2D22",
"j%	c #ED392B",
"k%	c #F04432",
"l%	c #F94D3C",
"m%	c #5B0B0A",
"n%	c #4F0202",
"o%	c #DB2424",
"p%	c #AD0000",
"q%	c #CC0000",
"r%	c #DB0505",
"s%	c #E01111",
"t%	c #E41111",
"u%	c #E50807",
"v%	c #E40000",
"w%	c #E50200",
"x%	c #E6110C",
"y%	c #E81C15",
"z%	c #E92219",
"A%	c #EA281D",
"B%	c #F34734",
"C%	c #ED5044",
"D%	c #350202",
"E%	c #050000",
"F%	c #BB1F1E",
"G%	c #D43635",
"H%	c #B20404",
"I%	c #BA0000",
"J%	c #BF0000",
"K%	c #C50000",
"L%	c #CB0000",
"M%	c #D60000",
"N%	c #E40200",
"O%	c #E50906",
"P%	c #E60F0A",
"Q%	c #E7160E",
"R%	c #E81B13",
"S%	c #E92117",
"T%	c #EB281B",
"U%	c #EC2D20",
"V%	c #EC3223",
"W%	c #FF6A5C",
"X%	c #9E2422",
"Y%	c #000000",
"Z%	c #200000",
"`%	c #C72F2C",
" &	c #E8504E",
".&	c #D33B3B",
"+&	c #D23232",
"@&	c #D63333",
"#&	c #D93333",
"$&	c #DC3333",
"%&	c #E03333",
"&&	c #E33333",
"*&	c #E53333",
"=&	c #E93333",
"-&	c #EC3333",
";&	c #EF3333",
">&	c #F23333",
",&	c #F43534",
"'&	c #F53A38",
")&	c #F63F3C",
"!&	c #F7443F",
"~&	c #F84943",
"{&	c #F94E47",
"]&	c #F9534A",
"^&	c #FA574E",
"/&	c #FA5C51",
"(&	c #FD655A",
"_&	c #FF6B62",
":&	c #B22D2A",
"<&	c #150000",
"[&	c #0C0000",
"}&	c #701511",
"|&	c #AD3733",
"1&	c #B2403B",
"2&	c #B3403B",
"3&	c #B4413C",
"4&	c #B4423C",
"5&	c #B5423C",
"6&	c #B7413B",
"7&	c #B7403A",
"8&	c #B73E39",
"9&	c #B83C38",
"0&	c #B83B37",
"a&	c #B83935",
"b&	c #B93734",
"c&	c #B93533",
"d&	c #B93331",
"e&	c #B9312F",
"f&	c #B7312F",
"g&	c #B43230",
"h&	c #B23432",
"i&	c #A62928",
"j&	c #5E0707",
"k&	c #060000",
"        . + @ @ @ @ # # # # # $ % % & & & & & & & & * .         ",
"      = - ; > , ' ) ! ~ { ] ^ / ( _ : < [ } | 1 2 3 4 5 6       ",
"    7 8 9 0 a b c d e f g h i j k l m n o p q ; r s t u v w     ",
"  x y z A B C D E F G H I J K L M N O P Q R S T U V W X Y Z x   ",
"  `  ...+.@.#.$.%.&.*.=.-.;.>.,.'.).!.~.{.].^./.(._.:.<.<.[.}.  ",
"  |.1.2.3.4.5.6.7.8.9.0.a.b.c.d.d.e.f.g.h.i.j.k.l.m.n.o.p.q.r.  ",
"  s.t.u.v.w.x.y.z.A.B.C.D.E.u d.d.F.G.H.I.I.J.K.L.M.N.O.P.Q.R.  ",
"  s.S.T.U.V.W.X.Y.Z.`. +.+++@+d.d.#+$+%+.+&+*+=+-+;+>+,+'+)+R.  ",
"  s.!+~+{+]+^+/+(+_+:+<+[+}+|+d.d.1+2+g 3+4+5+6+7+8+9+0+a+b+c+  ",
"  d+e+f+g+h+i+j+k+l+m+d.n+o+p+d.d.q+r+d.d.s+t+u+v+w+x+y+z+A+B+  ",
"  d+C+D+E+F+G+H+I+d.d.d.J+K+L+d.d.M+N+O+d.d.d.P+Q+R+S+T+U+V+W+  ",
"  X+Y+Z+`+ @.@+@d.d.d.@@#@$@%@d.d.&@*@=@-@d.d.d.;@>@,@'@)@!@~@  ",
"  X+{@]@^@/@(@_@d.d.:@Q.<@[@}@d.d.|@1@2@3@4@d.d.5@6@7@8@9@0@a@  ",
"  X+b@c@d@e@f@d.d.O+g@h@i@j@k@d.d.l@m@n@o@p@d.d.d.q@)@r@s@t@a@  ",
"  R.u@v@w@x@y@d.d.L+z@A@B@C@D@d.O+E@F@G@H@I@J@d.d.K@L@M@N@O@P@  ",
"  B+Q@R@S@T@U@d.d.V@W@X@Y@Z@`@ #.#+#@###$#%#&#d.d.*#=#-#;#>#P@  ",
"  ~@,#'#)#!#~#d.d.{#]#^#/#(#_#:#<#[#}#|#1#2#3#d.d.4#5#6#7#8#9#  ",
"  0#a#b#c#d#: d.d.e#f#g#h#i#:#j#k#l#m#n#o#)@p#d.d.q#r#s#t#u#v#  ",
"  w#x#y#z#A#B#d.d.C#D#E#F#G#H#I#J#K#L#)@M#N#O#d.d.P#Q#R#S#T#v#  ",
"  U#V#W#X#Y#Z#d.d.`# $.$+$@$#$$$%$&$*$=$-$;$>$d.d.,$'$)$!$~${$  ",
"  ]$^$/$($_$:$<$d.d.[$}$|$1$2$3$4$5$6$-$7$8$d.d.9$0$a$b$c$d$e$  ",
"  f$g$h$i$j$k$l$d.d.d.m$n$o$2$%$&$5$&$p$q$d.d.d.r$'$s$t$u$v$w$  ",
"  x$y$z$A$k$B$C$D$d.d.d.E$F$G$@$H$I$0+J$d.d.d.K$L$M$N$O$P$Q$R$  ",
"  S$T$U$V$W$T$X$Y$Z$d.d.d.d.s+`$`$s+d.d.d.d. %.%+%@%#%$%%%&%*%  ",
"  =%X$-%;%y$>%,%'%)%!%~%d.d.d.d.d.d.d.d.{%]%^%/%(%@%_%:%<%[%}%  ",
"  |%1%U$2%B$>%,%3%4%5%6%7%8%9%0%a%b%c%d%e%f%g%h%i%@%j%:%k%l%m%  ",
"  n%o%p%2%B$X$,%3%4%q%|$V+2$r%s%t%u%v%w%x%y%z%A%7#@%_%O$B%C%D%  ",
"  E%F%G%H%W$I%J%'%K%L%|$1$M%3$4$5$)@N%O%P%Q%R%S%T%U%V%v$W%X%Y%  ",
"  Y%Z%`% &.&+&@&#&$&%&&&*&=&-&;&>&,&'&)&!&~&{&]&^&/&(&_&:&<&Y%  ",
"    Y%[&}&|&1&2&3&4&5&5&5&6&7&8&9&0&a&b&c&d&e&f&g&h&i&j&k&Y%    ",
"      Y%Y%Y%Y%Y%Y%Y%Y%Y%Y%Y%Y%Y%Y%Y%Y%Y%Y%Y%Y%Y%Y%Y%Y%Y%Y%      ",
"          Y%Y%Y%Y%Y%Y%Y%Y%Y%Y%Y%Y%Y%Y%Y%Y%Y%Y%Y%Y%Y%Y%          "};
