/* XPM */
static char * filefind_xpm[] = {
"32 32 320 2",
"  	c None",
". 	c #D9D9D9",
"+ 	c #D7D7D7",
"@ 	c #CACACA",
"# 	c #393939",
"$ 	c #D8D8D8",
"% 	c #FCFCFC",
"& 	c #F9F9F9",
"* 	c #E1E1E1",
"= 	c #141414",
"- 	c #F5F5F5",
"; 	c #E9E9E9",
"> 	c #CFCFCF",
", 	c #0D0D0D",
"' 	c #F3F3F3",
") 	c #E3E3E3",
"! 	c #D1D1D1",
"~ 	c #CBCBCB",
"{ 	c #0E0E0E",
"] 	c #C8C8C8",
"^ 	c #DCDCDC",
"/ 	c #C7C7C7",
"( 	c #FBFBFB",
"_ 	c #DADADA",
": 	c #C6C6C6",
"< 	c #C4C4C4",
"[ 	c #090909",
"} 	c #F7F7F7",
"| 	c #ECECEC",
"1 	c #B7B7B7",
"2 	c #B8B8B8",
"3 	c #B9B9B9",
"4 	c #BDBDBD",
"5 	c #050505",
"6 	c #EEEEEE",
"7 	c #E7E7E7",
"8 	c #DBDBDB",
"9 	c #2E2E2E",
"0 	c #E8E8E8",
"a 	c #E2E2E2",
"b 	c #333333",
"c 	c #BEBEBE",
"d 	c #929292",
"e 	c #A4A4A4",
"f 	c #EFEFEF",
"g 	c #B1B1B1",
"h 	c #F0F0F0",
"i 	c #8A8A8A",
"j 	c #A7A7A7",
"k 	c #313131",
"l 	c #AFAFAF",
"m 	c #484848",
"n 	c #4B4B4B",
"o 	c #474747",
"p 	c #878787",
"q 	c #939393",
"r 	c #7B7B7B",
"s 	c #6A6A6A",
"t 	c #8D8D8D",
"u 	c #8F8F8F",
"v 	c #4A4A4A",
"w 	c #959595",
"x 	c #616161",
"y 	c #555555",
"z 	c #6C6C6C",
"A 	c #707070",
"B 	c #727272",
"C 	c #5F5F5F",
"D 	c #8C8C8C",
"E 	c #717171",
"F 	c #686868",
"G 	c #5C5C5C",
"H 	c #4C4C4C",
"I 	c #C0C0C0",
"J 	c #848484",
"K 	c #9E9E9E",
"L 	c #949494",
"M 	c #818181",
"N 	c #636363",
"O 	c #575757",
"P 	c #777777",
"Q 	c #7C7C7C",
"R 	c #969696",
"S 	c #838383",
"T 	c #B2B2B2",
"U 	c #545454",
"V 	c #3D3D3D",
"W 	c #3E3E3E",
"X 	c #4E4E4E",
"Y 	c #999999",
"Z 	c #3B3B3B",
"` 	c #606060",
" .	c #565656",
"..	c #525252",
"+.	c #4D4D4D",
"@.	c #434343",
"#.	c #363636",
"$.	c #373737",
"%.	c #404040",
"&.	c #515151",
"*.	c #5D5D5D",
"=.	c #656565",
"-.	c #161616",
";.	c #A0A0A0",
">.	c #696969",
",.	c #626262",
"'.	c #454545",
").	c #3A3A3A",
"!.	c #2C2C2C",
"~.	c #595959",
"{.	c #2B2B2B",
"].	c #303030",
"^.	c #383838",
"/.	c #424242",
"(.	c #505050",
"_.	c #5B5B5B",
":.	c #6D6D6D",
"<.	c #5E5E5E",
"[.	c #353535",
"}.	c #2D2D2D",
"|.	c #252525",
"1.	c #1E1E1E",
"2.	c #171717",
"3.	c #757575",
"4.	c #1C1C1C",
"5.	c #242424",
"6.	c #2F2F2F",
"7.	c #5A5A5A",
"8.	c #000000",
"9.	c #D2D2D2",
"0.	c #444444",
"a.	c #191919",
"b.	c #0F0F0F",
"c.	c #0A0A0A",
"d.	c #040404",
"e.	c #858585",
"f.	c #A1A1A1",
"g.	c #030303",
"h.	c #080808",
"i.	c #3C3C3C",
"j.	c #464646",
"k.	c #979797",
"l.	c #9B9B9B",
"m.	c #060606",
"n.	c #010101",
"o.	c #070707",
"p.	c #BBBBBB",
"q.	c #D0D0D0",
"r.	c #151515",
"s.	c #7D7D7D",
"t.	c #181818",
"u.	c #F2F2F2",
"v.	c #020202",
"w.	c #1B1B1B",
"x.	c #797979",
"y.	c #121212",
"z.	c #1F1F1F",
"A.	c #737373",
"B.	c #E5E5E5",
"C.	c #6E6E6E",
"D.	c #292929",
"E.	c #202020",
"F.	c #676767",
"G.	c #666666",
"H.	c #787878",
"I.	c #5B5C5C",
"J.	c #828383",
"K.	c #7B7C7C",
"L.	c #A3A3A3",
"M.	c #1D1D1D",
"N.	c #151616",
"O.	c #717272",
"P.	c #868787",
"Q.	c #5E5F5F",
"R.	c #606667",
"S.	c #4C4F50",
"T.	c #555353",
"U.	c #545252",
"V.	c #404647",
"W.	c #2E3334",
"X.	c #7F7F7F",
"Y.	c #101010",
"Z.	c #292D2D",
"`.	c #3D4445",
" +	c #535353",
".+	c #585555",
"++	c #4C4E4E",
"@+	c #5C6466",
"#+	c #797A7A",
"$+	c #8F9090",
"%+	c #464A4B",
"&+	c #441712",
"*+	c #811F16",
"=+	c #9B291F",
"-+	c #972A21",
";+	c #6C1109",
">+	c #3B2624",
",+	c #303738",
"'+	c #686867",
")+	c #757474",
"!+	c #333839",
"~+	c #413433",
"{+	c #7E3529",
"]+	c #A84030",
"^+	c #B04736",
"/+	c #8F2414",
"(+	c #4A0E02",
"_+	c #414445",
":+	c #E4E4E4",
"<+	c #505555",
"[+	c #5C180A",
"}+	c #D73919",
"|+	c #EA3A1F",
"1+	c #ED3E25",
"2+	c #ED462E",
"3+	c #E3351F",
"4+	c #A90F00",
"5+	c #402825",
"6+	c #686C6C",
"7+	c #727474",
"8+	c #42312E",
"9+	c #BA3F28",
"0+	c #F74F2D",
"a+	c #FE5632",
"b+	c #FF5F3B",
"c+	c #FF5E3B",
"d+	c #E93808",
"e+	c #6D1C01",
"f+	c #252B2D",
"g+	c #CDCDCD",
"h+	c #2B2725",
"i+	c #CA3F13",
"j+	c #F94C18",
"k+	c #F1451C",
"l+	c #F14B23",
"m+	c #F2502A",
"n+	c #F44824",
"o+	c #F52803",
"p+	c #8D2819",
"q+	c #5A6162",
"r+	c #646A6B",
"s+	c #893422",
"t+	c #FF4F25",
"u+	c #FF5324",
"v+	c #FF5E2E",
"w+	c #FF6637",
"x+	c #FF693B",
"y+	c #FF5A1A",
"z+	c #E55110",
"A+	c #231914",
"B+	c #CCCCCC",
"C+	c #282B2C",
"D+	c #AD481F",
"E+	c #FF7740",
"F+	c #F45F2B",
"G+	c #F4612D",
"H+	c #F46432",
"I+	c #F55929",
"J+	c #FF5A2E",
"K+	c #823120",
"L+	c #5B6264",
"M+	c #656B6C",
"N+	c #783524",
"O+	c #FF7347",
"P+	c #FF7141",
"Q+	c #FF6F38",
"R+	c #FF7943",
"S+	c #FF7641",
"T+	c #FF8347",
"U+	c #C05C29",
"V+	c #191918",
"W+	c #4F5254",
"X+	c #312119",
"Y+	c #C46B46",
"Z+	c #FFA97E",
"`+	c #FFAA7B",
" @	c #FFA578",
".@	c #FF9A6F",
"+@	c #AD4F32",
"@@	c #37302E",
"#@	c #7D7F7F",
"$@	c #878788",
"%@	c #363231",
"&@	c #A34F34",
"*@	c #FFAE8A",
"=@	c #FFB78F",
"-@	c #FFBA90",
";@	c #FFB58D",
">@	c #D37E5A",
",@	c #37241B",
"'@	c #191D1E",
")@	c #BAB9B9",
"!@	c #383D3E",
"~@	c #23201E",
"{@	c #5B4134",
"]@	c #8A6E5C",
"^@	c #8A6956",
"/@	c #5A3B2D",
"(@	c #2D2C2B",
"_@	c #555859",
":@	c #5A5D5E",
"<@	c #57392D",
"[@	c #8B6E5F",
"}@	c #8D7769",
"|@	c #614B40",
"1@	c #25211F",
"2@	c #25292B",
"3@	c #303232",
"4@	c #292D2E",
"5@	c #222527",
"6@	c #24282A",
"7@	c #2F3437",
"8@	c #363637",
"9@	c #585858",
"0@	c #414141",
"a@	c #333434",
"b@	c #2F3436",
"c@	c #242829",
"d@	c #212526",
"e@	c #222425",
"      . + + + + + + + + + + + + + + + @ #                       ",
"    $ % % % % % % % % % % % % % % % & & * =                     ",
"    $ % % % % % % % % % % % % % % & - ; > + ,                   ",
"    $ % % % % % % % % % % % % % % & ' ) ! - ~ {                 ",
"    $ % % % % % % % % % % % % % % & ' * > % ' ] {               ",
"    $ % % % % % % % % % % % % % % & ' ^ ~ % % ' / {             ",
"    $ % % % % % % % % % % % % % % ( - _ : % % % - < [           ",
"    $ % % % % % % % % % % % % % % % } | 1 2 2 3 3 4 2 5         ",
"    $ % % % % % % % % % % % % % % % ( ' 6 7 * 8 _ 8 - 9         ",
"    $ % % % % % % % % % % % % % % % % & ' 6 0 7 a a % b         ",
"    $ % % % % % % % % % % c d e f % c g & h e i j 7 % k         ",
"    $ % ( ( ( ( ( ( ( ( l m n o p q r s t u v v v w % k         ",
"    $ % ( ( ( ( ( ( ( ( x y z A j d B C D j E F G H ( b         ",
"    $ % ( ( ( ( ( ( ( I J K L M r F N O N P Q p R S T k         ",
"    $ % & & & & & & 1 q L S B x N U V W X N x F P t Y Z         ",
"    $ % & & & & & a M P F `  ...+.@.#.$.%.H &.U *.=.P Q -.      ",
"    $ % } } } } } ;.>.,.*.&.'.).k !.n ~.{.].^./.(._.,.:.#       ",
"    $ % } } } } } B <.o [.].}.|.1.2.C 3.-.4.5.!.6.[.'.7.n 8.    ",
"    $ % - - - - 9.+.^.0.=.0.a.b.c.d.e.f.g.h.{ -.i.y %.$.j.b.    ",
"    $ % ' ' ' ' k.$.n s l.7.[ m.n.o.p.q.r.8.m.5 n s.<.X ).t.    ",
"    $ % u.u.u.u.X &.U ` M '.v.w.= ,.7 6 x.y.z.8.).A._...O a.8.  ",
"    $ % 6 6 6 B.(.` H N C.D.8.E.s.a 6 6 7 p D.8.z.F.G.n ` D.8.  ",
"    $ % | | | | H.<.I.J.K.z.8.-.R | | | | L.M.8.N.O.P.Q._.H 8.  ",
"    $ % ; ; ; 1 x.R.S.T.U.V.W., X.; ; ; ; u Y.Z.`. +.+++@+#+5.  ",
"    $ % ; ; ; $+%+&+*+=+-+;+>+,+'+; ; ; ; )+!+~+{+]+^+/+(+_+++  ",
"    $ % 0 0 :+<+[+}+|+1+2+3+4+5+6+0 0 0 0 7+8+9+0+a+b+c+d+e+f+8.",
"    $ % 7 7 g+h+i+j+k+l+m+n+o+p+q+7 7 7 7 r+s+t+u+v+w+x+y+z+A+8.",
"    $ % 7 7 B+C+D+E+F+G+H+I+J+K+L+7 7 7 7 M+N+O+P+Q+R+S+T+U+V+8.",
"    $ % a a _ W+X+Y+Z+`+ @.@+@@@#@) ) ) ) $@%@&@*@=@-@;@>@,@'@8.",
"    $ % % % % )@!@~@{@]@^@/@(@_@9.} } } } + :@9 <@[@}@|@1@2@m.  ",
"    $ z N ,.` <.@.3@4@5@6@7@8@@.9@O  . .y U 0@a@b@c@d@c@e@m.8.  ",
"    8.8.8.8.8.8.8.8.v.m.m.v.8.8.8.8.8.8.8.8.8.8.8.m.m.g.8.      "};
