/* XPM */
static char * fileprint_xpm[] = {
"32 32 313 2",
"  	c None",
". 	c #000000",
"+ 	c #575757",
"@ 	c #1B1B1B",
"# 	c #666666",
"$ 	c #A5A5A5",
"% 	c #A2A2A2",
"& 	c #A1A1A1",
"* 	c #AFAFAF",
"= 	c #FEFEFE",
"- 	c #8F8F8F",
"; 	c #9C9C9C",
"> 	c #FDFDFD",
", 	c #DDDDDD",
"' 	c #E7E7E7",
") 	c #888888",
"! 	c #8C8C8C",
"~ 	c #FBFBFB",
"{ 	c #F6F6F6",
"] 	c #F2F2F2",
"^ 	c #EEEEEE",
"/ 	c #E9E9E9",
"( 	c #E8E8E8",
"_ 	c #D1D1D1",
": 	c #191919",
"< 	c #959595",
"[ 	c #FCFCFC",
"} 	c #F8F8F8",
"| 	c #F3F3F3",
"1 	c #F0F0F0",
"2 	c #ECECEC",
"3 	c #494949",
"4 	c #F9F9F9",
"5 	c #D8D8D8",
"6 	c #EDEDED",
"7 	c #E6E6E6",
"8 	c #E4E4E4",
"9 	c #D0D0D0",
"0 	c #4F4F4F",
"a 	c #DADADA",
"b 	c #F7F7F7",
"c 	c #EBEBEB",
"d 	c #E3E3E3",
"e 	c #E2E2E2",
"f 	c #CFCFCF",
"g 	c #555555",
"h 	c #D5D5D5",
"i 	c #F5F5F5",
"j 	c #F1F1F1",
"k 	c #E1E1E1",
"l 	c #E0E0E0",
"m 	c #CECECE",
"n 	c #DEDEDE",
"o 	c #CCCCCC",
"p 	c #DCDCDC",
"q 	c #C5C5C5",
"r 	c #FEFEFB",
"s 	c #FCFBF7",
"t 	c #F8F7F2",
"u 	c #F5F2EE",
"v 	c #F1EEEB",
"w 	c #EEECE7",
"x 	c #EBE8E3",
"y 	c #E7E4E0",
"z 	c #E2E1DC",
"A 	c #E0DDDB",
"B 	c #CCCCCB",
"C 	c #EDEDEC",
"D 	c #B1B2B2",
"E 	c #DEE4F3",
"F 	c #CAD5EE",
"G 	c #BDCBEC",
"H 	c #B3C4E9",
"I 	c #B6C5E8",
"J 	c #BCC9E8",
"K 	c #BDCAE7",
"L 	c #BBC6E3",
"M 	c #B8C5E1",
"N 	c #B3C2DE",
"O 	c #A8B7DA",
"P 	c #ABB9D7",
"Q 	c #ACB9D6",
"R 	c #B0BBD3",
"S 	c #B8BFD1",
"T 	c #C3C4C6",
"U 	c #868686",
"V 	c #0A0A0A",
"W 	c #696969",
"X 	c #E6E4E0",
"Y 	c #93A6CF",
"Z 	c #819EE3",
"` 	c #A9BDEE",
" .	c #A6BCF0",
"..	c #ABC0F2",
"+.	c #B1C5F3",
"@.	c #B5C8F5",
"#.	c #B6CAF6",
"$.	c #B5C9F6",
"%.	c #B2C6F6",
"&.	c #AEC3F5",
"*.	c #A8BEF3",
"=.	c #A2B9F1",
"-.	c #A1B8ED",
";.	c #83A0E6",
">.	c #7B95CB",
",.	c #929292",
"'.	c #161616",
").	c #636363",
"!.	c #AEAEAE",
"~.	c #B0C4F2",
"{.	c #8FAAEC",
"].	c #B2C8F6",
"^.	c #AFC5F5",
"/.	c #ABC3F2",
"(.	c #A9C0F1",
"_.	c #A8BFF1",
":.	c #A7BFF1",
"<.	c #A6BDF1",
"[.	c #A3BCF1",
"}.	c #A1B9F0",
"|.	c #9EB7F1",
"1.	c #9CB6F0",
"2.	c #9BB6F0",
"3.	c #90ACEE",
"4.	c #88A4E0",
"5.	c #ECEBEB",
"6.	c #DFDFDF",
"7.	c #C3C3C3",
"8.	c #979797",
"9.	c #4E4E4E",
"0.	c #878787",
"a.	c #B7CAF1",
"b.	c #7998E4",
"c.	c #8FA7E4",
"d.	c #91ACE7",
"e.	c #8FAFE7",
"f.	c #8CABE4",
"g.	c #87A9E3",
"h.	c #85A7E2",
"i.	c #83A4E2",
"j.	c #82A3E3",
"k.	c #82A2E4",
"l.	c #82A1E7",
"m.	c #83A1E8",
"n.	c #83A0E8",
"o.	c #7596E6",
"p.	c #87A3E1",
"q.	c #101010",
"r.	c #BBCEF5",
"s.	c #5881D5",
"t.	c #6D8BBE",
"u.	c #708EBE",
"v.	c #6F92C9",
"w.	c #6C99DA",
"x.	c #6B98D7",
"y.	c #6A97D6",
"z.	c #6693D5",
"A.	c #6591D6",
"B.	c #628ED6",
"C.	c #5F8BD6",
"D.	c #5D86D7",
"E.	c #5E86DB",
"F.	c #688DE2",
"G.	c #567CE1",
"H.	c #809FE2",
"I.	c #383838",
"J.	c #C4D6F7",
"K.	c #3F72CE",
"L.	c #3869B5",
"M.	c #3769B1",
"N.	c #376DB7",
"O.	c #346FBF",
"P.	c #3672BF",
"Q.	c #3773BF",
"R.	c #427BC6",
"S.	c #346EC0",
"T.	c #2D67BF",
"U.	c #2861BF",
"V.	c #235BBF",
"W.	c #1C52BE",
"X.	c #1B4EC2",
"Y.	c #2455CF",
"Z.	c #84A2E6",
"`.	c #181818",
" +	c #4D4D4D",
".+	c #C9DBF8",
"++	c #5A8FE6",
"@+	c #5C95E1",
"#+	c #5993DC",
"$+	c #5D99DC",
"%+	c #5F9BDB",
"&+	c #619EDB",
"*+	c #629EDC",
"=+	c #6EA8E3",
"-+	c #5F99DD",
";+	c #5690DB",
">+	c #5189DB",
",+	c #4A81DB",
"'+	c #4278DB",
")+	c #4376E0",
"!+	c #3B6CE3",
"~+	c #88A6E9",
"{+	c #262626",
"]+	c #4B4B4B",
"^+	c #D0E2FB",
"/+	c #3A75CB",
"(+	c #3C76C3",
"_+	c #4682C6",
":+	c #4B86C6",
"<+	c #4F89C6",
"[+	c #518BC6",
"}+	c #5089C6",
"|+	c #4C86C5",
"1+	c #4985C6",
"2+	c #4480C6",
"3+	c #3E77C6",
"4+	c #376EC6",
"5+	c #2F66C6",
"6+	c #275BC5",
"7+	c #164AC4",
"8+	c #87A4E8",
"9+	c #242424",
"0+	c #FEFEFD",
"a+	c #E3F1FE",
"b+	c #4D87D2",
"c+	c #2261B0",
"d+	c #2B69B1",
"e+	c #316DB1",
"f+	c #366FB1",
"g+	c #3972B1",
"h+	c #3870B1",
"i+	c #356FB1",
"j+	c #2F6CB1",
"k+	c #2968B1",
"l+	c #2260B1",
"m+	c #1B57B1",
"n+	c #144DB1",
"o+	c #0B41B0",
"p+	c #194EC5",
"q+	c #A7BFF0",
"r+	c #F1F1F0",
"s+	c #CFE2F2",
"t+	c #A2C8E7",
"u+	c #A2C5E3",
"v+	c #A9C9E4",
"w+	c #ACCBE4",
"x+	c #AFCCE4",
"y+	c #AECCE4",
"z+	c #ABCBE4",
"A+	c #A7C9E4",
"B+	c #A1C5E4",
"C+	c #9BC2E4",
"D+	c #96BBE4",
"E+	c #8EB3E4",
"F+	c #88ACE4",
"G+	c #AAC3EC",
"H+	c #E7E9ED",
"I+	c #E4E4E3",
"J+	c #E9E7E3",
"K+	c #EDE9E6",
"L+	c #EDE9E7",
"M+	c #ECE9E7",
"N+	c #EDEBE7",
"O+	c #EEEBE7",
"P+	c #EEECE6",
"Q+	c #ECE9E4",
"R+	c #E6E6E4",
"S+	c #D6D6D6",
"T+	c #DBDBDB",
"U+	c #9A9A9A",
"V+	c #595959",
"W+	c #5A5A5A",
"X+	c #7B7B7B",
"Y+	c #D7D7D7",
"Z+	c #D3D3D3",
"`+	c #C8C8C8",
" @	c #989898",
".@	c #D2D2D2",
"+@	c #3F3F3F",
"@@	c #C9C9C9",
"#@	c #B7B7B7",
"$@	c #1C1C1C",
"%@	c #3C3C3C",
"&@	c #484848",
"*@	c #474747",
"=@	c #464646",
"-@	c #454545",
";@	c #444444",
">@	c #414141",
",@	c #060606",
"'@	c #7C7C7C",
")@	c #353535",
"!@	c #CBCBCB",
"~@	c #C2C2C2",
"{@	c #848484",
"]@	c #1E1E1E",
"^@	c #505050",
"/@	c #6A6A6A",
"(@	c #656565",
"_@	c #616161",
":@	c #B0B0B0",
"<@	c #626262",
"[@	c #686868",
"}@	c #676767",
"|@	c #6C6C6C",
"1@	c #404040",
"2@	c #808080",
"3@	c #B6B6B6",
"4@	c #525252",
"5@	c #545454",
"6@	c #565656",
"7@	c #535353",
"8@	c #4C4C4C",
"                                                                ",
"                                              . + @             ",
"              # $ % % % % % % % % % % % % % & * = -             ",
"            . ; = = = = = = = = = = = = = = > , ' )             ",
"              ! = = = = = = = = = ~ { ] ^ / ( _ ( )             ",
"          . : < = = = = = = = = [ } | 1 2 ( ' _ / )             ",
"          3 4 5 = = = = = = = > 4 { ] 6 / 7 8 9 / )             ",
"          0 = a = = = = = = = [ b | 1 c ' d e f / )             ",
"          g = h = = = = = = > 4 i j 2 ( 7 k l m c )             ",
"          + = _ = = = = = = ~ b ] ^ c ' d l n o c )             ",
"          + = o = = = = = [ } i 1 2 ( 8 k , p o 2 )             ",
"          + = q = = = = = r s t u v w x y z A B 2 )             ",
"          0 C D E F G H I J K L M N O P Q R S T C U             ",
"        V W X Y Z `  ...+.@.#.$.$.%.&.*.=.-.;.>.w ,.'..         ",
"  . ).!.k ~ = ~.{.].^./.(._.:.<.[.}.|.1.2.1.3.4.= 5.6.7.8.9..   ",
". 0.= = = = = a.b.c.c.d.e.f.g.h.i.j.k.l.m.n.o.p.= = = = = = g   ",
"q.j = = = = = r.s.t.u.v.w.x.y.z.A.B.C.D.E.F.G.H.= = = = = = m . ",
"I.= = = = = = J.K.L.M.N.O.P.Q.R.S.T.U.V.W.X.Y.Z.= = = = = = 4 `.",
" += = = = = = .+++@+#+$+%+&+*+=+-+;+>+,+'+)+!+~+= = = = = = = {+",
"]+= = = = = = ^+/+(+_+:+<+[+}+|+1+2+3+4+5+6+7+8+= = = = = = = 9+",
"]+= > [ [ [ 0+a+b+c+d+e+f+g+h+i+j+k+l+m+n+o+p+q+0+[ [ [ [ [ ~ 9+",
"]+~ ^ 1 1 1 1 r+s+t+u+v+w+x+y+z+A+B+C+D+E+F+G+H+r+1 1 1 1 ^ | 9+",
"]+| d d d d d I+J+K+L+M+M+M+M+M+M+L+L+N+O+P+Q+R+d d d 8 7 7 2 9+",
"]+c p p p p 7 6 6 6 6 6 6 6 6 6 6 6 6 6 6 6 6 6 / , , S+_ T+7 9+",
"3 d h h h p U+V+V+V+V+V+V+V+W+W+W+W+W+W+W+W+W+V+X+Y+S+h Z+S+n 9+",
"3 p m m 9 `+q.. . . . . . . . . . . . . . . . . .  @5 h S+.@Y+9+",
"+@h q q @@#@$@%@]+3 &@&@*@*@=@=@=@-@-@-@;@;@-@>@,@'@.@`+q `+_ {+",
")@Y+o !@o ~@U 5 T+T+T+T+T+T+T+T+T+T+T+T+T+T+T+l {@% _ !@!@o .@]@",
". ^@/@(@# _@:@a .@.@.@.@.@.@.@.@.@.@.@.@.@.@.@S+~@<@[@}@}@|@=@. ",
". . . . . '.6.8 k k k k k k k l , k k k k k k e ^ 1@. . . . .   ",
"          2@c T+T+T+T+T+T+a k ' f h n , , , , , ' 3@.           ",
"        . I.g 4@4@4@4@4@4@4@5@6@6@4@4@4@4@4@4@4@7@8@.           "};
