/* XPM */
static char * mail_send_xpm[] = {
"32 32 339 2",
"  	c None",
". 	c #9393BE",
"+ 	c #9090BB",
"@ 	c #8F8FBB",
"# 	c #8E8EBA",
"$ 	c #666687",
"% 	c #000000",
"& 	c #9797C0",
"* 	c #9494BE",
"= 	c #9292BD",
"- 	c #9191BC",
"; 	c #ABABCC",
"> 	c #7979A2",
", 	c #9595BC",
"' 	c #9696BE",
") 	c #9696BF",
"! 	c #B9B9D6",
"~ 	c #EDEDF4",
"{ 	c #DADAE9",
"] 	c #B8B8D5",
"^ 	c #8686B3",
"/ 	c #282837",
"( 	c #9898BE",
"_ 	c #9999C1",
": 	c #9999C2",
"< 	c #9D9DC5",
"[ 	c #C9C9E0",
"} 	c #F0F0F6",
"| 	c #FBFBFD",
"1 	c #F9F9FB",
"2 	c #D3D3E5",
"3 	c #E6E6F0",
"4 	c #8686B5",
"5 	c #616185",
"6 	c #9D9DC3",
"7 	c #9C9CC3",
"8 	c #9C9CC4",
"9 	c #A6A6CA",
"0 	c #CACAE0",
"a 	c #F8F8FA",
"b 	c #FEFEFE",
"c 	c #FDFDFE",
"d 	c #FAFAFC",
"e 	c #D2D2E4",
"f 	c #F2F2F7",
"g 	c #9E9EC5",
"h 	c #7C7CAD",
"i 	c #A0A0C5",
"j 	c #9F9FC5",
"k 	c #9F9FC6",
"l 	c #A9A9CC",
"m 	c #D9D9E9",
"n 	c #CBCBE0",
"o 	c #7F7FB1",
"p 	c #4F4F70",
"q 	c #A4A4C8",
"r 	c #A3A3C8",
"s 	c #A2A2C7",
"t 	c #B7B7D5",
"u 	c #FCFCFE",
"v 	c #FAFAFB",
"w 	c #F7F7FA",
"x 	c #DBDBE9",
"y 	c #DDDDEA",
"z 	c #EFEFF6",
"A 	c #EBEBF4",
"B 	c #8B8BB8",
"C 	c #6C6C98",
"D 	c #A8A8CA",
"E 	c #A7A7CA",
"F 	c #A5A5CA",
"G 	c #BABAD6",
"H 	c #E7E7F1",
"I 	c #FBFBFC",
"J 	c #F5F5FA",
"K 	c #CACADF",
"L 	c #EDEDF5",
"M 	c #EAEAF3",
"N 	c #7979AD",
"O 	c #37374F",
"P 	c #AEAECF",
"Q 	c #ACACCC",
"R 	c #AAAACB",
"S 	c #C7C7DE",
"T 	c #EEEEF5",
"U 	c #F3F3F8",
"V 	c #B4B4D1",
"W 	c #EEEEF6",
"X 	c #EBEBF3",
"Y 	c #E9E9F2",
"Z 	c #DFDFED",
"` 	c #7E7EB0",
" .	c #60608B",
"..	c #ACACCA",
"+.	c #AEAECE",
"@.	c #ADADCE",
"#.	c #ACACCD",
"$.	c #C9C9DF",
"%.	c #F4F4F9",
"&.	c #B2B2D0",
"*.	c #E7E7F2",
"=.	c #E5E5F0",
"-.	c #7171A6",
";.	c #B1B1D1",
">.	c #D5D5E6",
",.	c #DCDCE9",
"'.	c #BFBFD8",
").	c #E8E8F2",
"!.	c #E3E3EE",
"~.	c #D2D2E5",
"{.	c #7272A7",
"].	c #53537C",
"^.	c #BFBFD9",
"/.	c #E1E1ED",
"(.	c #E4E4EE",
"_.	c #F1F1F7",
":.	c #CBCBDF",
"<.	c #C8C8DD",
"[.	c #E4E4EF",
"}.	c #E1E1EE",
"|.	c #DEDEEC",
"1.	c #8A8AB8",
"2.	c #68689B",
"3.	c #A4A4C3",
"4.	c #D6D6E6",
"5.	c #CDCDE0",
"6.	c #E0E0ED",
"7.	c #DDDDEB",
"8.	c #6C6CA4",
"9.	c #434367",
"0.	c #727288",
"a.	c #C0C0D9",
"b.	c #C4C4DB",
"c.	c #DEDEEB",
"d.	c #F1F1F6",
"e.	c #9E9EC2",
"f.	c #E6E6F1",
"g.	c #E0E0EE",
"h.	c #DBDBEA",
"i.	c #7777AB",
"j.	c #5B5B8D",
"k.	c #9D9DBF",
"l.	c #AFAFD0",
"m.	c #C2C2D9",
"n.	c #B1B1CF",
"o.	c #C3C3DA",
"p.	c #9D9DC1",
"q.	c #DCDCEB",
"r.	c #D7D7E8",
"s.	c #66669F",
"t.	c #2E2E48",
"u.	c #8787A5",
"v.	c #EAEAF2",
"w.	c #ABABCB",
"x.	c #A8A8C8",
"y.	c #BDBDD6",
"z.	c #D4D4E5",
"A.	c #A4A4C7",
"B.	c #DDDDEC",
"C.	c #D5D5E7",
"D.	c #CBCBE1",
"E.	c #6A6AA3",
"F.	c #50507F",
"G.	c #9C9CC1",
"H.	c #B6B6D3",
"I.	c #A1A1C5",
"J.	c #B3B3D0",
"K.	c #B6B6D2",
"L.	c #D0D0E4",
"M.	c #D4D4E6",
"N.	c #DCDCEA",
"O.	c #D6D6E8",
"P.	c #D1D1E5",
"Q.	c #5E5E99",
"R.	c #8F8FB2",
"S.	c #E3E9E8",
"T.	c #BED6BE",
"U.	c #BED5BE",
"V.	c #EEF4EE",
"W.	c #9494BB",
"X.	c #C6C6DC",
"Y.	c #5E5E9A",
"Z.	c #454571",
"`.	c #005F00",
" +	c #1C6D23",
".+	c #006B00",
"++	c #007400",
"@+	c #006700",
"#+	c #307A30",
"$+	c #9EC19E",
"%+	c #FCFCFD",
"&+	c #CFCFE3",
"*+	c #C9C9DE",
"=+	c #CECEE2",
"-+	c #C5C5DD",
";+	c #C2C2DB",
">+	c #7676AB",
",+	c #55558F",
"'+	c #006400",
")+	c #007300",
"!+	c #58BD58",
"~+	c #B3ECB3",
"{+	c #F3FCF3",
"]+	c #C3F0C3",
"^+	c #76C376",
"/+	c #0F770F",
"(+	c #4E8D4F",
"_+	c #E8EEEA",
":+	c #C8C8DF",
"<+	c #C4C4DC",
"[+	c #7979AC",
"}+	c #585895",
"|+	c #006200",
"1+	c #0D860D",
"2+	c #ABEAAB",
"3+	c #D5F5D5",
"4+	c #C2EBC2",
"5+	c #D2F2D2",
"6+	c #C6F2C6",
"7+	c #268A26",
"8+	c #4D8B4E",
"9+	c #CDCDE2",
"0+	c #C6C6DE",
"a+	c #8C8CB9",
"b+	c #5B5B97",
"c+	c #585891",
"d+	c #484870",
"e+	c #005E00",
"f+	c #006F00",
"g+	c #90DE90",
"h+	c #B3EEB3",
"i+	c #A3DCA3",
"j+	c #EFF7EF",
"k+	c #FFFFFF",
"l+	c #D2F5D2",
"m+	c #A7EBA7",
"n+	c #157915",
"o+	c #96B99A",
"p+	c #64649E",
"q+	c #5A5A95",
"r+	c #464674",
"s+	c #12121E",
"t+	c #005B00",
"u+	c #3EB03E",
"v+	c #90E690",
"w+	c #8DD28D",
"x+	c #EFF6EF",
"y+	c #BCF0BC",
"z+	c #51BC51",
"A+	c #2D772E",
"B+	c #6E6EA4",
"C+	c #4E4E81",
"D+	c #202035",
"E+	c #57D757",
"F+	c #6CDE6C",
"G+	c #76CC76",
"H+	c #EFF5EF",
"I+	c #8CE38C",
"J+	c #0FC20F",
"K+	c #00BD00",
"L+	c #C9CED9",
"M+	c #C0C0DA",
"N+	c #61619C",
"O+	c #56568D",
"P+	c #2A2A45",
"Q+	c #46D546",
"R+	c #3ABE3A",
"S+	c #DAF7DA",
"T+	c #CFF3CF",
"U+	c #30C930",
"V+	c #ACC3B4",
"W+	c #64649D",
"X+	c #5E5E95",
"Y+	c #3B3B61",
"Z+	c #20CC20",
"`+	c #1DC51D",
" @	c #D3F5D3",
".@	c #2DCF2D",
"+@	c #40CE40",
"@@	c #8FE38F",
"#@	c #DFF7DF",
"$@	c #20C620",
"%@	c #00BE00",
"&@	c #AEC5B5",
"*@	c #D6D6E7",
"=@	c #A0A0C6",
"-@	c #6D6DA4",
";@	c #62629B",
">@	c #4D4D7A",
",@	c #02C602",
"'@	c #40D440",
")@	c #00C500",
"!@	c #006800",
"~@	c #D9DEE2",
"{@	c #B2B2D1",
"]@	c #6767A0",
"^@	c #525281",
"/@	c #141420",
"(@	c #02A202",
"_@	c #04CD04",
":@	c #42D942",
"<@	c #02B002",
"[@	c #2C762E",
"}@	c #C5C5DC",
"|@	c #8888B7",
"1@	c #6A6AA2",
"2@	c #5F5F92",
"3@	c #242437",
"4@	c #026A02",
"5@	c #17CA17",
"6@	c #19D219",
"7@	c #E1F2E1",
"8@	c #37D837",
"9@	c #037103",
"0@	c #94B09F",
"a@	c #646499",
"b@	c #393957",
"c@	c #087208",
"d@	c #31D731",
"e@	c #4CDC4C",
"f@	c #59DE59",
"g@	c #118911",
"h@	c #40794D",
"i@	c #6F6FA6",
"j@	c #6B6BA1",
"k@	c #49496F",
"l@	c #086B08",
"m@	c #2BAB2B",
"n@	c #49DC49",
"o@	c #30B330",
"p@	c #2E6741",
"q@	c #7070A6",
"r@	c #555580",
"s@	c #161621",
"t@	c #167C16",
"u@	c #115D19",
"v@	c #566D7E",
"w@	c #61618F",
"x@	c #27273A",
"                                        . + @ # $ % %           ",
"                                    & * = - ; # > % %           ",
"                                , ' ) . ! ~ { ] ^ / %           ",
"                            ( _ : < [ } | 1 2 3 4 5 % %         ",
"                        6 7 8 9 0 a b c d a e f g h % %         ",
"                    i j k l m b b b c | 1 } 0 } n o p % %       ",
"                q r s t { b b b b b u v w x y z A B C % %       ",
"          ; D E F G H b b b b b b c I a J K 3 L M ] N O % %     ",
"      P Q R l S T b b b b b b b b | 1 w U V W X Y Z `  .% %     ",
"  ..+.@.#.$.U b b b b b b b b b c d a %.f &.~ Y *.=.< -.% %     ",
"  ;.;.>.1 b b b b b b b b b b c | 1 J U ,.'.M ).3 !.~.{.].% %   ",
"  +.^./.(.w b b b b b b b b b u v w %._.:.<.Y H [.}.|.1.2.% %   ",
"  3.; 1 w 4.5.6.J b b b b b c I a J f } V >.).=.!.Z 7.] 8.9.% % ",
"  0.l ~.b b d ,.a.b.c.%.b b | 1 w U d.z e.[.f.[.g.|.h.m i.j.% % ",
"  % k.l.b b b b b !.m.n.o.c.%.a %.f z }.p.*.=.}.Z q.{ r.q s.t.% ",
"    u.s x b b b b b b v.m.w.x.y.z.X T n A.|.!.g.B.h.m C.D.E.F.% ",
"    % G.H.b b b b b b b u z b.I.e.p.J.w.K.L.n M.N.{ O.M.P.1.Q.% ",
"    % R.7 S.T.U.V.b b c I a J Z R p.( W.X.!.q.L.S 0 2 ~.L.^.Y.Z.",
"      `. +.+++++@+#+$+%+1 w U C.&+X *+p.=+g.|.h.m L.-+;+0 D.>+,+",
"    '+)+!+~+{+{+]+^+/+(+_+%.} :+|.v.*.=.}.Z q.{ r.M.~.=+<+;.[+}+",
"  |+1+2+3+3+4+5+3+3+6+7+8+U }.9+M ).3 !.g.B.h.m C.2 L.0+a+b+c+d+",
"e+f+g+h+h+i+j+k+l+h+h+m+n+o+C.{ Y H [.}.|.N.{ O.M.P.< p+q+r+s+% ",
"t+u+v+v+w+x+k+k+k+y+v+v+z+A+[ ).).=.!.Z 7.x r.>.P B+Y.C+D+% % % ",
"t+E+F+G+H+k+k+k+k+k+I+J+K+@+L+Y f.[.g.|.N.m M+` N+O+P+% % % % % ",
"++Q+R+H+k+S+k+k+T+k+k+U+K+++V+*.=.}.Z q.~.@ W+X+Y+% % % % % %   ",
"++Z+`+ @ @.@k+k++@@@#@$@%@++&@f.!.g.*@=@-@;@>@% % % % % %       ",
"t+,@,@,@,@,@k+k+'@)@)@)@)@!@~@[.}.{@i.]@^@/@% % % % %           ",
"t+(@_@_@_@_@k+k+:@_@_@_@<@[@=.}@|@1@2@3@% % % % %               ",
"t+4@5@6@6@6@7@k+8@6@6@6@9@0@= -@a@b@% % % % %                   ",
"  t+c@.@d@d@e@f@d@d@.@g@h@i@j@k@% % % % % %                     ",
"    t+l@m@n@n@n@n@o@l@p@q@r@s@% % % % %                         ",
"      t+t+t+t@t@t+u@v@w@x@% % % % %                             "};
