/* XPM */
static char * misc_xpm[] = {
"32 32 425 2",
"  	c None",
". 	c #777779",
"+ 	c #FDFDFD",
"@ 	c #2D2D2D",
"# 	c #000000",
"$ 	c #A1A1A5",
"% 	c #4D4D50",
"& 	c #191919",
"* 	c #AFAFB5",
"= 	c #FEFEFE",
"- 	c #6A6A6E",
"; 	c #B2B2B7",
"> 	c #616163",
", 	c #363636",
"' 	c #E7E7EA",
") 	c #ADADB0",
"! 	c #D6D6DE",
"~ 	c #D5D6E1",
"{ 	c #DADBE6",
"] 	c #DDDDE6",
"^ 	c #C2C2C7",
"/ 	c #B4B4B8",
"( 	c #BEBEC4",
"_ 	c #0C0C11",
": 	c #E4E4ED",
"< 	c #DCDDE8",
"[ 	c #ABAFC4",
"} 	c #999EB3",
"| 	c #9EA2B7",
"1 	c #A2A8BB",
"2 	c #AEB2C4",
"3 	c #C3C6D7",
"4 	c #E4E6F1",
"5 	c #F9F9FE",
"6 	c #74747A",
"7 	c #C2C2CB",
"8 	c #434347",
"9 	c #98989B",
"0 	c #BFC3D3",
"a 	c #888EA6",
"b 	c #A6AABE",
"c 	c #BEC2D1",
"d 	c #C4C8D6",
"e 	c #C4C8D7",
"f 	c #C2C6D5",
"g 	c #BCBFD0",
"h 	c #B7BCCC",
"i 	c #D3D5E2",
"j 	c #D6D5DD",
"k 	c #38383B",
"l 	c #86868E",
"m 	c #727278",
"n 	c #4F4F54",
"o 	c #F6F7FE",
"p 	c #ECEDF6",
"q 	c #C4C8D8",
"r 	c #898FA7",
"s 	c #B6B9CB",
"t 	c #C0C4D5",
"u 	c #BEC2D3",
"v 	c #BEC3D3",
"w 	c #BEC2D2",
"x 	c #BBBFD1",
"y 	c #B7BBCC",
"z 	c #D3D6E4",
"A 	c #E7E8F2",
"B 	c #C6CADD",
"C 	c #A1A3B8",
"D 	c #0F0F0F",
"E 	c #A1A2AE",
"F 	c #D7D8E8",
"G 	c #8F93AC",
"H 	c #AEB2C6",
"I 	c #B9BDD0",
"J 	c #BCBFD1",
"K 	c #C2C4D5",
"L 	c #CCCFDE",
"M 	c #D1D5E3",
"N 	c #CACCDC",
"O 	c #B5B8CC",
"P 	c #B3B7CB",
"Q 	c #C8CADC",
"R 	c #A4A7BF",
"S 	c #3E3F49",
"T 	c #616167",
"U 	c #B8BCD3",
"V 	c #9A9FB7",
"W 	c #B3B7CC",
"X 	c #B7BBCF",
"Y 	c #AFB2C8",
"Z 	c #9EA2BD",
"` 	c #767A91",
" .	c #64677E",
"..	c #9598B2",
"+.	c #A4A9C0",
"@.	c #B6B9CE",
"#.	c #ABB0C6",
"$.	c #999EB9",
"%.	c #9496AB",
"&.	c #050505",
"*.	c #131313",
"=.	c #90929F",
"-.	c #A4A9C4",
";.	c #A3A8C0",
">.	c #B0B3CA",
",.	c #B6B9CF",
"'.	c #9BA0BD",
").	c #55586C",
"!.	c #21232C",
"~.	c #878CA9",
"{.	c #A6A9C3",
"].	c #B7BBD0",
"^.	c #989CB7",
"/.	c #8589A8",
"(.	c #9FA2BD",
"_.	c #383B42",
":.	c #575961",
"<.	c #B4B6CA",
"[.	c #9BA0BB",
"}.	c #B0B3CB",
"|.	c #B2B5CC",
"1.	c #A2A7C2",
"2.	c #1A1A20",
"3.	c #717384",
"4.	c #A8ABC8",
"5.	c #AAACC5",
"6.	c #979AB6",
"7.	c #8E91AF",
"8.	c #9398B5",
"9.	c #A1A4BF",
"0.	c #85889F",
"a.	c #5F6171",
"b.	c #B3B8D7",
"c.	c #AAAFC9",
"d.	c #9A9FBC",
"e.	c #A3A8C2",
"f.	c #AFB3CB",
"g.	c #B5B8D0",
"h.	c #B9BCD3",
"i.	c #2E2E31",
"j.	c #8E90A0",
"k.	c #B0B2CE",
"l.	c #AEB0C8",
"m.	c #A2A6BF",
"n.	c #969AB5",
"o.	c #9095B2",
"p.	c #868BA9",
"q.	c #63667F",
"r.	c #030303",
"s.	c #1B1B20",
"t.	c #7C8097",
"u.	c #9EA3C3",
"v.	c #A2A6C2",
"w.	c #AFB2CC",
"x.	c #BCBED5",
"y.	c #C3C5DC",
"z.	c #B0B2BE",
"A.	c #6F6F73",
"B.	c #A6A6A6",
"C.	c #75757A",
"D.	c #CACBE0",
"E.	c #BCBDD3",
"F.	c #B7B9D0",
"G.	c #9CA1BC",
"H.	c #8D91B0",
"I.	c #23252E",
"J.	c #4A4C5A",
"K.	c #A4AAC9",
"L.	c #A9ACC8",
"M.	c #B3B6CF",
"N.	c #C2C4DA",
"O.	c #CCCEE2",
"P.	c #DBDBEE",
"Q.	c #E3E3F4",
"R.	c #DCDCEC",
"S.	c #E3E3F6",
"T.	c #D0D0E4",
"U.	c #CBCBE0",
"V.	c #BDBFD5",
"W.	c #B0B2CA",
"X.	c #767A96",
"Y.	c #1C1C21",
"Z.	c #878B9E",
"`.	c #9398B6",
" +	c #B1B5CC",
".+	c #B9BCD2",
"++	c #C5C6DB",
"@+	c #D3D5E7",
"#+	c #D7D6E8",
"$+	c #D6D6E8",
"%+	c #D7D7E9",
"&+	c #D1D1E4",
"*+	c #BFC0D6",
"=+	c #BDBFD3",
"-+	c #7A809F",
";+	c #333444",
">+	c #424552",
",+	c #9298BC",
"'+	c #8084A3",
")+	c #CBCEDD",
"!+	c #CBCCE0",
"~+	c #D2D2E6",
"{+	c #D0D0E3",
"]+	c #D1D2E3",
"^+	c #BCBED2",
"/+	c #767C9A",
"(+	c #747A9B",
"_+	c #5A5E7A",
":+	c #919191",
"<+	c #030307",
"[+	c #252630",
"}+	c #111116",
"|+	c #54576D",
"1+	c #A1A6BF",
"2+	c #DADBE7",
"3+	c #E4E4F1",
"4+	c #DCDCED",
"5+	c #D8D8EB",
"6+	c #E1E1F0",
"7+	c #E7E7F2",
"8+	c #757A97",
"9+	c #191B25",
"0+	c #12151B",
"a+	c #23252D",
"b+	c #CBCBCE",
"c+	c #AEAEB1",
"d+	c #686868",
"e+	c #101015",
"f+	c #767A99",
"g+	c #8D92AF",
"h+	c #C3C6D8",
"i+	c #E4E6F0",
"j+	c #ECEDF5",
"k+	c #EBECF3",
"l+	c #E9EBF2",
"m+	c #D8DBE7",
"n+	c #A6ABC3",
"o+	c #7B82A3",
"p+	c #393C4E",
"q+	c #3F3F42",
"r+	c #E3E2E5",
"s+	c #78787A",
"t+	c #7C7C80",
"u+	c #E1E1EA",
"v+	c #DBDCE2",
"w+	c #6D6D71",
"x+	c #88888B",
"y+	c #E5E6EB",
"z+	c #181818",
"A+	c #23232B",
"B+	c #8187A9",
"C+	c #5C617C",
"D+	c #44485E",
"E+	c #6C728D",
"F+	c #868CA6",
"G+	c #8B90AA",
"H+	c #7F84A0",
"I+	c #52576F",
"J+	c #3B3E54",
"K+	c #727A9A",
"L+	c #40445A",
"M+	c #37373C",
"N+	c #F7F7FE",
"O+	c #C8CBDB",
"P+	c #BBBED1",
"Q+	c #B8BCCC",
"R+	c #C3C6D5",
"S+	c #DCDEEB",
"T+	c #F1F2FB",
"U+	c #DADAE3",
"V+	c #09090D",
"W+	c #030306",
"X+	c #2F3241",
"Y+	c #0E0E14",
"Z+	c #000002",
"`+	c #2E3142",
" @	c #7780A2",
".@	c #4A4F67",
"+@	c #1C1C2A",
"@@	c #6C6E7A",
"#@	c #737377",
"$@	c #AAADB6",
"%@	c #A8ABC0",
"&@	c #C2C5D5",
"*@	c #E8E9F2",
"=@	c #F1F0F8",
"-@	c #F0F0F7",
";@	c #E9E9F3",
">@	c #DEE0EB",
",@	c #E3E4EE",
"'@	c #8C8C90",
")@	c #9898A3",
"!@	c #424248",
"~@	c #0C0F14",
"{@	c #59607D",
"]@	c #262836",
"^@	c #8D8D96",
"/@	c #F7F8FE",
"(@	c #D1D2E0",
"_@	c #F3F3FB",
":@	c #F0F0F8",
"<@	c #F2F2FB",
"[@	c #EDEDF7",
"}@	c #DCDDE9",
"|@	c #E3E4F3",
"1@	c #BEC0DA",
"2@	c #50525D",
"3@	c #18181B",
"4@	c #B5B7CB",
"5@	c #E6E7F2",
"6@	c #DDDEEC",
"7@	c #B6B8CE",
"8@	c #888DA1",
"9@	c #9598AE",
"0@	c #BEC0D3",
"a@	c #D7D8E6",
"b@	c #BFC3D8",
"c@	c #83859A",
"d@	c #00001F",
"e@	c #585860",
"f@	c #B2B6CE",
"g@	c #C3C5D8",
"h@	c #D6D7E7",
"i@	c #B7BBD2",
"j@	c #4D5064",
"k@	c #060609",
"l@	c #6D728B",
"m@	c #BEC0D6",
"n@	c #A3A7C2",
"o@	c #9699B1",
"p@	c #3C3F47",
"q@	c #00001C",
"r@	c #838497",
"s@	c #C6CBE4",
"t@	c #A7AAC4",
"u@	c #C0C3D8",
"v@	c #B6B8D2",
"w@	c #303037",
"x@	c #5E5F6B",
"y@	c #AFB2CE",
"z@	c #A4A8C2",
"A@	c #999CB8",
"B@	c #969AB7",
"C@	c #A9AECE",
"D@	c #353741",
"E@	c #24242B",
"F@	c #6C6D81",
"G@	c #9FA4C2",
"H@	c #A2A7C3",
"I@	c #AAAEC8",
"J@	c #B9BCD6",
"K@	c #8D8F99",
"L@	c #2E2E2E",
"M@	c #313131",
"N@	c #ABADBC",
"O@	c #A9ABC6",
"P@	c #999CB7",
"Q@	c #9196B3",
"R@	c #868CA9",
"S@	c #343643",
"T@	c #131316",
"U@	c #999EBB",
"V@	c #9A9FBD",
"W@	c #989CB9",
"X@	c #A0A2BE",
"Y@	c #CBCCE2",
"Z@	c #D9D7E6",
"`@	c #D6D7E6",
" #	c #BDBFD6",
".#	c #9598B3",
"+#	c #8D91AE",
"@#	c #9197B5",
"##	c #6C718A",
"$#	c #636574",
"%#	c #999EBD",
"&#	c #A6AAC4",
"*#	c #9197B1",
"=#	c #8C90AC",
"-#	c #9297B2",
";#	c #9EA1BD",
">#	c #9B9FBB",
",#	c #8D90AE",
"'#	c #8488A7",
")#	c #8E92AF",
"!#	c #9A9FBB",
"~#	c #8287A9",
"{#	c #2A2C38",
"]#	c #414253",
"^#	c #494B5E",
"/#	c #7B7E98",
"(#	c #B5B8CE",
"_#	c #9CA1B9",
":#	c #8589A7",
"<#	c #8084A2",
"[#	c #7D83A2",
"}#	c #8388A6",
"|#	c #9EA2B9",
"1#	c #AAAFC6",
"2#	c #5A5C74",
"3#	c #3C4154",
"4#	c #20222C",
"5#	c #23242E",
"6#	c #8D92B1",
"7#	c #B8BCD1",
"8#	c #C8CBDC",
"9#	c #BBBED0",
"0#	c #B9BDCF",
"a#	c #ABB1C9",
"b#	c #747997",
"c#	c #09090E",
"d#	c #262832",
"e#	c #6C7392",
"f#	c #353849",
"g#	c #54586B",
"h#	c #80859F",
"i#	c #878EA9",
"j#	c #4A4D61",
"k#	c #34384B",
"l#	c #606684",
"m#	c #07070B",
"n#	c #080A0C",
"o#	c #606886",
"p#	c #000003",
"q#	c #06060A",
"r#	c #0C0E14",
"                    . + @                                       ",
"          # $ %   & * = -   # ; >                               ",
"          , = ' ) ! ~ { ] ^ / = ( #                             ",
"          _ : < [ } | 1 2 3 4 5 6                               ",
"    # 7 8 9 0 a b c d e f g h i j k l m                         ",
"    n o p q r s t u v 0 u w x y z A B C #                       ",
"    D E F G H I J K L M N u I O P Q R S #                       ",
"      T U V W X Y Z `  ...+.X @.#.$.%.&.                        ",
"    *.=.-.;.>.,.'.).# # !.~.{.].^./.(._.#                       ",
"# :.<.].[.{.}.|.1.2.    # 3.4.5.6.7.8.9.0.#                     ",
"&.a.b.c.d.e.f.g.h.i.    # j.k.l.m.n.o.p.q.&.                    ",
"# r.s.t.u.v.w.x.y.z.A.B.C.D.E.F.5.G.H.I.# #                     ",
"      J.K.L.M.N.O.P.Q.R.S.T.U.V.W.-.X.&.                        ",
"    Y.Z.`. +.+++@+#+$+$+$+%+&+*+=+G.-+;+                        ",
"    >+,+'+G.)+!+~+$+$+$+$+$+{+]+^+/+(+_+#   :+:+                ",
"    <+[+}+|+1+2+3+4+%+$+5+6+7+3 8+9+0+a+#   b+c+  # d+          ",
"    # #   e+f+g+h+i+j+k+l+m+n+o+p+# q+r+s+t+u+v+w+x+y+z+        ",
"          A+B+C+D+E+F+G+H+I+J+K+L+  M+N+O+P+Q+R+S+T+U+V+        ",
"          W+X+Y+# Z+`+ @.@# # +@@@#@$@%@&@*@=@-@;@>@,@'@)@!@    ",
"          # # #     ~@{@]@    # ^@/@Y (@_@:@<@<@[@4 }@|@1@2@    ",
"                    # Z+#       3@4@I 5@6@7@8@9@0@a@z b@c@#     ",
"                              d@e@f@g@h@i@j@# k@l@U m@n@o@p@q@  ",
"                              r@s@t@F.u@v@w@    x@y@z@A@B@C@D@  ",
"                            # E@F@G@H@I@J@K@L@M@N@O@P@Q@R@S@<+  ",
"                                T@U@V@W@X@Y@Z@`@ #.#+#@####     ",
"                              # $#%#&#*#=#-#;#>#,#'#)#!#~#{#    ",
"                              # ]#^#/#(#_#:#<#[#}#|#1#2#3#4#    ",
"                                # # 5#6#7#8#9#0#h+a#b#c## #     ",
"                                    d#e#f#g#h#i#j#k#l#m#        ",
"                                    # n## # k#o#p## q##         ",
"                                            k@r##               ",
"                                            # #                 "};
