/* XPM */
static char * misc_doc_xpm[] = {
"32 32 415 2",
"  	c None",
". 	c #BAC6DB",
"+ 	c #93A0B7",
"@ 	c #181A1B",
"# 	c #F1F6FF",
"$ 	c #FFFFFF",
"% 	c #FEFFFF",
"& 	c #F9FDFF",
"* 	c #F4F7FE",
"= 	c #EBF0F9",
"- 	c #E3E9F4",
"; 	c #DAE1EF",
"> 	c #CED7E8",
", 	c #B8C6DF",
"' 	c #A2ADC0",
") 	c #151619",
"! 	c #F2F7FF",
"~ 	c #F5F9FF",
"{ 	c #EEF3FC",
"] 	c #E8EDF7",
"^ 	c #E0E7F3",
"/ 	c #D7DFED",
"( 	c #CBD5E6",
"_ 	c #B5C2D9",
": 	c #E1EAF9",
"< 	c #9CA8BC",
"[ 	c #191A1C",
"} 	c #FBFEFF",
"| 	c #F6FAFF",
"1 	c #F1F5FE",
"2 	c #E3EAF4",
"3 	c #DCE3F0",
"4 	c #CFD8E8",
"5 	c #B8C4DB",
"6 	c #E6ECF7",
"7 	c #D2DDEF",
"8 	c #9CA8BE",
"9 	c #18191C",
"0 	c #000000",
"a 	c #FCFFFF",
"b 	c #F8FBFF",
"c 	c #F4F8FE",
"d 	c #EEF2FB",
"e 	c #E7EDF7",
"f 	c #DFE5F2",
"g 	c #D2DBEA",
"h 	c #BAC6DC",
"i 	c #F5F8FF",
"j 	c #DEE4F1",
"k 	c #D1DBEF",
"l 	c #9DA9BF",
"m 	c #19191C",
"n 	c #C0C0C4",
"o 	c #B6B6B9",
"p 	c #ACACAE",
"q 	c #A2A2A3",
"r 	c #989898",
"s 	c #8E8E8E",
"t 	c #848483",
"u 	c #7A7A78",
"v 	c #FDFFFF",
"w 	c #70706D",
"x 	c #F0F4FD",
"y 	c #E9EFF8",
"z 	c #E1E7F3",
"A 	c #D5DDEC",
"B 	c #BCC7DB",
"C 	c #F3F7FE",
"D 	c #E2E8F3",
"E 	c #D4DFF1",
"F 	c #9FABC0",
"G 	c #1C1E20",
"H 	c #4B4B49",
"I 	c #545452",
"J 	c #505050",
"K 	c #4D4D4D",
"L 	c #49494B",
"M 	c #464643",
"N 	c #434343",
"O 	c #404043",
"P 	c #3E3E3D",
"Q 	c #3E3E3E",
"R 	c #40403F",
"S 	c #3C3C3A",
"T 	c #373736",
"U 	c #363635",
"V 	c #333334",
"W 	c #313130",
"X 	c #2C2C2D",
"Y 	c #29292B",
"Z 	c #666663",
"` 	c #EBEFF9",
" .	c #D9E1EF",
"..	c #B4C1D7",
"+.	c #E9EBF1",
"@.	c #E2E8EF",
"#.	c #DAE1ED",
"$.	c #CED7E6",
"%.	c #C6D2E7",
"&.	c #97A4BB",
"*.	c #212225",
"=.	c #BBBBBE",
"-.	c #515151",
";.	c #5C5C5C",
">.	c #5B5B5D",
",.	c #585858",
"'.	c #50504F",
").	c #4D4D4C",
"!.	c #494948",
"~.	c #474746",
"{.	c #464644",
"].	c #555554",
"^.	c #5E5E5C",
"/.	c #5A5A5A",
"(.	c #4B4B4C",
"_.	c #454546",
":.	c #5B5B5A",
"<.	c #5F5F5D",
"[.	c #484847",
"}.	c #2D2D2D",
"|.	c #F2F6FD",
"1.	c #EDF1FB",
"2.	c #E6ECF6",
"3.	c #DEE5F2",
"4.	c #BECADD",
"5.	c #8E9FBB",
"6.	c #4F4F50",
"7.	c #5B5B5C",
"8.	c #555555",
"9.	c #4E4E4E",
"0.	c #4A4A4C",
"a.	c #464645",
"b.	c #424244",
"c.	c #4A4A4A",
"d.	c #4C4C4C",
"e.	c #494947",
"f.	c #4A4A49",
"g.	c #393937",
"h.	c #434344",
"i.	c #4D4D4B",
"j.	c #3C3C3D",
"k.	c #2A2A27",
"l.	c #5C5C59",
"m.	c #E7ECF7",
"n.	c #E1E7F4",
"o.	c #DBE3F0",
"p.	c #CDD6E7",
"q.	c #B7C4DA",
"r.	c #ACBAD3",
"s.	c #AAB9D2",
"t.	c #A4B4D1",
"u.	c #7A8BA7",
"v.	c #0B0A08",
"w.	c #B0B0B2",
"x.	c #585857",
"y.	c #2A2A2C",
"z.	c #2B2B2C",
"A.	c #2D2D2F",
"B.	c #252525",
"C.	c #272728",
"D.	c #F5F8FE",
"E.	c #E2E9F4",
"F.	c #C2CCE0",
"G.	c #B4C0D8",
"H.	c #B1BFD6",
"I.	c #AFBCD5",
"J.	c #ABBBD6",
"K.	c #0B0A07",
"L.	c #4B4B4B",
"M.	c #545454",
"N.	c #DAFDDA",
"O.	c #B6F7B6",
"P.	c #92EE92",
"Q.	c #6EE26E",
"R.	c #4AD14A",
"S.	c #26BD26",
"T.	c #02A502",
"U.	c #009800",
"V.	c #008C00",
"W.	c #2E2E30",
"X.	c #52524F",
"Y.	c #F0F5FD",
"Z.	c #E9EFF9",
"`.	c #E5EBF6",
" +	c #DDE4F1",
".+	c #CBD5E5",
"++	c #BDC9DE",
"@+	c #BBC7DC",
"#+	c #B8C5DB",
"$+	c #B7C3DA",
"%+	c #B3C1DB",
"&+	c #0B0907",
"*+	c #A6A6A7",
"=+	c #464648",
"-+	c #515152",
";+	c #4F4F4F",
">+	c #CCF9CC",
",+	c #AEF2AE",
"'+	c #8CE88C",
")+	c #6AD96A",
"!+	c #47C747",
"~+	c #23B123",
"{+	c #007F00",
"]+	c #313133",
"^+	c #29292A",
"/+	c #202020",
"(+	c #F7FAFF",
"_+	c #EBF0FA",
":+	c #DFE6F2",
"<+	c #D0D8E8",
"[+	c #C6D0E3",
"}+	c #C2CDE0",
"|+	c #BFCADF",
"1+	c #BDC8DD",
"2+	c #BCC8DC",
"3+	c #B9C6DE",
"4+	c #0A0907",
"5+	c #444445",
"6+	c #99EA99",
"7+	c #7CDE7C",
"8+	c #5DCE5D",
"9+	c #3CBA3C",
"0+	c #1AA21A",
"a+	c #007200",
"b+	c #343436",
"c+	c #252526",
"d+	c #222222",
"e+	c #1E1E1E",
"f+	c #484845",
"g+	c #E0E6F3",
"h+	c #D2DBEB",
"i+	c #CCD6E7",
"j+	c #C9D3E4",
"k+	c #C6D1E3",
"l+	c #C4CFE2",
"m+	c #C1CDE0",
"n+	c #BECBE2",
"o+	c #9B9B9C",
"p+	c #444443",
"q+	c #494949",
"r+	c #66D066",
"s+	c #4ABF4A",
"t+	c #2CA92C",
"u+	c #0D910D",
"v+	c #006600",
"w+	c #373739",
"x+	c #232323",
"y+	c #212121",
"z+	c #1D1D1D",
"A+	c #E9EEF8",
"B+	c #D5DEEC",
"C+	c #D1DAE9",
"D+	c #D0D9E9",
"E+	c #C8D2E5",
"F+	c #C4D0E6",
"G+	c #0A0906",
"H+	c #414142",
"I+	c #33AC33",
"J+	c #189618",
"K+	c #005900",
"L+	c #3A3A3C",
"M+	c #1F1F1E",
"N+	c #181819",
"O+	c #3E3E3B",
"P+	c #DAE2EF",
"Q+	c #D3DBEA",
"R+	c #CFD8E9",
"S+	c #CDD7E8",
"T+	c #CAD4E6",
"U+	c #CAD3E5",
"V+	c #C8D4E8",
"W+	c #0A0806",
"X+	c #909090",
"Y+	c #3E3E3F",
"Z+	c #464646",
"`+	c #434345",
" @	c #004C00",
".@	c #3E3E40",
"+@	c #1E1E1D",
"@@	c #1B1B1D",
"#@	c #181818",
"$@	c #D8E0EE",
"%@	c #D4DCEB",
"&@	c #CED7E7",
"*@	c #CBD6EA",
"=@	c #003F00",
"-@	c #414143",
";@	c #1A1A1B",
">@	c #191919",
",@	c #151515",
"'@	c #343432",
")@	c #E0E7F2",
"!@	c #D7DFEE",
"~@	c #D3DCEA",
"{@	c #D0DAE9",
"]@	c #CFD9EC",
"^@	c #090806",
"/@	c #868685",
"(@	c #414140",
"_@	c #003300",
":@	c #444446",
"<@	c #191918",
"[@	c #151514",
"}@	c #121212",
"|@	c #E4EAF5",
"1@	c #DAE1EE",
"2@	c #D5DDED",
"3@	c #D1DBED",
"4@	c #383838",
"5@	c #3B3B3D",
"6@	c #002600",
"7@	c #48484A",
"8@	c #161615",
"9@	c #141412",
"0@	c #101010",
"a@	c #2A2A28",
"b@	c #DBE2EF",
"c@	c #D6DDEC",
"d@	c #D2DCEE",
"e@	c #7B7B79",
"f@	c #363636",
"g@	c #3D3D3B",
"h@	c #363637",
"i@	c #001900",
"j@	c #4B4B4D",
"k@	c #131313",
"l@	c #0F0F0E",
"m@	c #0E0E0D",
"n@	c #E1E9F4",
"o@	c #E0E6F2",
"p@	c #DEE5F1",
"q@	c #DCE3F1",
"r@	c #D8DFED",
"s@	c #D6DEED",
"t@	c #D6DEEC",
"u@	c #D4DEF0",
"v@	c #333333",
"w@	c #3A3A3A",
"x@	c #353536",
"y@	c #4E4E50",
"z@	c #0E0E0E",
"A@	c #0C0C0C",
"B@	c #20201E",
"C@	c #D5DFF0",
"D@	c #70706E",
"E@	c #313131",
"F@	c #373735",
"G@	c #333335",
"H@	c #303031",
"I@	c #272726",
"J@	c #242423",
"K@	c #212122",
"L@	c #1B1B1B",
"M@	c #19191A",
"N@	c #161617",
"O@	c #101011",
"P@	c #0B0B0D",
"Q@	c #090909",
"R@	c #E1E8F3",
"S@	c #DDE4F0",
"T@	c #D9E1EE",
"U@	c #30302E",
"V@	c #303030",
"W@	c #2E2E2E",
"X@	c #2A2A2A",
"Y@	c #262626",
"Z@	c #232325",
"`@	c #151516",
" #	c #111113",
".#	c #080809",
"+#	c #060606",
"@#	c #161614",
"##	c #E2E8F4",
"$#	c #D6DFF1",
"%#	c #2B2B2B",
"&#	c #282828",
"*#	c #1D1D1F",
"=#	c #1C1C1A",
"-#	c #171718",
";#	c #141416",
">#	c #121214",
",#	c #0F0F0F",
"'#	c #0C0C0E",
")#	c #0C0C0D",
"!#	c #0B0B0B",
"~#	c #070708",
"{#	c #050506",
"]#	c #D9E0EF",
"^#	c #61615E",
"/#	c #575754",
"(#	c #4D4D4A",
"_#	c #434340",
":#	c #2F2F2D",
"<#	c #F0F4FC",
"[#	c #252523",
"}#	c #EEF3FB",
"|#	c #1B1B19",
"1#	c #11110F",
"2#	c #E5EBF5",
"3#	c #D9E0EE",
"4#	c #FCFEFF",
"5#	c #EDF2FB",
"6#	c #EAEFF9",
"7#	c #F8FAFE",
"8#	c #EFF4FC",
"9#	c #E8EEF8",
"0#	c #D7DEED",
"a#	c #D6E0F2",
"b#	c #EAF3FF",
"c#	c #080705",
"d#	c #090808",
"e#	c #0C0B0A",
"f#	c #0C0C0A",
"g#	c #111112",
"h#	c #111111",
"                . . . . . . . . . . . . . . . + @               ",
"                . # $ $ $ $ $ $ % & * = - ; > , ' )             ",
"                . ! $ $ $ $ $ % & ~ { ] ^ / ( _ : < [           ",
"                . ! $ $ $ $ $ % } | 1 = 2 3 4 5 6 7 8 9         ",
"  0 0 0 0 0 0 0 . ! $ $ $ $ $ $ a b c d e f g h i j k l m       ",
"0 n 0 o 0 p 0 q . r $ s $ t $ u v w i x y z A B $ C D E F G     ",
"0 H I J K L M N O P Q R S T U V W X Y Z ` -  ...+.@.#.$.%.&.*.  ",
"=.-.;.>.,.'.).!.~.{.].^./.(._.:.<.[.}.|.1.2.3.4.5.5.5.5.5.5.5.  ",
"0 6.7.,.8.9.0.L a.b.c.d.e.f.g.h.i.j.k.l.d m.n.o./ p.q.r.s.t.u.v.",
"w.9.x.8.Y y.y.z.z.z.X X X }.}.A.B.B.C.D.{ y E.o.A F.G.H.I.J.u.K.",
"0 L.M.-.y.N.N.O.P.Q.R.S.T.U.V.W.B.B.B.X.Y.Z.`. +.+++@+#+$+%+u.&+",
"*+=+-+;+y.N.>+,+'+)+!+~+U.V.{+]+^+B./+(+C _+:+<+[+}+|+1+2+3+u.4+",
"0 5+9.L.z.O.,+6+7+8+9+0+V.{+a+b+c+d+e+f+= g+h+i+j+k+l+}+m+n+u.4+",
"o+p+L.q+z.P.'+7+r+s+t+u+{+a+v+w+x+y+z+A+f B+C+D+p.( E+k+k+F+u.G+",
"0 H+q+a.z.Q.)+8+s+I+J+{+a+v+K+L+M+z+N+O+P+/ A Q+C+R+S+T+U+V+u.W+",
"X+Y+Z+`+z.R.!+9+t+J+{+a+v+K+ @.@+@@@#@3.3 o.$@/ %@Q+C+> &@*@u.W+",
"0 j.`+H+X S.~+0+u+{+a+v+K+ @=@-@;@>@,@'@)@ +P+$@!@%@~@g {@]@u.^@",
"/@L+(@Q X T.U.V.{+a+v+K+ @=@_@:@<@[@}@|@D :+ +; 1@$@2@%@~@3@u.^@",
"0 4@P 5@X U.V.{+a+v+K+ @=@_@6@7@8@9@0@a@- z 3. +b@ .$@c@A d@u.^@",
"e@f@g@h@}.V.{+a+v+K+ @=@_@6@i@j@k@l@m@6 |@n@o@p@q@P+r@s@t@u@u.^@",
"0 v@w@x@A.W.]+b+w+L+.@-@:@7@j@y@0@z@A@B@2.|@z f 3 P+ .s@2@C@u.^@",
"D@E@F@G@H@X Y I@J@K@e+L@M@N@k@O@z@P@Q@] 2.- R@:+S@3 T@$@!@C@u.^@",
"0 U@G@V@W@X@Y@Z@y+B@@@>@`@,@ #z@P@.#+#@#2.`.##:+3.3 P+/ $@$#u.^@",
"Z X@%#&#I@x+K@*#=#>@-#;#>#,#'#)#!#~#{#e 2.|@D :+S@3 ]#/ $@$#u.^@",
"0 0 ^#0 /#0 (#0 _#! g.$ :#<#[#}#|#= 1#e 2.2#R@^ S@3 3#$@$@C@u.^@",
"0 0 0 0 0 0 0 0 . ! $ 4#|.<#}#5#= 6#] e 2.- R@:+S@3 T@$@/ $#u.^@",
"0 0 0 0 0 0 0 0 . ! $ 7#8#8#}#5#6#6#9#e 2.- ^ :+3 P+$@$@0#a#u.^@",
"    0 0 0 0 0 0 . ! $ 7#8#8#}#5#6#6#9#e 2.- ^ :+3 P+$@$@0#a#u.^@",
"                . b#$ 7#8#8#}#5#6#6#9#e 2.- ^ :+3 P+$@$@0#a#u.c#",
"                . u.u.u.u.u.u.u.u.u.u.u.u.u.u.u.u.u.u.u.u.u.u.l@",
"                l@d#e#f#f#f#f#f#f#f#f#f#f#f#f#f#f#f#f#f#f#f#m@g#",
"                h#h#h#h#h#h#h#h#h#h#h#h#h#h#h#h#h#h#h#h#h#h#h#h#"};
