/* XPM */
static char * reload_xpm[] = {
"32 32 528 2",
"  	c None",
". 	c #0B0000",
"+ 	c #4D2500",
"@ 	c #4B2100",
"# 	c #471D00",
"$ 	c #240C00",
"% 	c #000000",
"& 	c #4B2200",
"* 	c #DC9744",
"= 	c #DAA15F",
"- 	c #D29046",
"; 	c #B16D24",
"> 	c #7A3D01",
", 	c #330E00",
"' 	c #642F00",
") 	c #FFEABA",
"! 	c #FFFFFF",
"~ 	c #FFFFF7",
"{ 	c #FFFCE8",
"] 	c #FFE9C1",
"^ 	c #F7BA76",
"/ 	c #B2681D",
"( 	c #3E1800",
"_ 	c #622E00",
": 	c #FFDEA8",
"< 	c #FFF7EC",
"[ 	c #FFF3E2",
"} 	c #FFF3E3",
"| 	c #FFF6EA",
"1 	c #FFFBF0",
"2 	c #FFF5D7",
"3 	c #FABD74",
"4 	c #8F4C07",
"5 	c #0D0000",
"6 	c #FFDA9F",
"7 	c #FFF2E0",
"8 	c #FFEDD6",
"9 	c #FFEDD5",
"0 	c #FFECD4",
"a 	c #FFEED8",
"b 	c #FFF6E3",
"c 	c #FFE1AB",
"d 	c #C1721E",
"e 	c #1C0700",
"f 	c #FFD696",
"g 	c #FFEDD3",
"h 	c #FFE8CA",
"i 	c #FFE7C9",
"j 	c #FFE7C8",
"k 	c #FFE7C7",
"l 	c #FFE7B6",
"m 	c #C77722",
"n 	c #120000",
"o 	c #FFD592",
"p 	c #FFECD0",
"q 	c #FFE4C1",
"r 	c #FFE2BC",
"s 	c #FFE1BB",
"t 	c #FFE6C5",
"u 	c #FFDEA1",
"v 	c #A55A0F",
"w 	c #602E00",
"x 	c #FE9F2A",
"y 	c #FEAA49",
"z 	c #FFBD6A",
"A 	c #FFD79F",
"B 	c #FFE1B9",
"C 	c #FFDDB1",
"D 	c #FFDCAF",
"E 	c #FFDCAE",
"F 	c #FFE3BB",
"G 	c #FFC26E",
"H 	c #572500",
"I 	c #5D2C00",
"J 	c #EA7100",
"K 	c #E26B00",
"L 	c #E86F00",
"M 	c #F6840D",
"N 	c #FFB75B",
"O 	c #FFDAA8",
"P 	c #FFD8A5",
"Q 	c #FFD7A2",
"R 	c #FFD7A3",
"S 	c #FFD6A2",
"T 	c #FFDFA5",
"U 	c #CC7D23",
"V 	c #230F00",
"W 	c #D17B1B",
"X 	c #B46B18",
"Y 	c #7A3E00",
"Z 	c #401A00",
"` 	c #0E0000",
" .	c #5F2F00",
"..	c #F37A00",
"+.	c #E67400",
"@.	c #E27200",
"#.	c #DC6C00",
"$.	c #EB7100",
"%.	c #FFAB42",
"&.	c #FFD59C",
"*.	c #FFD297",
"=.	c #FFD196",
"-.	c #FFD195",
";.	c #FFD69E",
">.	c #FFBB61",
",.	c #4D2100",
"'.	c #351600",
").	c #FFB44D",
"!.	c #FFDA98",
"~.	c #FFC976",
"{.	c #FDB154",
"].	c #DD8D30",
"^.	c #AC6212",
"/.	c #713800",
"(.	c #371900",
"_.	c #0F0000",
":.	c #1E0D00",
"<.	c #683300",
"[.	c #7E3F00",
"}.	c #AC5600",
"|.	c #DE7000",
"1.	c #E17000",
"2.	c #EC7400",
"3.	c #FFB85A",
"4.	c #FFD091",
"5.	c #FFCC89",
"6.	c #FFCB88",
"7.	c #FFCD8B",
"8.	c #FFCE7C",
"9.	c #965208",
"0.	c #321600",
"a.	c #FD9E2C",
"b.	c #FFCF8D",
"c.	c #FFCD8A",
"d.	c #FFD18B",
"e.	c #FFCE7F",
"f.	c #FFC268",
"g.	c #FCAC49",
"h.	c #DB8928",
"i.	c #AA610C",
"j.	c #6F3A00",
"k.	c #361600",
"l.	c #401F00",
"m.	c #B75C00",
"n.	c #E56F00",
"o.	c #F89317",
"p.	c #FFCB7D",
"q.	c #FFC87D",
"r.	c #FFC77C",
"s.	c #FFC67C",
"t.	c #FFCC7E",
"u.	c #C7791C",
"v.	c #301300",
"w.	c #F99116",
"x.	c #FFC778",
"y.	c #FFC579",
"z.	c #FFC478",
"A.	c #FFC97F",
"B.	c #FFCB7C",
"C.	c #FFC870",
"D.	c #FFBF5B",
"E.	c #FBAA3F",
"F.	c #D98922",
"G.	c #A7620B",
"H.	c #6C3900",
"I.	c #331400",
"J.	c #130800",
"K.	c #B15700",
"L.	c #F58501",
"M.	c #FFC25E",
"N.	c #FFC773",
"O.	c #FFC46F",
"P.	c #FFC36F",
"Q.	c #FFC16E",
"R.	c #FFC775",
"S.	c #DB8B29",
"T.	c #070000",
"U.	c #210E00",
"V.	c #E87F06",
"W.	c #FFBE63",
"X.	c #FFC06E",
"Y.	c #FFBF6B",
"Z.	c #FFBE6B",
"`.	c #FFBE6A",
" +	c #FFBF69",
".+	c #FFC069",
"++	c #FFC26A",
"@+	c #FFC66D",
"#+	c #FFC96F",
"$+	c #FFCC6C",
"%+	c #FFCA61",
"&+	c #FFC14D",
"*+	c #F9AB34",
"=+	c #D4891B",
"-+	c #A1610A",
";+	c #492800",
">+	c #2A1400",
",+	c #E27B00",
"'+	c #FFBF4C",
")+	c #FFC567",
"!+	c #FFC263",
"~+	c #FFC162",
"{+	c #FFC063",
"]+	c #FFC15F",
"^+	c #DD8413",
"/+	c #060000",
"(+	c #CE6C00",
"_+	c #FFB54B",
":+	c #FFBB62",
"<+	c #FFB95E",
"[+	c #FFB95D",
"}+	c #FFBA5D",
"|+	c #FFBC5D",
"1+	c #FFBE5C",
"2+	c #FFBF5C",
"3+	c #FFC15B",
"4+	c #FFC25B",
"5+	c #FFC35B",
"6+	c #FFC55C",
"7+	c #FFC75E",
"8+	c #FFCA60",
"9+	c #FFCF62",
"0+	c #FFCE41",
"a+	c #C67404",
"b+	c #A35F00",
"c+	c #FFC547",
"d+	c #FFC359",
"e+	c #FFC055",
"f+	c #FFBF56",
"g+	c #FFBE58",
"h+	c #FFAA20",
"i+	c #DD7D00",
"j+	c #AB5800",
"k+	c #FFAB34",
"l+	c #FFB656",
"m+	c #FFB351",
"n+	c #FFB451",
"o+	c #FFB550",
"p+	c #FFB850",
"q+	c #FFBA4F",
"r+	c #FFBC4F",
"s+	c #FFBD4F",
"t+	c #FFBF4E",
"u+	c #FFC04E",
"v+	c #FFC24E",
"w+	c #FFC34D",
"x+	c #FFC44D",
"y+	c #FFC750",
"z+	c #FFC237",
"A+	c #FF9807",
"B+	c #A35000",
"C+	c #B9750A",
"D+	c #FFC948",
"E+	c #FFC149",
"F+	c #FFBF4A",
"G+	c #FFBD48",
"H+	c #FFAC1E",
"I+	c #FFA100",
"J+	c #DE8300",
"K+	c #874500",
"L+	c #FFA221",
"M+	c #FFB04A",
"N+	c #FFAE44",
"O+	c #FFB044",
"P+	c #FFB343",
"Q+	c #FFB543",
"R+	c #FFB842",
"S+	c #FFBA42",
"T+	c #FFBC42",
"U+	c #FFBE41",
"V+	c #FFBF41",
"W+	c #FFC140",
"X+	c #FFC241",
"Y+	c #FFC642",
"Z+	c #FFBD26",
"`+	c #F88900",
" @	c #EE7100",
".@	c #A15300",
"+@	c #572F00",
"@@	c #FCB724",
"#@	c #FFC540",
"$@	c #FFC13F",
"%@	c #FFBC36",
"&@	c #FFAE12",
"*@	c #FFA400",
"=@	c #FFA800",
"-@	c #DC7F00",
";@	c #603100",
">@	c #FF960E",
",@	c #FFA936",
"'@	c #FFAC39",
")@	c #FFAE38",
"!@	c #FFB136",
"~@	c #FFB436",
"{@	c #FFB635",
"]@	c #FFB935",
"^@	c #FFBB35",
"/@	c #FFBD34",
"(@	c #FFBF34",
"_@	c #FFC134",
":@	c #FFC432",
"<@	c #FFB517",
"[@	c #F58100",
"}@	c #E36C00",
"|@	c #DB7100",
"1@	c #4F2A00",
"2@	c #492400",
"3@	c #EAA40F",
"4@	c #FFC932",
"5@	c #FFC12F",
"6@	c #FFBA1E",
"7@	c #FFB005",
"8@	c #FFAB00",
"9@	c #FFAA00",
"0@	c #CD6F00",
"a@	c #3C2000",
"b@	c #FC8800",
"c@	c #FFA219",
"d@	c #FFAA26",
"e@	c #FFAF2A",
"f@	c #FFB22A",
"g@	c #FFB529",
"h@	c #FFB728",
"i@	c #FFBA27",
"j@	c #FFBD27",
"k@	c #FFBF27",
"l@	c #FFC228",
"m@	c #FFBD12",
"n@	c #F68900",
"o@	c #DF6B00",
"p@	c #CC6600",
"q@	c #4D2700",
"r@	c #2B1500",
"s@	c #945C01",
"t@	c #F7B10F",
"u@	c #FFCA21",
"v@	c #FFC017",
"w@	c #FFBA07",
"x@	c #FFB500",
"y@	c #FFB400",
"z@	c #FFB100",
"A@	c #FFA300",
"B@	c #AA5500",
"C@	c #1E0F00",
"D@	c #EA7F00",
"E@	c #FF9900",
"F@	c #FF9A00",
"G@	c #FFA002",
"H@	c #FFA70B",
"I@	c #FFAD13",
"J@	c #FFB317",
"K@	c #FFB71A",
"L@	c #FFBA1A",
"M@	c #FFBC1A",
"N@	c #FFBF1A",
"O@	c #FFC11A",
"P@	c #FFC216",
"Q@	c #FDBF0D",
"R@	c #F7B107",
"S@	c #DD9804",
"T@	c #CD9304",
"U@	c #F7B407",
"V@	c #FFCB0C",
"W@	c #FFC80B",
"X@	c #FFC103",
"Y@	c #FFBE00",
"Z@	c #FFBD00",
"`@	c #FFBB00",
" #	c #FFB900",
".#	c #FFB600",
"+#	c #FE8A00",
"@#	c #713B00",
"##	c #D17200",
"$#	c #FF9D00",
"%#	c #FF9E00",
"&#	c #FFA600",
"*#	c #FFAE00",
"=#	c #FFB302",
"-#	c #FFB704",
";#	c #FFBB06",
">#	c #FFBE07",
",#	c #FFC107",
"'#	c #FFC308",
")#	c #FFC608",
"!#	c #FFCA07",
"~#	c #FFCD05",
"{#	c #FFCF03",
"]#	c #FFCC02",
"^#	c #FFC800",
"/#	c #FFC600",
"(#	c #FFC500",
"_#	c #FFC400",
":#	c #FFC200",
"<#	c #FFC000",
"[#	c #FFBF00",
"}#	c #FE9C00",
"|#	c #E37000",
"1#	c #2C1800",
"2#	c #B05F00",
"3#	c #FFA000",
"4#	c #FFB200",
"5#	c #FFC300",
"6#	c #FFC900",
"7#	c #FFCA00",
"8#	c #FFCB00",
"9#	c #FFCD00",
"0#	c #FFCC00",
"a#	c #FFC700",
"b#	c #FFAC00",
"c#	c #F57700",
"d#	c #9E5500",
"e#	c #8A4B00",
"f#	c #FFA500",
"g#	c #FFAD00",
"h#	c #FFB800",
"i#	c #FFC100",
"j#	c #FFCE00",
"k#	c #FFCF00",
"l#	c #FFD100",
"m#	c #FFD200",
"n#	c #FFD300",
"o#	c #FFD000",
"p#	c #FFB000",
"q#	c #F37400",
"r#	c #DC7200",
"s#	c #2E1A00",
"t#	c #633500",
"u#	c #FF9F00",
"v#	c #FFAF00",
"w#	c #FFD400",
"x#	c #FFD600",
"y#	c #FFD700",
"z#	c #FFD800",
"A#	c #EF7000",
"B#	c #EA7600",
"C#	c #6D3D00",
"D#	c #3D2100",
"E#	c #FD9800",
"F#	c #FFB700",
"G#	c #FFA900",
"H#	c #F57800",
"I#	c #E86800",
"J#	c #F97C00",
"K#	c #FFD500",
"L#	c #FFD900",
"M#	c #FFDA00",
"N#	c #FFDC00",
"O#	c #FFDD00",
"P#	c #FFDE00",
"Q#	c #FFDF00",
"R#	c #FFBC00",
"S#	c #FB8500",
"T#	c #E96A00",
"U#	c #EA7700",
"V#	c #8A4E00",
"W#	c #1F0F00",
"X#	c #EC8B00",
"Y#	c #F27100",
"Z#	c #E57700",
"`#	c #E26E00",
" $	c #E96900",
".$	c #F77600",
"+$	c #FF9800",
"@$	c #FFDB00",
"#$	c #FFE000",
"$$	c #FA9D00",
"%$	c #ED7500",
"&$	c #E56D00",
"*$	c #E67900",
"=$	c #804900",
"-$	c #D47A00",
";$	c #FF9400",
">$	c #EF6D00",
",$	c #E97600",
"'$	c #A35B00",
")$	c #633900",
"!$	c #C26900",
"~$	c #E87800",
"{$	c #E47000",
"]$	c #E46C00",
"^$	c #EC7B00",
"/$	c #F49300",
"($	c #F9A700",
"_$	c #FAB100",
":$	c #FAB300",
"<$	c #F8AB00",
"[$	c #F39900",
"}$	c #EC8300",
"|$	c #E87600",
"1$	c #EA7800",
"2$	c #C96C00",
"3$	c #553100",
"4$	c #B25E00",
"5$	c #FE8000",
"6$	c #ED6E00",
"7$	c #945400",
"8$	c #070700",
"9$	c #0C0900",
"0$	c #603700",
"a$	c #B46300",
"b$	c #DF7600",
"c$	c #ED7B00",
"d$	c #F17C00",
"e$	c #F48000",
"f$	c #F58200",
"g$	c #F88400",
"h$	c #F98300",
"i$	c #F98400",
"j$	c #EF8000",
"k$	c #C76D00",
"l$	c #734200",
"m$	c #110B00",
"n$	c #F37600",
"o$	c #774600",
"p$	c #2F1D00",
"q$	c #683B00",
"r$	c #975600",
"s$	c #AC6100",
"t$	c #BA6900",
"u$	c #AF6300",
"v$	c #9E5A00",
"w$	c #754300",
"x$	c #3D2500",
"y$	c #060600",
"z$	c #543000",
"A$	c #D77600",
"B$	c #5C3700",
"C$	c #0C0600",
"                                . + @ # $ %                     ",
"                                & * = - ; > ,                   ",
"                                ' ) ! ~ { ] ^ / (               ",
"                                _ : < [ } | 1 2 3 4 5           ",
"                                _ 6 7 8 9 0 0 a b c d e         ",
"                                _ f g h h i i j k g l m n       ",
"                                _ o p k q r r r r s t u v %     ",
"                                w x y z A B C D D E E F G H     ",
"  %                             I J K L M N O P Q R S R T U %   ",
"V W X Y Z `                      ...+.@.#.$.%.&.*.=.=.-.;.>.,.  ",
"'.).!.~.{.].^./.(._.            :.<.[.}.|.1.2.3.4.5.5.6.7.8.9.  ",
"0.a.b.c.b.d.e.f.g.h.i.j.k.%       % % % l.m.n.o.p.q.r.s.s.t.u.% ",
"v.w.x.y.z.z.y.r.A.B.C.D.E.F.G.H.I.%     % J.K.L.M.N.O.P.Q.R.S.T.",
"U.V.W.X.Y.Z.`.`. +.+++@+#+$+%+&+*+=+-+;+    >+,+'+)+!+~+{+]+^+/+",
"/+(+_+:+<+<+[+}+|+1+2+3+4+5+6+7+8+9+0+a+%   % b+c+d+e+f+g+h+i+/+",
"% j+k+l+m+n+o+p+q+r+s+t+u+v+w+x+y+z+A+B+%   % C+D+E+F+G+H+I+J+/+",
"% K+L+M+N+O+P+Q+R+S+T+U+V+W+X+Y+Z+`+ @.@%   +@@@#@$@%@&@*@=@-@/+",
"  ;@>@,@'@)@!@~@{@]@^@/@(@_@:@<@[@}@|@1@  2@3@4@5@6@7@8@9@8@0@% ",
"  a@b@A+c@d@e@f@g@h@i@j@k@l@m@n@o@p@q@r@s@t@u@v@w@x@y@z@z@A@B@% ",
"  C@D@E@F@G@H@I@J@K@L@M@N@O@P@Q@R@S@T@U@V@W@X@Y@Z@`@ #.#x@+#@#  ",
"  T.##$#%#A@&#9@*#=#-#;#>#,#'#)#!#~#{#]#^#/#(#_#:#<#Z@[#}#|#1#  ",
"  % 2#3#I+&#9@*#4#.# #Z@<#5#/#6#7#8#9#9#9#0#8#6#a#_#a#b#c#d#%   ",
"  % e#I+f#=@g#z@h#Y@[#i#(#^#8#j#k#l#m#n#m#l#o#j#9#k#p#q#r#s#    ",
"    t#u#=@8@v#h#v#$#[#8#8#0#o#m#w#x#y#z#y#x#x#z#m#A@A#B#C#%     ",
"    D#E#8@*#F#G#H#I#J#A@/#K#z#L#M#N#O#P#Q#Q#M#R#S#T#U#V#%       ",
"    W#X#v#y@u#Y#|#Z#`# $.$+$Z@l#@$Q##$P#y#5#$$%$&$*$=$%         ",
"    T.-$4#;$>$,$'$)$!$~${$]$^$/$($_$:$<$[$}$|$1$2$3$%           ",
"    % 4$5$6$~$7$8$% 9$0$a$b$c$d$e$f$g$h$i$j$k$l$m$%             ",
"    % e#n$*$o$%       % % p$q$r$s$t$u$v$w$x$y$%                 ",
"      z$A$B$%             % % % % % % % % %                     ",
"      % C$%                                                     ",
"      % %                                                       "};
