/* XPM */
static char * search_xpm[] = {
"32 32 329 2",
"  	c None",
". 	c #B8B8C6",
"+ 	c #B9B9C7",
"@ 	c #BABAC8",
"# 	c #C2C2CF",
"$ 	c #CACAD5",
"% 	c #C6C6D2",
"& 	c #B1B1C1",
"* 	c #B3B3C2",
"= 	c #A1B2CF",
"- 	c #8CB5E2",
"; 	c #8CC3F3",
"> 	c #87C5F6",
", 	c #8BC8F7",
"' 	c #8ECBF7",
") 	c #9BC5EA",
"! 	c #A4BBD7",
"~ 	c #B3B3C3",
"{ 	c #B2B2C2",
"] 	c #ABABBD",
"^ 	c #A8ADC1",
"/ 	c #85B2E3",
"( 	c #88C6F6",
"_ 	c #9AD5F9",
": 	c #9ED8F9",
"< 	c #A1DBFA",
"[ 	c #A4DDFA",
"} 	c #A7E0FA",
"| 	c #A9E2FB",
"1 	c #ABE3FB",
"2 	c #99CDF1",
"3 	c #A8B7CC",
"4 	c #ACACBD",
"5 	c #AAAABC",
"6 	c #A5A5B8",
"7 	c #9AA6C3",
"8 	c #7AB6F1",
"9 	c #97D2F8",
"0 	c #9FD9F9",
"a 	c #A5DEFA",
"b 	c #AAE2FB",
"c 	c #ACE4FB",
"d 	c #AEE5FB",
"e 	c #A2DCFA",
"f 	c #AFE6FB",
"g 	c #B3EAFC",
"h 	c #B2E9FC",
"i 	c #A6DFFA",
"j 	c #A4BAD1",
"k 	c #A3A3B6",
"l 	c #9E9EB2",
"m 	c #9BA0B7",
"n 	c #79B5F0",
"o 	c #98D3F8",
"p 	c #A4DEFA",
"q 	c #B6EDFC",
"r 	c #BBF0FD",
"s 	c #B8EEFD",
"t 	c #BAF0FD",
"u 	c #B5ECFC",
"v 	c #A0DAF9",
"w 	c #A3DCFA",
"x 	c #BBF1FD",
"y 	c #A2B4CA",
"z 	c #9898AD",
"A 	c #7DAEE3",
"B 	c #95D1F8",
"C 	c #A3DDFA",
"D 	c #B1E9FC",
"E 	c #BEF3FD",
"F 	c #C7FBFE",
"G 	c #CCFDFF",
"H 	c #C5F9FE",
"I 	c #ADE5FB",
"J 	c #B0E8FC",
"K 	c #C1F5FE",
"L 	c #B2E5F7",
"M 	c #9A9EB3",
"N 	c #9797AD",
"O 	c #9191A8",
"P 	c #8798BB",
"Q 	c #89C6F7",
"R 	c #9CD7F9",
"S 	c #BDF2FD",
"T 	c #CBFDFF",
"U 	c #D6FFFF",
"V 	c #DCFFFF",
"W 	c #B5E9FC",
"X 	c #BBEFFD",
"Y 	c #CDFCFF",
"Z 	c #B7EEFC",
"` 	c #C3F7FE",
" .	c #AFCDDC",
"..	c #9292A8",
"+.	c #8B8BA3",
"@.	c #7DA6D6",
"#.	c #C4F8FE",
"$.	c #D4FFFF",
"%.	c #E1FFFF",
"&.	c #EBFFFF",
"*.	c #BFEFFD",
"=.	c #D8FEFF",
"-.	c #C2F6FE",
";.	c #C8FCFF",
">.	c #CDFFFF",
",.	c #C1F2F8",
"'.	c #8888A0",
").	c #84849D",
"!.	c #89C0F0",
"~.	c #9BD6F9",
"{.	c #A5DFFA",
"].	c #C7FBFF",
"^.	c #D8FFFF",
"/.	c #E7FFFF",
"(.	c #F6FFFF",
"_.	c #EEFDFF",
":.	c #C0F5FE",
"<.	c #DBFDFF",
"[.	c #CBFEFF",
"}.	c #CEFFFF",
"|.	c #D0FFFF",
"1.	c #D1FFFF",
"2.	c #96A2B6",
"3.	c #8B8BA2",
"4.	c #88C6F7",
"5.	c #A8E1FB",
"6.	c #B2EAFC",
"7.	c #C6F9FE",
"8.	c #D5FFFF",
"9.	c #E4FFFF",
"0.	c #E8FDFF",
"a.	c #C5F3FD",
"b.	c #C1F6FE",
"c.	c #CBFCFF",
"d.	c #E5FFFF",
"e.	c #D2FFFF",
"f.	c #D7FFFF",
"g.	c #AABBC9",
"h.	c #7D7D97",
"i.	c #90CCF7",
"j.	c #AEE6FB",
"k.	c #B0E6FB",
"l.	c #BAECFC",
"m.	c #B7EDFC",
"n.	c #E2FFFF",
"o.	c #DEFFFF",
"p.	c #DBFFFF",
"q.	c #DDFFFF",
"r.	c #A7BBC9",
"s.	c #777793",
"t.	c #7E7E98",
"u.	c #B6ECFC",
"v.	c #BCF2FD",
"w.	c #C6FAFE",
"x.	c #E9FFFF",
"y.	c #E0FFFF",
"z.	c #E3FFFF",
"A.	c #A6B3C3",
"B.	c #70708E",
"C.	c #6A6A88",
"D.	c #87C1EF",
"E.	c #9DD7F9",
"F.	c #B4EBFC",
"G.	c #C8FBFE",
"H.	c #CBFAFE",
"I.	c #D5FCFF",
"J.	c #DCFEFF",
"K.	c #DAFFFF",
"L.	c #E6FFFF",
"M.	c #E8FFFF",
"N.	c #888FA6",
"O.	c #636383",
"P.	c #7EA5D0",
"Q.	c #B9EFFD",
"R.	c #C3F8FE",
"S.	c #CDFEFF",
"T.	c #D3FFFF",
"U.	c #EFFFFF",
"V.	c #F2FFFF",
"W.	c #F1FFFF",
"X.	c #EEFFFF",
"Y.	c #E0F5F7",
"Z.	c #656585",
"`.	c #5D5D7E",
" +	c #64749B",
".+	c #9DD8F9",
"++	c #F4FFFF",
"@+	c #F8FFFF",
"#+	c #F7FFFF",
"$+	c #B6C2CE",
"%+	c #5C5C7D",
"&+	c #565679",
"*+	c #7EACD7",
"=+	c #ABE4FB",
"-+	c #B1E8FC",
";+	c #CFFFFF",
">+	c #F0FFFF",
",+	c #FCFFFF",
"'+	c #FAFFFF",
")+	c #EAF4F7",
"!+	c #696B89",
"~+	c #575779",
"{+	c #555578",
"]+	c #5C6388",
"^+	c #97CEF1",
"/+	c #9095AB",
"(+	c #71718E",
"_+	c #7F7F99",
":+	c #616C90",
"<+	c #9DD3F2",
"[+	c #BFF4FD",
"}+	c #CCFEFF",
"|+	c #D9FFFF",
"1+	c #EAFFFF",
"2+	c #6F6F8C",
"3+	c #A7A7B9",
"4+	c #72728F",
"5+	c #5E6588",
"6+	c #90BBDA",
"7+	c #D6EAEE",
"8+	c #848AA2",
"9+	c #B7B7C6",
"0+	c #9A9AAF",
"a+	c #BDBDCA",
"b+	c #C68B3A",
"c+	c #C7852A",
"d+	c #6B7999",
"e+	c #96BBD3",
"f+	c #BFF1FA",
"g+	c #C7FAFE",
"h+	c #C1DBE2",
"i+	c #909BB0",
"j+	c #5E6080",
"k+	c #646484",
"l+	c #85859E",
"m+	c #BEBECB",
"n+	c #B5B5C4",
"o+	c #C19868",
"p+	c #D18C26",
"q+	c #D0871C",
"r+	c #BE7E29",
"s+	c #696C8B",
"t+	c #727F9A",
"u+	c #717793",
"v+	c #5B5B7D",
"w+	c #7C7C97",
"x+	c #8989A1",
"y+	c #B69065",
"z+	c #CF9C4E",
"A+	c #F1BB56",
"B+	c #EBA020",
"C+	c #CA821B",
"D+	c #B57729",
"E+	c #A66F32",
"F+	c #CC9F57",
"G+	c #FCF1BF",
"H+	c #F7D78C",
"I+	c #F1BC56",
"J+	c #EBA121",
"K+	c #C47E1C",
"L+	c #AB6F29",
"M+	c #A36928",
"N+	c #DCA843",
"O+	c #FFEBA1",
"P+	c #F7D78D",
"Q+	c #F1BC57",
"R+	c #EBA122",
"S+	c #BE791B",
"T+	c #A16728",
"U+	c #9D6428",
"V+	c #9A6228",
"W+	c #D8A543",
"X+	c #FFEAA0",
"Y+	c #F7D78E",
"Z+	c #F1BC58",
"`+	c #ECA122",
" @	c #B8741B",
".@	c #986028",
"+@	c #935C27",
"@@	c #905A27",
"#@	c #D4A241",
"$@	c #FFEA9F",
"%@	c #FCF1C0",
"&@	c #F7D88E",
"*@	c #F1BD58",
"=@	c #ECA223",
"-@	c #B26F1B",
";@	c #8E5827",
">@	c #895527",
",@	c #865327",
"'@	c #D19F40",
")@	c #FFE99E",
"!@	c #FDF1C0",
"~@	c #F7D88F",
"{@	c #F1BD59",
"]@	c #ECA224",
"^@	c #AB6B1B",
"/@	c #845127",
"(@	c #804D27",
"_@	c #7D4B26",
":@	c #CD9C3F",
"<@	c #FFE99D",
"[@	c #FDF2C0",
"}@	c #F7D890",
"|@	c #F1BD5A",
"1@	c #A6661B",
"2@	c #7B4926",
"3@	c #764526",
"4@	c #754426",
"5@	c #CB9A3E",
"6@	c #FFE99B",
"7@	c #FDF2C1",
"8@	c #F7D990",
"9@	c #F1BE5A",
"0@	c #D59125",
"a@	c #76492E",
"b@	c #744426",
"c@	c #C2923D",
"d@	c #FFE89A",
"e@	c #DFBD7D",
"f@	c #805333",
"g@	c #887F8D",
"h@	c #A87A3A",
"i@	c #E5C983",
"j@	c #83583B",
"k@	c #B2A9AE",
"l@	c #6A6A89",
"m@	c #72452B",
"n@	c #847B8A",
"            . + @ # $ % @ + . .                                 ",
"        & * = - ; > , ' , ) ! ~ {                               ",
"      ] ^ / ( _ : < [ } | 1 < 2 3 4 5                           ",
"    6 7 8 9 0 a b c d e b f g h i j 6 k                         ",
"  l m n o p f q r s t u v w 1 q x f y l                         ",
"  z A B C D E F G G c H s I J h x K L M N                       ",
"O P Q R I S T U V V W X Y Z r S E H `  ...                      ",
"+.@.o < g #.$.%.&.&.*.Z =.-.H F ;.;.>.,.+.'.                    ",
").!.~.{.u ].^./.(._.t :.<.[.}.|.|.|.1.}.2.).                    ",
"3.4.: 5.6.7.8.9.0.a.b.c.d.e.$.U f.f.U 8.g.h.                    ",
"O i.v | j.e k.l.m.:.;.n.o.f.p.q.o.o.V p.r.s.                    ",
"t., e b g u.1 6.v.w.q.x.^.q.y.z.9.9.n.y.A.B.                    ",
"C.D.[ 1 E.F.G.H.I.J.K.f.q.n.L.x.&.&.M.9.N.C.                    ",
"O.P.a c [ [ j.Q.R.S.T.K.y.L.&.U.V.W.X.Y.O.Z.                    ",
"`. +.+I j.i J r H }.8.p.n.M.X.++@+#+V.$+%+                      ",
"  &+*+1 F.=+-+x w.;+8.V z.x.>+(.,+'+)+!+~+                      ",
"  {+]+^+g Q.g r H }.8.p.n.M.X.++#+(./+(+_+                      ",
"    {+:+<+Z [+v.` }+T.|+y.d.1+U.W./+2+3+4+                      ",
"      {+5+6+u.#.].}+1.f.V %.L.7+8+4+9+0+3+a+b+c+                ",
"        {+{+d+e+f+g+|.$.^.h+i+j+k+3+l+m+n+o+p+q+r+              ",
"            {+{+{+s+t+u+v+{+{+{+  w+  x+y+z+A+B+C+D+            ",
"                  {+{+{+              E+F+G+H+I+J+K+L+          ",
"                                      M+N+O+G+P+Q+R+S+T+        ",
"                                      U+V+W+X+G+Y+Z+`+ @.@      ",
"                                        +@@@#@$@%@&@*@=@-@;@    ",
"                                          >@,@'@)@!@~@{@]@^@/@  ",
"                                            (@_@:@<@[@}@|@]@1@2@",
"                                              3@4@5@6@7@8@9@0@a@",
"                                                b@b@c@d@7@e@f@g@",
"                                                  b@b@h@i@j@k@l@",
"                                                    b@b@m@n@Z.{+",
"                                                                "};
